<?xml version="1.0" encoding="UTF-8" standalone="no"?>
<!-- Created with Inkscape (http://www.inkscape.org/) -->

<svg
   xmlns:dc="http://purl.org/dc/elements/1.1/"
   xmlns:cc="http://creativecommons.org/ns#"
   xmlns:rdf="http://www.w3.org/1999/02/22-rdf-syntax-ns#"
   xmlns:svg="http://www.w3.org/2000/svg"
   xmlns="http://www.w3.org/2000/svg"
   xmlns:xlink="http://www.w3.org/1999/xlink"
   xmlns:sodipodi="http://sodipodi.sourceforge.net/DTD/sodipodi-0.dtd"
   xmlns:inkscape="http://www.inkscape.org/namespaces/inkscape"
   version="1.0"
   width="24"
   height="24"
   id="svg2622"
   inkscape:version="0.48.0 r9654"
   sodipodi:docname="audio-x-playlist.svg">
  <metadata
     id="metadata41">
    <rdf:RDF>
      <cc:Work
         rdf:about="">
        <dc:format>image/svg+xml</dc:format>
        <dc:type
           rdf:resource="http://purl.org/dc/dcmitype/StillImage" />
        <dc:title />
      </cc:Work>
    </rdf:RDF>
  </metadata>
  <sodipodi:namedview
     pagecolor="#ffffff"
     bordercolor="#666666"
     borderopacity="1"
     objecttolerance="10"
     gridtolerance="10"
     guidetolerance="10"
     inkscape:pageopacity="0"
     inkscape:pageshadow="2"
     inkscape:window-width="792"
     inkscape:window-height="644"
     id="namedview39"
     showgrid="false"
     inkscape:zoom="7.454084"
     inkscape:cx="5.116613"
     inkscape:cy="13.450447"
     inkscape:window-x="1059"
     inkscape:window-y="63"
     inkscape:window-maximized="0"
     inkscape:current-layer="layer1-8" />
  <defs
     id="defs2624">
    <linearGradient
       id="linearGradient5048">
      <stop
         id="stop5050"
         style="stop-color:#000000;stop-opacity:0"
         offset="0" />
      <stop
         id="stop5056"
         style="stop-color:#000000;stop-opacity:1"
         offset="0.5" />
      <stop
         id="stop5052"
         style="stop-color:#000000;stop-opacity:0"
         offset="1" />
    </linearGradient>
    <linearGradient
       x1="302.85715"
       y1="366.64789"
       x2="302.85715"
       y2="609.50507"
       id="linearGradient2616"
       xlink:href="#linearGradient5048"
       gradientUnits="userSpaceOnUse"
       gradientTransform="matrix(0.0352071,0,0,0.00823529,-0.724852,18.980551)" />
    <radialGradient
       cx="605.71429"
       cy="486.64789"
       r="117.14286"
       fx="605.71429"
       fy="486.64789"
       id="radialGradient2613"
       xlink:href="#linearGradient5060"
       gradientUnits="userSpaceOnUse"
       gradientTransform="matrix(-0.01204859,0,0,0.00823529,10.761206,18.980568)" />
    <linearGradient
       id="linearGradient5060">
      <stop
         id="stop5062"
         style="stop-color:#000000;stop-opacity:1"
         offset="0" />
      <stop
         id="stop5064"
         style="stop-color:#000000;stop-opacity:0"
         offset="1" />
    </linearGradient>
    <radialGradient
       cx="605.71429"
       cy="486.64789"
       r="117.14286"
       fx="605.71429"
       fy="486.64789"
       id="radialGradient2610"
       xlink:href="#linearGradient5060"
       gradientUnits="userSpaceOnUse"
       gradientTransform="matrix(0.01204859,0,0,0.00823529,13.238794,18.980568)" />
    <linearGradient
       x1="-51.786404"
       y1="50.786446"
       x2="-51.786404"
       y2="2.9062471"
       id="linearGradient2607"
       xlink:href="#linearGradient3104"
       gradientUnits="userSpaceOnUse"
       gradientTransform="matrix(0.3922135,0,0,0.4473607,29.199293,-1.2386997)" />
    <linearGradient
       id="linearGradient3600">
      <stop
         id="stop3602"
         style="stop-color:#f4f4f4;stop-opacity:1"
         offset="0" />
      <stop
         id="stop3604"
         style="stop-color:#dbdbdb;stop-opacity:1"
         offset="1" />
    </linearGradient>
    <linearGradient
       x1="25.132275"
       y1="0.98520643"
       x2="25.132275"
       y2="47.013336"
       id="linearGradient2605"
       xlink:href="#linearGradient3600"
       gradientUnits="userSpaceOnUse"
       gradientTransform="matrix(0.4857154,0,0,0.4780255,0.3428305,-0.7059501)" />
    <linearGradient
       id="linearGradient3211">
      <stop
         id="stop3213"
         style="stop-color:#ffffff;stop-opacity:1"
         offset="0" />
      <stop
         id="stop3215"
         style="stop-color:#ffffff;stop-opacity:0"
         offset="1" />
    </linearGradient>
    <linearGradient
       x1="24"
       y1="1.9999999"
       x2="24"
       y2="46.01725"
       id="linearGradient2599"
       xlink:href="#linearGradient3211"
       gradientUnits="userSpaceOnUse"
       gradientTransform="matrix(0.4545444,0,0,0.4651153,1.0909345,0.3372293)" />
    <linearGradient
       id="linearGradient3104">
      <stop
         id="stop3106"
         style="stop-color:#aaaaaa;stop-opacity:1"
         offset="0" />
      <stop
         id="stop3108"
         style="stop-color:#c8c8c8;stop-opacity:1"
         offset="1" />
    </linearGradient>
    <linearGradient
       id="linearGradient8589">
      <stop
         id="stop8591"
         style="stop-color:#fefefe;stop-opacity:1"
         offset="0" />
      <stop
         id="stop8593"
         style="stop-color:#cbcbcb;stop-opacity:1"
         offset="1" />
    </linearGradient>
    <linearGradient
       x1="32.892288"
       y1="8.0590115"
       x2="36.358372"
       y2="5.4565363"
       id="linearGradient2595"
       xlink:href="#linearGradient8589"
       gradientUnits="userSpaceOnUse"
       gradientTransform="matrix(0.4778466,0,0,0.5524833,0.3722548,-0.0761283)" />
    <radialGradient
       cx="17.058823"
       cy="41.058823"
       r="5.7384715"
       fx="15.544384"
       fy="39.027378"
       id="radialGradient3538"
       xlink:href="#linearGradient7067-814-120-245"
       gradientUnits="userSpaceOnUse"
       gradientTransform="matrix(0.3766757,-0.06311262,0,0.3645139,-2.446246,-0.6906545)" />
    <linearGradient
       id="linearGradient7067-814-120-245">
      <stop
         id="stop3877"
         style="stop-color:#8fff00;stop-opacity:1;"
         offset="0" />
      <stop
         id="stop3879"
         style="stop-color:#77a354;stop-opacity:1;"
         offset="1" />
    </linearGradient>
    <radialGradient
       cx="17.058823"
       cy="41.058823"
       r="5.7384715"
       fx="15.970393"
       fy="39.105911"
       id="radialGradient3540"
       xlink:href="#linearGradient7067-814-120-245"
       gradientUnits="userSpaceOnUse"
       gradientTransform="matrix(0.3698584,-0.06212313,0,0.358799,4.6705097,-1.5148309)" />
    <linearGradient
       id="linearGradient3926">
      <stop
         id="stop3928"
         style="stop-color:#8fff00;stop-opacity:1;"
         offset="0" />
      <stop
         id="stop3930"
         style="stop-color:#77a354;stop-opacity:1;"
         offset="1" />
    </linearGradient>
    <linearGradient
       x1="28.739122"
       y1="144.11652"
       x2="25.400293"
       y2="119.86452"
       id="linearGradient3542"
       xlink:href="#linearGradient2372-7"
       gradientUnits="userSpaceOnUse"
       gradientTransform="matrix(0.1264953,0,0,0.128756,1.8294146,-14.19922)" />
    <linearGradient
       id="linearGradient2372-7">
      <stop
         id="stop2374-5"
         style="stop-color:#ffffff;stop-opacity:1"
         offset="0" />
      <stop
         id="stop2376-3"
         style="stop-color:#ffffff;stop-opacity:0.37931034"
         offset="1" />
    </linearGradient>
    <linearGradient
       x1="28.739122"
       y1="144.11652"
       x2="26.256771"
       y2="125.39074"
       id="linearGradient3544"
       xlink:href="#linearGradient2372-7"
       gradientUnits="userSpaceOnUse"
       gradientTransform="matrix(0.2545239,0,0,0.128756,5.8478384,-14.983809)" />
    <linearGradient
       id="linearGradient3937">
      <stop
         id="stop3939"
         style="stop-color:#ffffff;stop-opacity:1"
         offset="0" />
      <stop
         id="stop3941"
         style="stop-color:#ffffff;stop-opacity:0.37931034"
         offset="1" />
    </linearGradient>
    <linearGradient
       x1="25.132275"
       y1="0.98520643"
       x2="25.132275"
       y2="47.013336"
       id="linearGradient2605-9"
       xlink:href="#linearGradient3600-4"
       gradientUnits="userSpaceOnUse"
       gradientTransform="matrix(0.4857154,0,0,0.4780255,-0.65717039,1.2940499)" />
    <linearGradient
       id="linearGradient3600-4">
      <stop
         id="stop3602-1"
         style="stop-color:#f4f4f4;stop-opacity:1"
         offset="0" />
      <stop
         id="stop3604-5"
         style="stop-color:#dbdbdb;stop-opacity:1"
         offset="1" />
    </linearGradient>
    <linearGradient
       x1="-51.786404"
       y1="50.786446"
       x2="-51.786404"
       y2="2.9062471"
       id="linearGradient2607-4"
       xlink:href="#linearGradient3104-1"
       gradientUnits="userSpaceOnUse"
       gradientTransform="matrix(0.3922135,0,0,0.4473607,28.199292,0.7613003)" />
    <linearGradient
       id="linearGradient3104-1">
      <stop
         id="stop3106-5"
         style="stop-color:#aaaaaa;stop-opacity:1"
         offset="0" />
      <stop
         id="stop3108-5"
         style="stop-color:#c8c8c8;stop-opacity:1"
         offset="1" />
    </linearGradient>
    <linearGradient
       x1="24"
       y1="1.9999999"
       x2="24"
       y2="46.01725"
       id="linearGradient2599-4"
       xlink:href="#linearGradient3211-9"
       gradientUnits="userSpaceOnUse"
       gradientTransform="matrix(0.4545444,0,0,0.4651153,0.09093361,2.3372293)" />
    <linearGradient
       id="linearGradient3211-9">
      <stop
         id="stop3213-8"
         style="stop-color:#ffffff;stop-opacity:1"
         offset="0" />
      <stop
         id="stop3215-3"
         style="stop-color:#ffffff;stop-opacity:0"
         offset="1" />
    </linearGradient>
    <linearGradient
       x1="32.892288"
       y1="8.0590115"
       x2="36.358372"
       y2="5.4565363"
       id="linearGradient2595-8"
       xlink:href="#linearGradient8589-5"
       gradientUnits="userSpaceOnUse"
       gradientTransform="matrix(0.4778466,0,0,0.5524833,-0.62774609,1.9238717)" />
    <linearGradient
       id="linearGradient8589-5">
      <stop
         id="stop8591-2"
         style="stop-color:#fefefe;stop-opacity:1"
         offset="0" />
      <stop
         id="stop8593-2"
         style="stop-color:#cbcbcb;stop-opacity:1"
         offset="1" />
    </linearGradient>
    <linearGradient
       y2="5.4565363"
       x2="36.358372"
       y1="8.0590115"
       x1="32.892288"
       gradientTransform="matrix(0.4778466,0,0,0.5524833,-0.62774609,1.9238717)"
       gradientUnits="userSpaceOnUse"
       id="linearGradient3037"
       xlink:href="#linearGradient8589-5"
       inkscape:collect="always" />
    <radialGradient
       cx="17.058823"
       cy="41.058823"
       r="5.7384715"
       fx="15.544384"
       fy="39.027378"
       id="radialGradient3538-3"
       xlink:href="#linearGradient7067-814-120-245-6"
       gradientUnits="userSpaceOnUse"
       gradientTransform="matrix(0.3766757,-0.06311262,0,0.3645139,-2.446246,-0.6906545)" />
    <linearGradient
       id="linearGradient7067-814-120-245-6">
      <stop
         id="stop3877-3"
         style="stop-color:#e7ffae;stop-opacity:1;"
         offset="0" />
      <stop
         id="stop3879-3"
         style="stop-color:#a0dd0e;stop-opacity:1;"
         offset="1" />
    </linearGradient>
    <radialGradient
       cx="17.058823"
       cy="41.058823"
       r="5.7384715"
       fx="15.970393"
       fy="39.105911"
       id="radialGradient3540-4"
       xlink:href="#linearGradient7067-814-120-245-6"
       gradientUnits="userSpaceOnUse"
       gradientTransform="matrix(0.3698584,-0.06212313,0,0.358799,4.6705097,-1.5148309)" />
    <linearGradient
       id="linearGradient3967">
      <stop
         id="stop3969"
         style="stop-color:#8fff00;stop-opacity:1;"
         offset="0" />
      <stop
         id="stop3971"
         style="stop-color:#77a354;stop-opacity:1;"
         offset="1" />
    </linearGradient>
    <linearGradient
       x1="28.739122"
       y1="144.11652"
       x2="25.400293"
       y2="119.86452"
       id="linearGradient3542-4"
       xlink:href="#linearGradient2372-7-3"
       gradientUnits="userSpaceOnUse"
       gradientTransform="matrix(0.1264953,0,0,0.128756,1.8294146,-14.19922)" />
    <linearGradient
       id="linearGradient2372-7-3">
      <stop
         id="stop2374-5-9"
         style="stop-color:#ffffff;stop-opacity:1"
         offset="0" />
      <stop
         id="stop2376-3-7"
         style="stop-color:#ffffff;stop-opacity:0.37931034"
         offset="1" />
    </linearGradient>
    <linearGradient
       x1="28.739122"
       y1="144.11652"
       x2="26.256771"
       y2="125.39074"
       id="linearGradient3544-2"
       xlink:href="#linearGradient2372-7-3"
       gradientUnits="userSpaceOnUse"
       gradientTransform="matrix(0.2545239,0,0,0.128756,5.8478384,-14.983809)" />
    <linearGradient
       id="linearGradient3978">
      <stop
         id="stop3980"
         style="stop-color:#ffffff;stop-opacity:1"
         offset="0" />
      <stop
         id="stop3982"
         style="stop-color:#ffffff;stop-opacity:0.37931034"
         offset="1" />
    </linearGradient>
    <linearGradient
       y2="125.39074"
       x2="26.256771"
       y1="144.11652"
       x1="28.739122"
       gradientTransform="matrix(0.2545239,0,0,0.128756,5.8478384,-14.983809)"
       gradientUnits="userSpaceOnUse"
       id="linearGradient3991"
       xlink:href="#linearGradient2372-7-3"
       inkscape:collect="always" />
  </defs>
  <g
     transform="translate(-1.5612643,-1.8063242)"
     id="layer1">
    <path
       inkscape:connector-curvature="0"
       d="m 2.4999608,2.499961 c 3.8955799,0 7.6044552,0 11.5000382,0 0.683368,0.2372969 4.541325,3.12817 5.5,5.000039 0,5.729157 3.9e-5,10.270842 3.9e-5,16 l -17.0000772,0 c 0,-7.33336 0,-13.6666811 0,-21.000039 z"
       id="path4160"
       style="fill:url(#linearGradient2605-9);fill-opacity:1;stroke:url(#linearGradient2607-4);stroke-width:0.99992162;stroke-linecap:butt;stroke-linejoin:round;stroke-miterlimit:4;stroke-opacity:1;stroke-dasharray:none;stroke-dashoffset:0;display:inline" />
    <path
       inkscape:connector-curvature="0"
       d="m 18.5,7.6770357 c 0,5.2083053 0,10.6146573 0,15.8229643 -5,0 -9.9999997,0 -15.0000009,0 0,-6.66667 0,-13.333334 0,-20.0000001 3.4372614,0 6.9564989,0 10.3937609,0"
       id="path2435"
       style="opacity:0.6;fill:none;stroke:url(#linearGradient2599-4);stroke-width:0.99999988;stroke-linecap:butt;stroke-linejoin:miter;stroke-miterlimit:4;stroke-opacity:1;stroke-dasharray:none;stroke-dashoffset:0;display:inline" />
    <path
       inkscape:connector-curvature="0"
       d="m 5.0612643,6.3063242 2.34375,0 z m 2.6875,0 2.1875,0 z m 2.5312497,0 1.9375,0 z m 2.25,0 0.84375,0 z m 1.1875,0 z m -8.6562497,2 3.65625,0 z m 4.0625,0 1.7499997,0 z m 2.0624997,0 0.875,0 z m 1.21875,0 1.59375,0 z m 1.9375,0 1.625,0 z m -9.2812497,1.9999998 1.59375,0 z m 2.09375,0 5.9062497,0 z m -2.09375,3 3.09375,0 z m 3.40625,0 5.0624997,0 z m 5.3749997,0 2.46875,0 z m -8.7812497,2 2.34375,0 z m 2.6875,0 2.15625,0 z m 2.5312497,0 1.9375,0 z m 2.25,0 0.84375,0 z m 1.1875,0 1.875,0 z m -8.6562497,3 3.09375,0 z m 3.40625,0 5.0624997,0 z m 5.3749997,0 2.46875,0 z m -8.7812497,2 3.8750002,0 z m 4.21875,0 1.7499997,0 z m 2.0624997,0 2.75,0 z"
       id="path2590"
       style="fill:none;stroke:#b5b5b5;stroke-width:1px;stroke-linecap:butt;stroke-linejoin:miter;stroke-opacity:1"
       sodipodi:nodetypes="ccccccccccccccccccccccccccccccccccccccccccccccccccccccccccccccccccccccccccccc" />
    <path
       inkscape:connector-curvature="0"
       d="m 13.075473,3 c 1.156303,0.3287671 0.339059,4.6143789 0.339059,4.6143789 0,0 4.515388,-0.4277362 5.60771,1.1949961 1.489153,2.212257 -0.06822,-0.6351721 -0.173447,-0.8216972 C 18.092867,6.6476323 14.982455,3.4405918 13.803386,3.0464703 13.715154,3.0169778 13.51951,3 13.075473,3 z"
       id="path3370"
       style="fill:#a1a1a1;fill-opacity:1;fill-rule:evenodd;stroke:none;display:inline" />
    <path
       inkscape:connector-curvature="0"
       d="m 12.999999,3 c 1.526166,0 1,4 1,4 0,0 4.992074,-0.45326 4.992074,2 0,-0.5977419 0.05575,-1.4784338 -0.06407,-1.6559326 C 18.088896,6.1010616 15.184238,3.4821803 14.129934,3.0464703 14.043956,3.0109384 13.444036,3 12.999999,3 z"
       id="path4474"
       style="fill:url(#linearGradient3037);fill-opacity:1;fill-rule:evenodd;stroke:none;display:inline" />
  </g>
  <g
     transform="translate(10.095202,8.1399656)"
     id="layer1-8">
    <path
       inkscape:connector-curvature="0"
       d="M 12.887143,11.242639 12.520463,8.2875931"
       id="path2931"
       style="fill:none;stroke:none" />
    <path
       inkscape:connector-curvature="0"
       d="M 12.862181,0.50107998 C 10.505078,0.88091513 7.3505507,1.2719259 5,1.6729744 4.3775618,1.9766657 4.5174948,2.758676 4.4899572,3.3260967 c 0,2.5319424 0,5.0638848 0,7.5958273 -1.3117262,-0.246608 -2.9113558,0.837273 -2.9807337,2.553424 -0.1132522,1.068438 0.8342068,1.998453 1.8644819,2.023461 1.844664,0.04478 3.1062853,-1.179076 3.1262946,-2.726857 -0.020145,-2.599408 0.00566,-5.1998384 0,-7.7996448 0.2855763,-0.02115 4.61103,-0.8465037 5,-0.901457 0,1.9471472 0,3.8942945 0,5.8414417 -1.146387,-0.2746364 -2.6118971,0.4787211 -2.9752697,2.0172541 -0.15337,0.862385 0.1364969,1.944831 1.0115464,2.309984 1.7082373,0.784936 4.0532683,-0.805037 3.9579313,-2.671065 -0.02646,-3.4661732 0.02169,-6.933764 0,-10.4003066 -0.04486,-0.32575865 -0.265607,-0.69059252 -0.632027,-0.66707842 l 0,0 z"
       id="path4031"
       style="fill:#a0e500;fill-opacity:1;stroke:#445a00;stroke-width:0.50000000000000000;stroke-linecap:round;stroke-linejoin:round;stroke-miterlimit:4;stroke-opacity:1;stroke-dasharray:none" />
    <path
       inkscape:connector-curvature="0"
       d="m 5.9735639,12.865117 c -1.897e-4,0.998069 -0.8929531,1.956631 -1.9941666,2.14114 -1.1012135,0.18451 -1.993976,-0.474885 -1.9941648,-1.47289 1.897e-4,-0.998069 0.8929531,-1.956631 1.9941666,-2.14114 1.1012135,-0.18451 1.993976,0.474885 1.9941648,1.47289 l 0,0 z"
       id="path2937"
       style="fill:url(#radialGradient3538-3);fill-opacity:1;stroke:none" />
    <path
       inkscape:connector-curvature="0"
       d="m 12.937933,11.82841 c -4.9e-5,0.982486 -0.876694,1.926163 -1.958074,2.107797 -1.08138,0.181633 -1.9580252,-0.467554 -1.9580741,-1.450023 -4.89e-5,-0.982532 0.8766251,-1.926313 1.9580741,-2.107958 1.081449,-0.181645 1.958123,0.467635 1.958074,1.450184 l 0,0 z"
       id="path2941"
       style="fill:url(#radialGradient3540-4);fill-opacity:1;stroke:none" />
    <path
       d="M 4.7691019,11.334081 4.715415,2.6516444 c 0,0 0.05877,-0.6637646 0.4947159,-0.6657879 0.1546126,-0.027048 6.9317151,-1.15654737 6.9317151,-1.15654737 0,0 0.132983,0.70947367 -6.0694897,1.62965477 -0.516931,0.077068 -0.76544,0.068481 -0.7627163,0.5583664 0.00735,1.3216244 -0.030358,3.795953 -0.030358,8.6082557 0,0.03443 -0.3254384,-0.243938 -0.5101806,-0.291505 l 5e-7,0 z"
       id="path2945"
       style="opacity:0.4;fill:url(#linearGradient3542-4);fill-opacity:1;fill-rule:evenodd;stroke:none"
       inkscape:connector-curvature="0" />
    <path
       d="m 11.762846,10.461072 0.03393,-6.5590208 c 0.357493,-0.0323 0.05489,-0.00519 0.53695,-0.053577 0.0066,1.2251582 2.74e-4,2.2420961 2.74e-4,6.8691938 0,0.03443 -0.199425,-0.209029 -0.571151,-0.256596 l -3e-6,0 z"
       id="path2947"
       style="opacity:0.4;fill:url(#linearGradient3991);fill-opacity:1;fill-rule:evenodd;stroke:none"
       inkscape:connector-curvature="0" />
  </g>
</svg>
