<?xml version="1.0" encoding="UTF-8" standalone="no"?>
<!-- Created with Inkscape (http://www.inkscape.org/) -->

<svg
   xmlns:dc="http://purl.org/dc/elements/1.1/"
   xmlns:cc="http://creativecommons.org/ns#"
   xmlns:rdf="http://www.w3.org/1999/02/22-rdf-syntax-ns#"
   xmlns:svg="http://www.w3.org/2000/svg"
   xmlns="http://www.w3.org/2000/svg"
   xmlns:sodipodi="http://sodipodi.sourceforge.net/DTD/sodipodi-0.dtd"
   xmlns:inkscape="http://www.inkscape.org/namespaces/inkscape"
   width="85"
   height="22"
   id="svg2857"
   version="1.1"
   inkscape:version="0.48.2 r9819"
   sodipodi:docname="toggle-on-intl-new.svg">
  <defs
     id="defs2859">
    <inkscape:perspective
       sodipodi:type="inkscape:persp3d"
       inkscape:vp_x="0 : 526.18109 : 1"
       inkscape:vp_y="0 : 1000 : 0"
       inkscape:vp_z="744.09448 : 526.18109 : 1"
       inkscape:persp3d-origin="372.04724 : 350.78739 : 1"
       id="perspective2865" />
    <inkscape:perspective
       id="perspective2843"
       inkscape:persp3d-origin="0.5 : 0.33333333 : 1"
       inkscape:vp_z="1 : 0.5 : 1"
       inkscape:vp_y="0 : 1000 : 0"
       inkscape:vp_x="0 : 0.5 : 1"
       sodipodi:type="inkscape:persp3d" />
  </defs>
  <sodipodi:namedview
     id="base"
     pagecolor="#ffffff"
     bordercolor="#38ff29"
     borderopacity="1"
     inkscape:pageopacity="0.0"
     inkscape:pageshadow="2"
     inkscape:zoom="16"
     inkscape:cx="22.97288"
     inkscape:cy="18.955545"
     inkscape:document-units="px"
     inkscape:current-layer="g17454"
     showgrid="false"
     inkscape:window-width="1226"
     inkscape:window-height="806"
     inkscape:window-x="212"
     inkscape:window-y="67"
     inkscape:window-maximized="0"
     borderlayer="true"
     inkscape:showpageshadow="false"
     showborder="true" />
  <metadata
     id="metadata2862">
    <rdf:RDF>
      <cc:Work
         rdf:about="">
        <dc:format>image/svg+xml</dc:format>
        <dc:type
           rdf:resource="http://purl.org/dc/dcmitype/StillImage" />
        <dc:title></dc:title>
      </cc:Work>
    </rdf:RDF>
  </metadata>
  <g
     inkscape:label="Layer 1"
     inkscape:groupmode="layer"
     id="layer1"
     transform="translate(-444.64286,-781.36218)">
    <g
       style="display:inline"
       transform="translate(-351.35714,708.36218)"
       id="g16453">
      <path
         style="color:#000000;fill:#98cdff;fill-opacity:1;fill-rule:nonzero;stroke:none;stroke-width:0.99999994000000003;marker:none;visibility:visible;display:inline;overflow:visible;enable-background:accumulate"
         d="m -838.5,75 38.5,0 c 2.216,0 4,1.784 4,4 l 0,10 c 0,2.216 -1.784,4 -4,4 l -38.5,0 z"
         id="path4144"
         inkscape:connector-curvature="0"
         sodipodi:nodetypes="csssscc"
         transform="scale(-1,1)" />
      <g
         id="g17454"
         transform="translate(1.5,0.5)"
         style="display:inline">
        <path
           style="color:#000000;fill:#272727;fill-opacity:1;stroke:none;stroke-width:1;marker:none;visibility:visible;display:inline;overflow:visible;enable-background:accumulate"
           d="m -875.5,74.5 38.5,0 0,18 -38.5,0 c -2.216,0 -4,-1.784 -4,-4 l 0,-10 c 0,-2.216 1.784,-4 4,-4 z"
           id="rect17456"
           inkscape:connector-curvature="0"
           sodipodi:nodetypes="sccssss"
           transform="scale(-1,1)" />
        <path
           sodipodi:type="arc"
           style="color:#000000;fill:none;stroke:#ffffff;stroke-width:1.96875012;stroke-linecap:round;stroke-linejoin:miter;stroke-miterlimit:4;stroke-opacity:1;stroke-dasharray:none;stroke-dashoffset:0;marker:none;visibility:visible;display:inline;overflow:visible;enable-background:accumulate"
           id="path18722"
           sodipodi:cx="47.6875"
           sodipodi:cy="11.5625"
           sodipodi:rx="3.9375"
           sodipodi:ry="3.9375"
           d="m 51.625,11.5625 a 3.9375,3.9375 0 1 1 -7.875,0 3.9375,3.9375 0 1 1 7.875,0 z"
           transform="matrix(1.0158729,0,0,1.0158729,809.30556,71.75397)" />
        <path
           style="color:#000000;fill:#ffffff;fill-opacity:1;fill-rule:nonzero;stroke:#ffffff;stroke-width:2;stroke-linecap:square;stroke-linejoin:miter;stroke-miterlimit:4;stroke-opacity:1;stroke-dasharray:none;stroke-dashoffset:0;marker:none;visibility:visible;display:inline;overflow:visible;enable-background:accumulate"
           d="m 816.25,78.437 0,10.125"
           id="path19232"
           inkscape:connector-curvature="0" />
      </g>
      <path
         style="font-size:medium;font-style:normal;font-variant:normal;font-weight:normal;font-stretch:normal;text-indent:0;text-align:start;text-decoration:none;line-height:normal;letter-spacing:normal;word-spacing:normal;text-transform:none;direction:ltr;block-progression:tb;writing-mode:lr-tb;text-anchor:start;baseline-shift:baseline;color:#000000;fill:#dee2e3;fill-opacity:1;fill-rule:nonzero;stroke:none;stroke-width:0.99999994;marker:none;visibility:visible;display:inline;overflow:visible;enable-background:accumulate;font-family:Sans;-inkscape-font-specification:Sans"
         d="m 876.5,73.999999 c 2.48435,0 4.5,2.015649 4.5,4.5 L 881,89.5 c 0,2.48435 -2.01565,4.5 -4.5,4.5 l -76,0 c -2.48435,0 -4.5,-2.01565 -4.5,-4.5 l 0,-11.000001 c 0,-2.484351 2.01565,-4.5 4.5,-4.5 z m 0,1 -76,0 c -1.94765,0 -3.5,1.552351 -3.5,3.5 L 797,89.5 c 0,1.94765 1.55235,3.5 3.5,3.5 l 76,0 c 1.94765,0 3.5,-1.55235 3.5,-3.5 l 0,-11.000001 c 0,-1.947649 -1.55235,-3.5 -3.5,-3.5 z"
         id="rect16256-9-4"
         inkscape:connector-curvature="0"
         sodipodi:nodetypes="ssssssssssssssssss" />
    </g>
  </g>
</svg>
