/* XPM */
static char * close_active_xpm[] = {
"25 25 32 1",
" 	c None",
".	c #9D9D9D",
"+	c #8D8D8D",
"@	c #898989",
"#	c #868686",
"$	c #818181",
"%	c #7D7D7D",
"&	c #797979",
"*	c #757575",
"=	c #727272",
"-	c #6F6F6F",
";	c #DBDBDB",
">	c #949494",
",	c #6C6C6C",
"'	c #929292",
")	c #696969",
"!	c #8F8F8F",
"~	c #676767",
"{	c #8E8E8E",
"]	c #646464",
"^	c #8C8C8C",
"/	c #616161",
"(	c #8A8A8A",
"_	c #5F5F5F",
":	c #888888",
"<	c #5E5E5E",
"[	c #5D5D5D",
"}	c #878787",
"|	c #5B5B5B",
"1	c #5A5A5A",
"2	c #585858",
"3	c #575757",
".........................",
"+++++++++++++++++++++++++",
"@@@@@@@@@@@@@@@@@@@@@@@@@",
"#########################",
"$$$$$$$$$$$$$$$$$$$$$$$$$",
"%%%%%%%%%%%%%%%%%%%%%%%%%",
"&&&&&&&&&&&&&&&&&&&&&&&&&",
"*************************",
"=========================",
"--------;;>--->;;--------",
",,,,,,,,;;;',';;;,,,,,,,,",
"))))))))!;;;!;;;!))))))))",
"~~~~~~~~~{;;;;;{~~~~~~~~~",
"]]]]]]]]]]^;;;^]]]]]]]]]]",
"/////////(;;;;;(/////////",
"________:;;;:;;;:________",
"<<<<<<<<;;;:<:;;;<<<<<<<<",
"[[[[[[[[;;}[[[};;[[[[[[[[",
"|||||||||||||||||||||||||",
"1111111111111111111111111",
"2222222222222222222222222",
"3333333333333333333333333",
"3333333333333333333333333",
"3333333333333333333333333",
"3333333333333333333333333"};
