/* XPM */
static char * maximize_pressed_xpm[] = {
"24 25 39 1",
" 	c None",
".	c #9D9D9D",
"+	c #8D8D8D",
"@	c #898989",
"#	c #868686",
"$	c #818181",
"%	c #7D7D7D",
"&	c #797979",
"*	c #757575",
"=	c #828282",
"-	c #727272",
";	c #7F7F7F",
">	c #B4B4B4",
",	c #6F6F6F",
"'	c #FFFFFF",
")	c #6C6C6C",
"!	c #7A7A7A",
"~	c #696969",
"{	c #777777",
"]	c #AFAFAF",
"^	c #676767",
"/	c #AEAEAE",
"(	c #646464",
"_	c #737373",
":	c #ADADAD",
"<	c #616161",
"[	c #707070",
"}	c #ABABAB",
"|	c #5F5F5F",
"1	c #6E6E6E",
"2	c #5E5E5E",
"3	c #6D6D6D",
"4	c #5D5D5D",
"5	c #A9A9A9",
"6	c #5B5B5B",
"7	c #6B6B6B",
"8	c #5A5A5A",
"9	c #585858",
"0	c #575757",
"........................",
"++++++++++++++++++++++++",
"@@@@@@@@@@@@@@@@@@@@@@@@",
"########################",
"$$$$$$$$$$$$$$$$$$$$$$$$",
"%%%%%%%%%%%%%%%%%%%%%%%%",
"&&&&&&&&&&&&&&&&&&&&&&&&",
"**********====**********",
"----------;>>;----------",
",,,,,,,,,,%''%,,,,,,,,,,",
"))))))))))!''!))))))))))",
"~~~~~~{{{{]'']{{{{~~~~~~",
"^^^^^^*/''''''''/*^^^^^^",
"((((((_:'''''''':_((((((",
"<<<<<<[[[[}''}[[[[<<<<<<",
"||||||||||1''1||||||||||",
"22222222223''32222222222",
"4444444444)55)4444444444",
"666666666677776666666666",
"888888888888888888888888",
"999999999999999999999999",
"000000000000000000000000",
"000000000000000000000000",
"000000000000000000000000",
"000000000000000000000000"};
