/* XPM */
static char * top_right_active_xpm[] = {
"6 63 37 1",
" 	c None",
".	c #9D9D9D",
"+	c #8D8D8D",
"@	c #9B9B9B",
"#	c #898989",
"$	c #949494",
"%	c #868686",
"&	c #818181",
"*	c #7D7D7D",
"=	c #838383",
"-	c #797979",
";	c #757575",
">	c #777777",
",	c #727272",
"'	c #6F6F6F",
")	c #6D6D6D",
"!	c #6C6C6C",
"~	c #696969",
"{	c #676767",
"]	c #646464",
"^	c #636363",
"/	c #616161",
"(	c #5F5F5F",
"_	c #5E5E5E",
":	c #5D5D5D",
"<	c #5B5B5B",
"[	c #5A5A5A",
"}	c #585858",
"|	c #575757",
"1	c #626263",
"2	c #656565",
"3	c #707070",
"4	c #747374",
"5	c #787778",
"6	c #7B7B7B",
"7	c #7E7E7E",
"8	c #828282",
".     ",
"+@@   ",
"###$  ",
"%%%%+ ",
"&&&&+ ",
"*****=",
"-----*",
";;;;;>",
",,,,,,",
"''''')",
"!!!!!~",
"~~~~~{",
"{{{{{{",
"]]]]]^",
"//////",
"(((((/",
"_____/",
":::::/",
"<<<<</",
"[[[[[/",
"}}}}}/",
"|||||/",
"|||||/",
"|||||/",
"|||||/",
"     /",
"     /",
"     /",
"     /",
"     /",
"     /",
"     /",
"     /",
"     /",
"     /",
"     /",
"     /",
"     /",
"     /",
"     /",
"     /",
"     /",
"     /",
"     /",
"     /",
"     /",
"     /",
"     /",
"     /",
"     /",
"     /",
"     /",
"     /",
"     1",
"     2",
"     ~",
"     )",
"     3",
"     4",
"     5",
"     6",
"     7",
"     8"};
