/* XPM */
static char * bottom_left_active_xpm[] = {
"16 16 16 1",
" 	c None",
".	c #838383",
"+	c #868686",
"@	c #898989",
"#	c #8B8C8B",
"$	c #8E8E8E",
"%	c #919191",
"&	c #949494",
"*	c #979696",
"=	c #99999A",
"-	c #9C9D9D",
";	c #9F9F9F",
">	c #A2A2A2",
",	c #A5A5A4",
"'	c #A0A0A0",
")	c #F2F2F2",
".               ",
".               ",
"+               ",
"@               ",
"#               ",
"$               ",
"%               ",
"&               ",
"*               ",
"=               ",
"-               ",
";               ",
">               ",
",               ",
" '))))))))))))))",
"  ''''''''''''''"};
