/* XPM */
static char * bottom_right_active_xpm[] = {
"16 16 17 1",
" 	c None",
".	c #838383",
"+	c #848484",
"@	c #878687",
"#	c #8A8989",
"$	c #8C8C8C",
"%	c #8F8F8F",
"&	c #919192",
"*	c #949594",
"=	c #979797",
"-	c #9A9999",
";	c #9D9C9C",
">	c #A09F9F",
",	c #A2A2A1",
"'	c #A4A4A4",
")	c #F2F2F2",
"!	c #A6A6A6",
"               .",
"               +",
"               @",
"               #",
"               $",
"               %",
"               &",
"               *",
"               =",
"               -",
"               ;",
"               >",
"               ,",
"               '",
"))))))))))))))! ",
"!!!!!!!!!!!!!!  "};
