/* XPM */
static char * close_active_xpm[] = {
"20 25 30 1",
" 	c None",
".	c #9D9D9D",
"+	c #8D8D8D",
"@	c #898989",
"#	c #868686",
"$	c #818181",
"%	c #7D7D7D",
"&	c #797979",
"*	c #757575",
"=	c #727272",
"-	c #6F6F6F",
";	c #B8B8B8",
">	c #C2C2C2",
",	c #6C6C6C",
"'	c #E6E6E6",
")	c #CBCBCB",
"!	c #696969",
"~	c #CDCDCD",
"{	c #676767",
"]	c #646464",
"^	c #616161",
"/	c #5F5F5F",
"(	c #C1C1C1",
"_	c #5E5E5E",
":	c #B6B6B6",
"<	c #5D5D5D",
"[	c #5B5B5B",
"}	c #5A5A5A",
"|	c #585858",
"1	c #575757",
"....................",
"++++++++++++++++++++",
"@@@@@@@@@@@@@@@@@@@@",
"####################",
"$$$$$$$$$$$$$$$$$$$$",
"%%%%%%%%%%%%%%%%%%%%",
"&&&&&&&&&&&&&&&&&&&&",
"********************",
"====================",
"------;>---->;------",
",,,,,,>'),,)'>,,,,,,",
"!!!!!!!)'~~')!!!!!!!",
"{{{{{{{{~''~{{{{{{{{",
"]]]]]]]]~''~]]]]]]]]",
"^^^^^^^)'~~')^^^^^^^",
"//////(')//)'(//////",
"______:(____(:______",
"<<<<<<<<<<<<<<<<<<<<",
"[[[[[[[[[[[[[[[[[[[[",
"}}}}}}}}}}}}}}}}}}}}",
"||||||||||||||||||||",
"11111111111111111111",
"11111111111111111111",
"11111111111111111111",
"11111111111111111111"};
