/* XPM */
static char * close_prelight_xpm[] = {
"20 25 40 1",
" 	c None",
".	c #9D9D9D",
"+	c #8D8D8D",
"@	c #898989",
"#	c #868686",
"$	c #818181",
"%	c #7D7D7D",
"&	c #797979",
"*	c #757575",
"=	c #727272",
"-	c #9A9A9A",
";	c #6F6F6F",
">	c #989898",
",	c #CCCCCC",
"'	c #D7D7D7",
")	c #8B8B8B",
"!	c #6C6C6C",
"~	c #969696",
"{	c #FFFFFF",
"]	c #E1E1E1",
"^	c #696969",
"/	c #929292",
"(	c #E3E3E3",
"_	c #676767",
":	c #909090",
"<	c #646464",
"[	c #8E8E8E",
"}	c #616161",
"|	c #8C8C8C",
"1	c #5F5F5F",
"2	c #D6D6D6",
"3	c #5E5E5E",
"4	c #888888",
"5	c #CACACA",
"6	c #5D5D5D",
"7	c #878787",
"8	c #5B5B5B",
"9	c #5A5A5A",
"0	c #585858",
"a	c #575757",
"....................",
"++++++++++++++++++++",
"@@@@@@@@@@@@@@@@@@@@",
"####################",
"$$$$$$$$$$$$$$$$$$$$",
"%%%%%%%%%%%%%%%%%%%%",
"&&&&&&&&&&&&&&&&&&&&",
"********************",
"======--====--======",
";;;;;>,');;>',>;;;;;",
"!!!!!~'{]~~]{'~!!!!!",
"^^^^^^/]{(({]/^^^^^^",
"_______:({{(:_______",
"<<<<<<<[({{([<<<<<<<",
"}}}}}}|]{(({]|}}}}}}",
"11111@2{]@@]{2@11111",
"33333452433425433333",
"66666677666677666666",
"88888888888888888888",
"99999999999999999999",
"00000000000000000000",
"aaaaaaaaaaaaaaaaaaaa",
"aaaaaaaaaaaaaaaaaaaa",
"aaaaaaaaaaaaaaaaaaaa",
"aaaaaaaaaaaaaaaaaaaa"};
