/* XPM */
static char * close_pressed_xpm[] = {
"20 25 53 1",
" 	c None",
".	c #9D9D9D",
"+	c #8D8D8D",
"@	c #898989",
"#	c #868686",
"$	c #818181",
"%	c #7D7D7D",
"&	c #797979",
"*	c #757575",
"=	c #828282",
"-	c #727272",
";	c #7F7F7F",
">	c #939393",
",	c #A0A0A0",
"'	c #6F6F6F",
")	c #9E9E9E",
"!	c #D4D4D4",
"~	c #E0E0E0",
"{	c #919191",
"]	c #6C6C6C",
"^	c #7A7A7A",
"/	c #9C9C9C",
"(	c #FFFFFF",
"_	c #EAEAEA",
":	c #696969",
"<	c #777777",
"[	c #989898",
"}	c #ECECEC",
"|	c #676767",
"1	c #878787",
"2	c #969696",
"3	c #646464",
"4	c #737373",
"5	c #858585",
"6	c #949494",
"7	c #616161",
"8	c #707070",
"9	c #929292",
"0	c #5F5F5F",
"a	c #6E6E6E",
"b	c #8F8F8F",
"c	c #DFDFDF",
"d	c #5E5E5E",
"e	c #6D6D6D",
"f	c #8E8E8E",
"g	c #D2D2D2",
"h	c #7E7E7E",
"i	c #5D5D5D",
"j	c #5B5B5B",
"k	c #6B6B6B",
"l	c #5A5A5A",
"m	c #585858",
"n	c #575757",
"....................",
"++++++++++++++++++++",
"@@@@@@@@@@@@@@@@@@@@",
"####################",
"$$$$$$$$$$$$$$$$$$$$",
"%%%%%%%%%%%%%%%%%%%%",
"&&&&&&&&&&&&&&&&&&&&",
"*****==========*****",
"----;>,,>;;>,,>;----",
"''''%)!~{{{)~!)%''''",
"]]]]^/~(_//_(~/^]]]]",
"::::<@[_(}}(_[@<::::",
"||||**12}((}21**||||",
"33334456}((}65443333",
"77778$9_(}}(_9$87777",
"0000abc(_bb_(cba0000",
"ddddefgcfhhfcgfedddd",
"iiii]%++%]]%++%]iiii",
"jjjjjkkkkkkkkkkjjjjj",
"llllllllllllllllllll",
"mmmmmmmmmmmmmmmmmmmm",
"nnnnnnnnnnnnnnnnnnnn",
"nnnnnnnnnnnnnnnnnnnn",
"nnnnnnnnnnnnnnnnnnnn",
"nnnnnnnnnnnnnnnnnnnn"};
