/* XPM */
static char * hide_pressed_xpm[] = {
"20 25 41 1",
" 	c None",
".	c #9D9D9D",
"+	c #8D8D8D",
"@	c #898989",
"#	c #868686",
"$	c #818181",
"%	c #7D7D7D",
"&	c #797979",
"*	c #757575",
"=	c #727272",
"-	c #6F6F6F",
";	c #6C6C6C",
">	c #696969",
",	c #676767",
"'	c #646464",
")	c #737373",
"!	c #808080",
"~	c #8C8C8C",
"{	c #979797",
"]	c #616161",
"^	c #707070",
"/	c #888888",
"(	c #D0D0D0",
"_	c #FFFFFF",
":	c #D4D4D4",
"<	c #939393",
"[	c #5F5F5F",
"}	c #6E6E6E",
"|	c #878787",
"1	c #CFCFCF",
"2	c #CACACA",
"3	c #929292",
"4	c #5E5E5E",
"5	c #6D6D6D",
"6	c #7B7B7B",
"7	c #919191",
"8	c #5D5D5D",
"9	c #5B5B5B",
"0	c #5A5A5A",
"a	c #585858",
"b	c #575757",
"....................",
"++++++++++++++++++++",
"@@@@@@@@@@@@@@@@@@@@",
"####################",
"$$$$$$$$$$$$$$$$$$$$",
"%%%%%%%%%%%%%%%%%%%%",
"&&&&&&&&&&&&&&&&&&&&",
"********************",
"====================",
"--------------------",
";;;;;;;;;;;;;;;;;;;;",
">>>>>>>>>>>>>>>>>>>>",
",,,,,**********,,,,,",
"'''')!~{{{{{{~!)''''",
"]]]]^/(______:<^]]]]",
"[[[[}|1______23}[[[[",
"444456#777777#654444",
"88888;;;;;;;;;;88888",
"99999999999999999999",
"00000000000000000000",
"aaaaaaaaaaaaaaaaaaaa",
"bbbbbbbbbbbbbbbbbbbb",
"bbbbbbbbbbbbbbbbbbbb",
"bbbbbbbbbbbbbbbbbbbb",
"bbbbbbbbbbbbbbbbbbbb"};
