/* XPM */
static char * hide_prelight_xpm[] = {
"20 25 31 1",
" 	c None",
".	c #9D9D9D",
"+	c #8D8D8D",
"@	c #898989",
"#	c #868686",
"$	c #818181",
"%	c #7D7D7D",
"&	c #797979",
"*	c #757575",
"=	c #727272",
"-	c #6F6F6F",
";	c #6C6C6C",
">	c #696969",
",	c #676767",
"'	c #646464",
")	c #808080",
"!	c #616161",
"~	c #7C7C7C",
"{	c #CBCBCB",
"]	c #FFFFFF",
"^	c #D0D0D0",
"/	c #5F5F5F",
"(	c #7A7A7A",
"_	c #CACACA",
":	c #C5C5C5",
"<	c #5E5E5E",
"[	c #5D5D5D",
"}	c #5B5B5B",
"|	c #5A5A5A",
"1	c #585858",
"2	c #575757",
"....................",
"++++++++++++++++++++",
"@@@@@@@@@@@@@@@@@@@@",
"####################",
"$$$$$$$$$$$$$$$$$$$$",
"%%%%%%%%%%%%%%%%%%%%",
"&&&&&&&&&&&&&&&&&&&&",
"********************",
"====================",
"--------------------",
";;;;;;;;;;;;;;;;;;;;",
">>>>>>>>>>>>>>>>>>>>",
",,,,,,,,,,,,,,,,,,,,",
"''''''))))))))''''''",
"!!!!!~{]]]]]]^~!!!!!",
"/////(_]]]]]]:(/////",
"<<<<<<&&&&&&&&<<<<<<",
"[[[[[[[[[[[[[[[[[[[[",
"}}}}}}}}}}}}}}}}}}}}",
"||||||||||||||||||||",
"11111111111111111111",
"22222222222222222222",
"22222222222222222222",
"22222222222222222222",
"22222222222222222222"};
