/* XPM */
static char * maximize_toggled_prelight_xpm[] = {
"20 25 51 1",
" 	c None",
".	c #9D9D9D",
"+	c #8D8D8D",
"@	c #898989",
"#	c #868686",
"$	c #818181",
"%	c #7D7D7D",
"&	c #797979",
"*	c #757575",
"=	c #949494",
"-	c #727272",
";	c #929292",
">	c #AFAFAF",
",	c #6F6F6F",
"'	c #909090",
")	c #A5A5A5",
"!	c #E0E0E0",
"~	c #6C6C6C",
"{	c #989898",
"]	c #AEAEAE",
"^	c #FFFFFF",
"/	c #696969",
"(	c #8B8B8B",
"_	c #A9A9A9",
":	c #AAAAAA",
"<	c #A0A0A0",
"[	c #676767",
"}	c #B0B0B0",
"|	c #DFDFDF",
"1	c #EAEAEA",
"2	c #646464",
"3	c #878787",
"4	c #E5E5E5",
"5	c #616161",
"6	c #858585",
"7	c #999999",
"8	c #A6A6A6",
"9	c #5F5F5F",
"0	c #838383",
"a	c #8F8F8F",
"b	c #A3A3A3",
"c	c #FBFBFB",
"d	c #5E5E5E",
"e	c #828282",
"f	c #DBDBDB",
"g	c #E2E2E2",
"h	c #5D5D5D",
"i	c #5B5B5B",
"j	c #5A5A5A",
"k	c #585858",
"l	c #575757",
"....................",
"++++++++++++++++++++",
"@@@@@@@@@@@@@@@@@@@@",
"####################",
"$$$$$$$$$$$$$$$$$$$$",
"%%%%%%%%%%%%%%%%%%%%",
"&&&&&&&&&&&&&&&&&&&&",
"*********==*********",
"--------;>>;--------",
",,,,,,,')!!)',,,,,,,",
"~~~~~~+{]^^]{+~~~~~~",
"/////(_::^^::<(/////",
"[[[[@}|^^^^^^1}@[[[[",
"22223>|^^^^^^4>32222",
"555556788^^887655555",
"9999990abc^ba0999999",
"ddddddde{fg{eddddddd",
"hhhhhhhh$__$hhhhhhhh",
"iiiiiiiii$$iiiiiiiii",
"jjjjjjjjjjjjjjjjjjjj",
"kkkkkkkkkkkkkkkkkkkk",
"llllllllllllllllllll",
"llllllllllllllllllll",
"llllllllllllllllllll",
"llllllllllllllllllll"};
