/* XPM */
static char * maximize_pressed_xpm[] = {
"20 25 53 1",
" 	c None",
".	c #9D9D9D",
"+	c #8D8D8D",
"@	c #898989",
"#	c #868686",
"$	c #818181",
"%	c #7D7D7D",
"&	c #797979",
"*	c #757575",
"=	c #828282",
"-	c #727272",
";	c #7F7F7F",
">	c #A2A2A2",
",	c #6F6F6F",
"'	c #969696",
")	c #D5D5D5",
"!	c #6C6C6C",
"~	c #7A7A7A",
"{	c #878787",
"]	c #A0A0A0",
"^	c #FFFFFF",
"/	c #696969",
"(	c #777777",
"_	c #9A9A9A",
":	c #9C9C9C",
"<	c #909090",
"[	c #676767",
"}	c #A3A3A3",
"|	c #D4D4D4",
"1	c #DADADA",
"2	c #646464",
"3	c #737373",
"4	c #A1A1A1",
"5	c #D0D0D0",
"6	c #616161",
"7	c #707070",
"8	c #888888",
"9	c #979797",
"0	c #5F5F5F",
"a	c #6E6E6E",
"b	c #7C7C7C",
"c	c #949494",
"d	c #FBFBFB",
"e	c #5E5E5E",
"f	c #6D6D6D",
"g	c #CECECE",
"h	c #D8D8D8",
"i	c #5D5D5D",
"j	c #5B5B5B",
"k	c #6B6B6B",
"l	c #5A5A5A",
"m	c #585858",
"n	c #575757",
"....................",
"++++++++++++++++++++",
"@@@@@@@@@@@@@@@@@@@@",
"####################",
"$$$$$$$$$$$$$$$$$$$$",
"%%%%%%%%%%%%%%%%%%%%",
"&&&&&&&&&&&&&&&&&&&&",
"*********==*********",
"--------;>>;--------",
",,,,,,,%'))'%,,,,,,,",
"!!!!!!~{]^^]{~!!!!!!",
"/////(_::^^::<(/////",
"[[[[*}|^^^^^^1}*[[[[",
"222234|^^^^^^5432222",
"666667899^^998766666",
"000000abcd^cba000000",
"eeeeeeef#gh#feeeeeee",
"iiiiiiii!__!iiiiiiii",
"jjjjjjjjjkkjjjjjjjjj",
"llllllllllllllllllll",
"mmmmmmmmmmmmmmmmmmmm",
"nnnnnnnnnnnnnnnnnnnn",
"nnnnnnnnnnnnnnnnnnnn",
"nnnnnnnnnnnnnnnnnnnn",
"nnnnnnnnnnnnnnnnnnnn"};
