/* XPM */
static char * maximize_prelight_xpm[] = {
"20 25 40 1",
" 	c None",
".	c #9D9D9D",
"+	c #8D8D8D",
"@	c #898989",
"#	c #868686",
"$	c #818181",
"%	c #7D7D7D",
"&	c #797979",
"*	c #757575",
"=	c #727272",
"-	c #6F6F6F",
";	c #8B8B8B",
">	c #CCCCCC",
",	c #6C6C6C",
"'	c #969696",
")	c #FFFFFF",
"!	c #696969",
"~	c #848484",
"{	c #929292",
"]	c #676767",
"^	c #828282",
"/	c #CBCBCB",
"(	c #D2D2D2",
"_	c #646464",
":	c #808080",
"<	c #C6C6C6",
"[	c #616161",
"}	c #7C7C7C",
"|	c #8C8C8C",
"1	c #5F5F5F",
"2	c #FBFBFB",
"3	c #5E5E5E",
"4	c #C4C4C4",
"5	c #D0D0D0",
"6	c #5D5D5D",
"7	c #787878",
"8	c #5B5B5B",
"9	c #5A5A5A",
"0	c #585858",
"a	c #575757",
"....................",
"++++++++++++++++++++",
"@@@@@@@@@@@@@@@@@@@@",
"####################",
"$$$$$$$$$$$$$$$$$$$$",
"%%%%%%%%%%%%%%%%%%%%",
"&&&&&&&&&&&&&&&&&&&&",
"********************",
"=========++=========",
"--------;>>;--------",
",,,,,,,,'))',,,,,,,,",
"!!!!!!~{{)){{~!!!!!!",
"]]]]]^/))))))(^]]]]]",
"_____:/))))))<:_____",
"[[[[[[}||))||}[[[[[[",
"11111111@2)@11111111",
"33333333&45&33333333",
"66666666677666666666",
"88888888888888888888",
"99999999999999999999",
"00000000000000000000",
"aaaaaaaaaaaaaaaaaaaa",
"aaaaaaaaaaaaaaaaaaaa",
"aaaaaaaaaaaaaaaaaaaa",
"aaaaaaaaaaaaaaaaaaaa"};
