/* XPM */
static char * shade_pressed_xpm[] = {
"20 25 43 1",
" 	c None",
".	c #9D9D9D",
"+	c #8D8D8D",
"@	c #898989",
"#	c #868686",
"$	c #818181",
"%	c #7D7D7D",
"&	c #797979",
"*	c #757575",
"=	c #727272",
"-	c #7F7F7F",
";	c #6F6F6F",
">	c #828282",
",	c #6C6C6C",
"'	c #7A7A7A",
")	c #696969",
"!	c #777777",
"~	c #7C7C7C",
"{	c #949494",
"]	c #FFFFFF",
"^	c #676767",
"/	c #929292",
"(	c #ECECEC",
"_	c #646464",
":	c #737373",
"<	c #787878",
"[	c #909090",
"}	c #EAEAEA",
"|	c #616161",
"1	c #707070",
"2	c #838383",
"3	c #DFDFDF",
"4	c #5F5F5F",
"5	c #6E6E6E",
"6	c #D2D2D2",
"7	c #5E5E5E",
"8	c #6D6D6D",
"9	c #7B7B7B",
"0	c #5D5D5D",
"a	c #5B5B5B",
"b	c #5A5A5A",
"c	c #585858",
"d	c #575757",
"....................",
"++++++++++++++++++++",
"@@@@@@@@@@@@@@@@@@@@",
"####################",
"$$$$$$$$$$$$$$$$$$$$",
"%%%%%%%%%%%%%%%%%%%%",
"&&&&&&&&&&&&&&&&&&&&",
"********************",
"=========--=========",
";;;;;;;;%>>%;;;;;;;;",
",,,,,,,'-++-',,,,,,,",
"))))))!~{]]{~!))))))",
"^^^^^*'/(]](/'*^^^^^",
"____:<[}]((]}[<:____",
"||||123]}22}]321||||",
"44445$63$==$36$54444",
"77778899888899887777",
"00000,,,,00,,,,00000",
"aaaaaaaaaaaaaaaaaaaa",
"bbbbbbbbbbbbbbbbbbbb",
"cccccccccccccccccccc",
"dddddddddddddddddddd",
"dddddddddddddddddddd",
"dddddddddddddddddddd",
"dddddddddddddddddddd"};
