/* XPM */
static char * shade_prelight_xpm[] = {
"20 25 35 1",
" 	c None",
".	c #9D9D9D",
"+	c #8D8D8D",
"@	c #898989",
"#	c #868686",
"$	c #818181",
"%	c #7D7D7D",
"&	c #797979",
"*	c #757575",
"=	c #727272",
"-	c #6F6F6F",
";	c #6C6C6C",
">	c #878787",
",	c #696969",
"'	c #848484",
")	c #FFFFFF",
"!	c #676767",
"~	c #828282",
"{	c #E3E3E3",
"]	c #646464",
"^	c #808080",
"/	c #E1E1E1",
"(	c #616161",
"_	c #7E7E7E",
":	c #D6D6D6",
"<	c #5F5F5F",
"[	c #7C7C7C",
"}	c #CACACA",
"|	c #5E5E5E",
"1	c #7B7B7B",
"2	c #5D5D5D",
"3	c #5B5B5B",
"4	c #5A5A5A",
"5	c #585858",
"6	c #575757",
"....................",
"++++++++++++++++++++",
"@@@@@@@@@@@@@@@@@@@@",
"####################",
"$$$$$$$$$$$$$$$$$$$$",
"%%%%%%%%%%%%%%%%%%%%",
"&&&&&&&&&&&&&&&&&&&&",
"********************",
"====================",
"--------------------",
";;;;;;;;;>>;;;;;;;;;",
",,,,,,,,'))',,,,,,,,",
"!!!!!!!~{)){~!!!!!!!",
"]]]]]]^/){{)/^]]]]]]",
"(((((_:)/__/):_(((((",
"<<<<<[}:[<<[:}[<<<<<",
"||||||11||||11||||||",
"22222222222222222222",
"33333333333333333333",
"44444444444444444444",
"55555555555555555555",
"66666666666666666666",
"66666666666666666666",
"66666666666666666666",
"66666666666666666666"};
