/* XPM */
static char * stick_prelight_xpm[] = {
"20 25 63 1",
" 	c None",
".	c #9D9D9D",
"+	c #8D8D8D",
"@	c #898989",
"#	c #868686",
"$	c #818181",
"%	c #7D7D7D",
"&	c #B9B9B9",
"*	c #CDCDCD",
"=	c #797979",
"-	c #9F9F9F",
";	c #E2E2E2",
">	c #E6E6E6",
",	c #DBDBDB",
"'	c #757575",
")	c #C0C0C0",
"!	c #DEDEDE",
"~	c #959595",
"{	c #969696",
"]	c #DFDFDF",
"^	c #727272",
"/	c #A8A8A8",
"(	c #D4D4D4",
"_	c #D5D5D5",
":	c #A6A6A6",
"<	c #6F6F6F",
"[	c #E4E4E4",
"}	c #E1E1E1",
"|	c #6C6C6C",
"1	c #ADADAD",
"2	c #AAAAAA",
"3	c #ABABAB",
"4	c #696969",
"5	c #DCDCDC",
"6	c #787878",
"7	c #B3B3B3",
"8	c #7A7A7A",
"9	c #676767",
"0	c #646464",
"a	c #616161",
"b	c #767676",
"c	c #DADADA",
"d	c #5F5F5F",
"e	c #A9A9A9",
"f	c #5E5E5E",
"g	c #606060",
"h	c #656565",
"i	c #666666",
"j	c #5D5D5D",
"k	c #A4A4A4",
"l	c #A3A3A3",
"m	c #5B5B5B",
"n	c #BDBDBD",
"o	c #919191",
"p	c #939393",
"q	c #5A5A5A",
"r	c #9A9A9A",
"s	c #E0E0E0",
"t	c #585858",
"u	c #838383",
"v	c #B4B4B4",
"w	c #CACACA",
"x	c #575757",
"....................",
"++++++++++++++++++++",
"@@@@@@@@@@@@@@@@@@@@",
"####################",
"$$$$$$$$$$$$$$$$$$$$",
"%%%%%%%+&**&+%%%%%%%",
"=====-;>>,,>>;-=====",
"'''')>!~''''{]>)''''",
"^^^/>(^^^^^^^^_>:^^^",
"<<<[}<<<<<<<<<<;[<<<",
"||1>2||||||||||3>1||",
"445>64447;>74448>,44",
"99>>9999>>>>9999>>99",
"00>>0000>>>>0000>>00",
"aa,>baaa7;>7aaa6>caa",
"dd3>edddddddddd/>3dd",
"ffg[}hffffffffi;[gff",
"jjjk>(gjjjjjja(>ljjj",
"mmmmn>!ommmmp]>nmmmm",
"qqqqqr}>>,,>>srqqqqq",
"tttttttuvwwvuttttttt",
"xxxxxxxxxxxxxxxxxxxx",
"xxxxxxxxxxxxxxxxxxxx",
"xxxxxxxxxxxxxxxxxxxx",
"xxxxxxxxxxxxxxxxxxxx"};
