/* XPM */
static char * stick_prelight_xpm[] = {
"20 25 36 1",
" 	c None",
".	c #9D9D9D",
"+	c #8D8D8D",
"@	c #898989",
"#	c #868686",
"$	c #818181",
"%	c #7D7D7D",
"&	c #797979",
"*	c #757575",
"=	c #727272",
"-	c #6F6F6F",
";	c #6C6C6C",
">	c #7A7A7A",
",	c #929292",
"'	c #696969",
")	c #777777",
"!	c #C6C6C6",
"~	c #FBFBFB",
"{	c #FFFFFF",
"]	c #676767",
"^	c #8E8E8E",
"/	c #646464",
"(	c #737373",
"_	c #8C8C8C",
":	c #616161",
"<	c #707070",
"[	c #5F5F5F",
"}	c #6E6E6E",
"|	c #888888",
"1	c #5E5E5E",
"2	c #6D6D6D",
"3	c #5D5D5D",
"4	c #5B5B5B",
"5	c #5A5A5A",
"6	c #585858",
"7	c #575757",
"....................",
"++++++++++++++++++++",
"@@@@@@@@@@@@@@@@@@@@",
"####################",
"$$$$$$$$$$$$$$$$$$$$",
"%%%%%%%%%%%%%%%%%%%%",
"&&&&&&&&&&&&&&&&&&&&",
"********************",
"====================",
"---------%%---------",
";;;;;;;;>,,>;;;;;;;;",
"''''''')!~{!)'''''''",
"]]]]]]*^{{{{^*]]]]]]",
"//////(_{{{{_(//////",
":::::::<!~{!<:::::::",
"[[[[[[[[}||}[[[[[[[[",
"11111111122111111111",
"33333333333333333333",
"44444444444444444444",
"55555555555555555555",
"66666666666666666666",
"77777777777777777777",
"77777777777777777777",
"77777777777777777777",
"77777777777777777777"};
