/* XPM */
static char * stick_pressed_xpm[] = {
"20 25 40 1",
" 	c None",
".	c #9D9D9D",
"+	c #8D8D8D",
"@	c #898989",
"#	c #868686",
"$	c #818181",
"%	c #7D7D7D",
"&	c #797979",
"*	c #757575",
"=	c #727272",
"-	c #858585",
";	c #6F6F6F",
">	c #838383",
",	c #8E8E8E",
"'	c #6C6C6C",
")	c #808080",
"!	c #8C8C8C",
"~	c #989898",
"{	c #696969",
"]	c #CECECE",
"^	c #FFFFFF",
"/	c #676767",
"(	c #7B7B7B",
"_	c #878787",
":	c #949494",
"<	c #646464",
"[	c #929292",
"}	c #616161",
"|	c #767676",
"1	c #848484",
"2	c #5F5F5F",
"3	c #747474",
"4	c #828282",
"5	c #5E5E5E",
"6	c #737373",
"7	c #5D5D5D",
"8	c #5B5B5B",
"9	c #5A5A5A",
"0	c #585858",
"a	c #575757",
"....................",
"++++++++++++++++++++",
"@@@@@@@@@@@@@@@@@@@@",
"####################",
"$$$$$$$$$$$$$$$$$$$$",
"%%%%%%%%%%%%%%%%%%%%",
"&&&&&&&&&&&&&&&&&&&&",
"********************",
"=========--=========",
";;;;;;;;>,,>;;;;;;;;",
"''''''')!~~!)'''''''",
"{{{{{{%@]^^]@%{{{{{{",
"/////(_:^^^^:_(/////",
"<<<<<&-[^^^^[-&<<<<<",
"}}}}}}|1]^^]1|}}}}}}",
"222222234,,432222222",
"555555556$$655555555",
"777777777==777777777",
"88888888888888888888",
"99999999999999999999",
"00000000000000000000",
"aaaaaaaaaaaaaaaaaaaa",
"aaaaaaaaaaaaaaaaaaaa",
"aaaaaaaaaaaaaaaaaaaa",
"aaaaaaaaaaaaaaaaaaaa"};
