/* XPM */
static char * close_pressed_xpm[] = {
"20 25 91 1",
" 	c None",
".	c #63605E",
"+	c #5B5A54",
"@	c #585752",
"#	c #54534F",
"$	c #52514C",
"%	c #504E4A",
"&	c #8D8D8D",
"*	c #B9B9B9",
"=	c #CDCDCD",
"-	c #4D4C47",
";	c #9F9F9F",
">	c #E2E2E2",
",	c #E6E6E6",
"'	c #E0E0E0",
")	c #4B4A45",
"!	c #C0C0C0",
"~	c #BCBCBC",
"{	c #9C9C9C",
"]	c #969696",
"^	c #484743",
"/	c #A8A8A8",
"(	c #DDDDDD",
"_	c #A3A3A1",
":	c #939392",
"<	c #A2A2A1",
"[	c #A6A6A6",
"}	c #464540",
"|	c #666666",
"1	c #E4E4E4",
"2	c #A0A0A0",
"3	c #CCCCCC",
"4	c #D1D1D1",
"5	c #8F8F8F",
"6	c #656565",
"7	c #43423E",
"8	c #ADADAD",
"9	c #C4C4C4",
"0	c #8C8C8C",
"a	c #D6D6D6",
"b	c #939393",
"c	c #41403C",
"d	c #DCDCDC",
"e	c #A5A5A5",
"f	c #898989",
"g	c #919191",
"h	c #D7D7D7",
"i	c #E7E7E7",
"j	c #D8D8D8",
"k	c #DBDBDB",
"l	c #3E3D39",
"m	c #969695",
"n	c #858584",
"o	c #8D8D8C",
"p	c #D8D8D6",
"q	c #E7E7E6",
"r	c #3C3B37",
"s	c #818181",
"t	c #9E9E9D",
"u	c #7D7D7D",
"v	c #868685",
"w	c #D5D5D4",
"x	c #9F9F9E",
"y	c #DADADA",
"z	c #ABABAB",
"A	c #BDBDBD",
"B	c #7A7A79",
"C	c #CECECD",
"D	c #828281",
"E	c #606060",
"F	c #E3E3E3",
"G	c #C5C5C5",
"H	c #7E7E7E",
"I	c #757575",
"J	c #A4A4A4",
"K	c #D9D9D9",
"L	c #878786",
"M	c #727271",
"N	c #888887",
"O	c #A3A3A3",
"P	c #DFDFDF",
"Q	c #A7A7A7",
"R	c #777777",
"S	c #6D6D6D",
"T	c #A9A9A9",
"U	c #9A9A9A",
"V	c #E1E1E1",
"W	c #DEDEDE",
"X	c #838383",
"Y	c #B4B4B4",
"Z	c #CACACA",
"....................",
"++++++++++++++++++++",
"@@@@@@@@@@@@@@@@@@@@",
"####################",
"$$$$$$$$$$$$$$$$$$$$",
"%%%%%%%&*==*&%%%%%%%",
"-----;>,,'',,>;-----",
"))))!,'~{]]{~>,!))))",
"^^^/,(_::::::<(,[^^^",
"}}|11234]55]432116}}",
"778,904,abba,409,877",
"ccd,efghijjihgf[,kcc",
"ll,,mnnopqqponnm,,ll",
"rr,,bssfhiihfssb,,rr",
"rrk,tuvwqaaqwvux,yrr",
"rrz,ABCqwDDwqCBA,zrr",
"rrE1F0G=HIIH=G&11Err",
"rrrJ,KLMMMMMMNK,Orrr",
"rrrrA,PQRSSRT',Arrrr",
"rrrrrUV,,WW,,'Urrrrr",
"rrrrrrrXYZZYXrrrrrrr",
"rrrrrrrrrrrrrrrrrrrr",
"rrrrrrrrrrrrrrrrrrrr",
"rrrrrrrrrrrrrrrrrrrr",
"rrrrrrrrrrrrrrrrrrrr"};
