/* XPM */
static char * close_prelight_xpm[] = {
"20 25 68 1",
" 	c None",
".	c #63605E",
"+	c #5B5A54",
"@	c #585752",
"#	c #54534F",
"$	c #52514C",
"%	c #504E4A",
"&	c #8D8D8D",
"*	c #B9B9B9",
"=	c #CDCDCD",
"-	c #4D4C47",
";	c #9F9F9F",
">	c #E2E2E2",
",	c #E6E6E6",
"'	c #DBDBDB",
")	c #4B4A45",
"!	c #C0C0C0",
"~	c #DEDEDE",
"{	c #959595",
"]	c #686868",
"^	c #969696",
"/	c #DFDFDF",
"(	c #484743",
"_	c #A8A8A8",
":	c #D4D4D4",
"<	c #666666",
"[	c #636363",
"}	c #D5D5D5",
"|	c #A6A6A6",
"1	c #464540",
"2	c #E4E4E4",
"3	c #E1E1E1",
"4	c #B8B8B8",
"5	c #C2C2C2",
"6	c #5F5F5F",
"7	c #696969",
"8	c #656565",
"9	c #43423E",
"0	c #ADADAD",
"a	c #AAAAAA",
"b	c #5B5B5B",
"c	c #CBCBCB",
"d	c #ABABAB",
"e	c #41403C",
"f	c #DCDCDC",
"g	c #787878",
"h	c #575757",
"i	c #7A7A7A",
"j	c #3E3D39",
"k	c #646464",
"l	c #3C3B37",
"m	c #767676",
"n	c #DADADA",
"o	c #A9A9A9",
"p	c #C1C1C1",
"q	c #606060",
"r	c #B6B6B6",
"s	c #A4A4A4",
"t	c #616161",
"u	c #A3A3A3",
"v	c #BDBDBD",
"w	c #919191",
"x	c #939393",
"y	c #9A9A9A",
"z	c #E0E0E0",
"A	c #838383",
"B	c #B4B4B4",
"C	c #CACACA",
"....................",
"++++++++++++++++++++",
"@@@@@@@@@@@@@@@@@@@@",
"####################",
"$$$$$$$$$$$$$$$$$$$$",
"%%%%%%%&*==*&%%%%%%%",
"-----;>,,'',,>;-----",
"))))!,~{]]]]^/,!))))",
"(((_,:<[[[[[[<},|(((",
"11<23]456666547>2811",
"990,ab5,cbbc,5bd,099",
"eef,ghhc,==,chhi,'ee",
"jj,,khhh=,,=hhhk,,jj",
"ll,,[hhh=,,=hhh[,,ll",
"ll',mhhc,==,chhg,nll",
"lld,ohp,chhc,ph_,dll",
"llq238rphhhhpr<>2qll",
"llls,:qhhhhhht:,ulll",
"llllv,~whhhhx/,vllll",
"llllly3,,'',,zylllll",
"lllllllABCCBAlllllll",
"llllllllllllllllllll",
"llllllllllllllllllll",
"llllllllllllllllllll",
"llllllllllllllllllll"};
