/* XPM */
static char * hide_prelight_xpm[] = {
"20 25 68 1",
" 	c None",
".	c #63605E",
"+	c #5B5A54",
"@	c #585752",
"#	c #54534F",
"$	c #52514C",
"%	c #504E4A",
"&	c #8D8D8D",
"*	c #B9B9B9",
"=	c #CDCDCD",
"-	c #4D4C47",
";	c #6C6C6C",
">	c #9F9F9F",
",	c #E2E2E2",
"'	c #E6E6E6",
")	c #DBDBDB",
"!	c #4B4A45",
"~	c #C0C0C0",
"{	c #DEDEDE",
"]	c #959595",
"^	c #686868",
"/	c #969696",
"(	c #DFDFDF",
"_	c #484743",
":	c #A8A8A8",
"<	c #D4D4D4",
"[	c #666666",
"}	c #636363",
"|	c #D5D5D5",
"1	c #A6A6A6",
"2	c #464540",
"3	c #E4E4E4",
"4	c #E1E1E1",
"5	c #5F5F5F",
"6	c #696969",
"7	c #656565",
"8	c #43423E",
"9	c #ADADAD",
"0	c #AAAAAA",
"a	c #5B5B5B",
"b	c #ABABAB",
"c	c #41403C",
"d	c #DCDCDC",
"e	c #787878",
"f	c #575757",
"g	c #7A7A7A",
"h	c #3E3D39",
"i	c #646464",
"j	c #3C3B37",
"k	c #767676",
"l	c #B7B7B7",
"m	c #BCBCBC",
"n	c #DADADA",
"o	c #A9A9A9",
"p	c #B6B6B6",
"q	c #B2B2B2",
"r	c #606060",
"s	c #A4A4A4",
"t	c #616161",
"u	c #A3A3A3",
"v	c #BDBDBD",
"w	c #919191",
"x	c #939393",
"y	c #9A9A9A",
"z	c #E0E0E0",
"A	c #838383",
"B	c #B4B4B4",
"C	c #CACACA",
"....................",
"++++++++++++++++++++",
"@@@@@@@@@@@@@@@@@@@@",
"####################",
"$$$$$$$$$$$$$$$$$$$$",
"%%%%%%%&*==*&%%%%%%%",
"----;>,''))'',>-----",
"!!!!~'{]^^^^/('~!!!!",
"___:'<[}}}}}}[|'1___",
"22[34^555555556,3722",
"889'0aaaaaaaaaab'988",
"ccd'effffffffffg')cc",
"hh''iffffffffffi''hh",
"jj''}ffffffffff}''jj",
"jj)'kfl''''''mfe'njj",
"jjb'ofp''''''qf:'bjj",
"jjr347ffffffff[,3rjj",
"jjjs'<rfffffft<'ujjj",
"jjjjv'{wffffx('vjjjj",
"jjjjjy4''))''zyjjjjj",
"jjjjjjjABCCBAjjjjjjj",
"jjjjjjjjjjjjjjjjjjjj",
"jjjjjjjjjjjjjjjjjjjj",
"jjjjjjjjjjjjjjjjjjjj",
"jjjjjjjjjjjjjjjjjjjj"};
