/* XPM */
static char * hide_pressed_xpm[] = {
"20 25 81 1",
" 	c None",
".	c #63605E",
"+	c #5B5A54",
"@	c #585752",
"#	c #54534F",
"$	c #52514C",
"%	c #504E4A",
"&	c #8D8D8D",
"*	c #B9B9B9",
"=	c #CDCDCD",
"-	c #4D4C47",
";	c #9F9F9F",
">	c #E2E2E2",
",	c #E6E6E6",
"'	c #E0E0E0",
")	c #4B4A45",
"!	c #C0C0C0",
"~	c #BCBCBC",
"{	c #9C9C9C",
"]	c #969696",
"^	c #484743",
"/	c #A8A8A8",
"(	c #DDDDDD",
"_	c #A3A3A1",
":	c #939392",
"<	c #A2A2A1",
"[	c #A6A6A6",
"}	c #464540",
"|	c #666666",
"1	c #E4E4E4",
"2	c #A0A0A0",
"3	c #8F8F8F",
"4	c #656565",
"5	c #43423E",
"6	c #ADADAD",
"7	c #C4C4C4",
"8	c #8C8C8C",
"9	c #41403C",
"0	c #DCDCDC",
"a	c #A5A5A5",
"b	c #898989",
"c	c #DBDBDB",
"d	c #3E3D39",
"e	c #969695",
"f	c #858584",
"g	c #3C3B37",
"h	c #939393",
"i	c #818181",
"j	c #9E9E9D",
"k	c #7D7D7D",
"l	c #C8C8C7",
"m	c #E7E7E6",
"n	c #CBCBCB",
"o	c #9F9F9E",
"p	c #DADADA",
"q	c #ABABAB",
"r	c #BDBDBD",
"s	c #7A7A79",
"t	c #C7C7C6",
"u	c #C4C4C3",
"v	c #606060",
"w	c #E3E3E3",
"x	c #757575",
"y	c #A4A4A4",
"z	c #D9D9D9",
"A	c #878786",
"B	c #727271",
"C	c #888887",
"D	c #A3A3A3",
"E	c #DFDFDF",
"F	c #A7A7A7",
"G	c #777777",
"H	c #6D6D6D",
"I	c #A9A9A9",
"J	c #9A9A9A",
"K	c #E1E1E1",
"L	c #DEDEDE",
"M	c #575757",
"N	c #838383",
"O	c #B4B4B4",
"P	c #CACACA",
"....................",
"++++++++++++++++++++",
"@@@@@@@@@@@@@@@@@@@@",
"####################",
"$$$$$$$$$$$$$$$$$$$$",
"%%%%%%%&*==*&%%%%%%%",
"-----;>,,'',,>;-----",
"))))!,'~{]]{~>,!))))",
"^^^/,(_::::::<(,[^^^",
"}}|112333333332114}}",
"556,788888888887,655",
"990,abbbbbbbbbb[,c99",
"dd,,effffffffffe,,dd",
"gg,,hiiiiiiiiiih,,gg",
"ggc,jklmmmmmmnko,pgg",
"ggq,rstmmmmmmusr,qgg",
"ggv1w8xxxxxxxx&11vgg",
"gggy,zABBBBBBCz,Dggg",
"ggggr,EFGHHGI',rgggg",
"gggggJK,,LL,,'Jggggg",
"ggggggMNOPPONggggggg",
"gggggggggggggggggggg",
"gggggggggggggggggggg",
"gggggggggggggggggggg",
"gggggggggggggggggggg"};
