/* XPM */
static char * maximize_pressed_xpm[] = {
"20 25 85 1",
" 	c None",
".	c #63605E",
"+	c #5B5A54",
"@	c #585752",
"#	c #54534F",
"$	c #52514C",
"%	c #504E4A",
"&	c #8D8D8D",
"*	c #B9B9B9",
"=	c #CDCDCD",
"-	c #4D4C47",
";	c #9F9F9F",
">	c #E2E2E2",
",	c #E6E6E6",
"'	c #E0E0E0",
")	c #4B4A45",
"!	c #C0C0C0",
"~	c #BCBCBC",
"{	c #9C9C9C",
"]	c #969696",
"^	c #484743",
"/	c #A8A8A8",
"(	c #DDDDDD",
"_	c #A3A3A1",
":	c #939392",
"<	c #A2A2A1",
"[	c #A6A6A6",
"}	c #464540",
"|	c #666666",
"1	c #E4E4E4",
"2	c #A0A0A0",
"3	c #8F8F8F",
"4	c #CCCCCC",
"5	c #656565",
"6	c #43423E",
"7	c #ADADAD",
"8	c #C4C4C4",
"9	c #8C8C8C",
"0	c #41403C",
"a	c #DCDCDC",
"b	c #A5A5A5",
"c	c #898989",
"d	c #E7E7E7",
"e	c #DBDBDB",
"f	c #3E3D39",
"g	c #969695",
"h	c #858584",
"i	c #CACAC9",
"j	c #E7E7E6",
"k	c #CECECC",
"l	c #3C3B37",
"m	c #939393",
"n	c #818181",
"o	c #C9C9C9",
"p	c #C6C6C6",
"q	c #9E9E9D",
"r	c #7D7D7D",
"s	c #9F9F9E",
"t	c #DADADA",
"u	c #ABABAB",
"v	c #BDBDBD",
"w	c #7A7A79",
"x	c #E5E5E4",
"y	c #7C7C7B",
"z	c #606060",
"A	c #E3E3E3",
"B	c #757575",
"C	c #C2C2C2",
"D	c #CACACA",
"E	c #A4A4A4",
"F	c #D9D9D9",
"G	c #878786",
"H	c #727271",
"I	c #888887",
"J	c #A3A3A3",
"K	c #DFDFDF",
"L	c #A7A7A7",
"M	c #777777",
"N	c #6D6D6D",
"O	c #A9A9A9",
"P	c #9A9A9A",
"Q	c #E1E1E1",
"R	c #DEDEDE",
"S	c #838383",
"T	c #B4B4B4",
"....................",
"++++++++++++++++++++",
"@@@@@@@@@@@@@@@@@@@@",
"####################",
"$$$$$$$$$$$$$$$$$$$$",
"%%%%%%%&*==*&%%%%%%%",
"-----;>,,'',,>;-----",
"))))!,'~{]]{~>,!))))",
"^^^/,(_::::::<(,[^^^",
"}}|112333443332115}}",
"667,89999,,99998,766",
"00a,bccccddcccc[,e00",
"ff,,ghijjjjjjkhg,,ff",
"ll,,mnoddddddpnm,,ll",
"lle,qrrrrjjrrrrs,tll",
"llu,vwwwwxjywwwv,ull",
"llz1A9BBBCDBBB&11zll",
"lllE,FGHHHHHHIF,Jlll",
"llllv,KLMNNMO',vllll",
"lllllPQ,,RR,,'Plllll",
"lllllllSTDDTSlllllll",
"llllllllllllllllllll",
"llllllllllllllllllll",
"llllllllllllllllllll",
"llllllllllllllllllll"};
