/* XPM */
static char * maximize_prelight_xpm[] = {
"20 25 68 1",
" 	c None",
".	c #63605E",
"+	c #5B5A54",
"@	c #585752",
"#	c #54534F",
"$	c #52514C",
"%	c #504E4A",
"&	c #8D8D8D",
"*	c #B9B9B9",
"=	c #CDCDCD",
"-	c #4D4C47",
";	c #9F9F9F",
">	c #E2E2E2",
",	c #E6E6E6",
"'	c #DBDBDB",
")	c #4B4A45",
"!	c #C0C0C0",
"~	c #DEDEDE",
"{	c #959595",
"]	c #686868",
"^	c #969696",
"/	c #DFDFDF",
"(	c #484743",
"_	c #A8A8A8",
":	c #D4D4D4",
"<	c #666666",
"[	c #636363",
"}	c #D5D5D5",
"|	c #A6A6A6",
"1	c #464540",
"2	c #E4E4E4",
"3	c #E1E1E1",
"4	c #5F5F5F",
"5	c #B8B8B8",
"6	c #696969",
"7	c #656565",
"8	c #43423E",
"9	c #ADADAD",
"0	c #AAAAAA",
"a	c #5B5B5B",
"b	c #ABABAB",
"c	c #41403C",
"d	c #DCDCDC",
"e	c #787878",
"f	c #575757",
"g	c #7A7A7A",
"h	c #3E3D39",
"i	c #646464",
"j	c #B7B7B7",
"k	c #BDBDBD",
"l	c #3C3B37",
"m	c #B3B3B3",
"n	c #767676",
"o	c #DADADA",
"p	c #A9A9A9",
"q	c #606060",
"r	c #B1B1B1",
"s	c #BCBCBC",
"t	c #A4A4A4",
"u	c #616161",
"v	c #A3A3A3",
"w	c #919191",
"x	c #939393",
"y	c #9A9A9A",
"z	c #E0E0E0",
"A	c #838383",
"B	c #B4B4B4",
"C	c #CACACA",
"....................",
"++++++++++++++++++++",
"@@@@@@@@@@@@@@@@@@@@",
"####################",
"$$$$$$$$$$$$$$$$$$$$",
"%%%%%%%&*==*&%%%%%%%",
"-----;>,,'',,>;-----",
"))))!,~{]]]]^/,!))))",
"(((_,:<[[[[[[<},|(((",
"11<23]444554446>2711",
"889,0aaaa,,aaaab,988",
"ccd,effff,,ffffg,'cc",
"hh,,ifj,,,,,,kfi,,hh",
"ll,,[fj,,,,,,mf[,,ll",
"ll',nffff,,ffffe,oll",
"llb,pffff>,ffff_,bll",
"llq237fffrsfff<>2qll",
"lllt,:qffffffu:,vlll",
"llllk,~wffffx/,kllll",
"llllly3,,'',,zylllll",
"lllllllABCCBAlllllll",
"llllllllllllllllllll",
"llllllllllllllllllll",
"llllllllllllllllllll",
"llllllllllllllllllll"};
