/* XPM */
static char * shade_pressed_xpm[] = {
"20 25 86 1",
" 	c None",
".	c #63605E",
"+	c #5B5A54",
"@	c #585752",
"#	c #54534F",
"$	c #52514C",
"%	c #504E4A",
"&	c #8D8D8D",
"*	c #B9B9B9",
"=	c #CDCDCD",
"-	c #4D4C47",
";	c #9F9F9F",
">	c #E2E2E2",
",	c #E6E6E6",
"'	c #E0E0E0",
")	c #4B4A45",
"!	c #C0C0C0",
"~	c #BCBCBC",
"{	c #9C9C9C",
"]	c #969696",
"^	c #484743",
"/	c #A8A8A8",
"(	c #DDDDDD",
"_	c #A3A3A1",
":	c #939392",
"<	c #A2A2A1",
"[	c #A6A6A6",
"}	c #464540",
"|	c #666666",
"1	c #E4E4E4",
"2	c #A0A0A0",
"3	c #8F8F8F",
"4	c #656565",
"5	c #43423E",
"6	c #ADADAD",
"7	c #C4C4C4",
"8	c #8C8C8C",
"9	c #41403C",
"0	c #DCDCDC",
"a	c #A5A5A5",
"b	c #898989",
"c	c #E7E7E6",
"d	c #DBDBDB",
"e	c #3E3D39",
"f	c #969695",
"g	c #858584",
"h	c #D7D7D7",
"i	c #E7E7E7",
"j	c #3C3B37",
"k	c #939393",
"l	c #818181",
"m	c #868685",
"n	c #D5D5D4",
"o	c #D6D6D6",
"p	c #9E9E9D",
"q	c #7D7D7D",
"r	c #CECECD",
"s	c #828281",
"t	c #9F9F9E",
"u	c #DADADA",
"v	c #ABABAB",
"w	c #BDBDBD",
"x	c #7A7A79",
"y	c #C5C5C5",
"z	c #7E7E7E",
"A	c #606060",
"B	c #E3E3E3",
"C	c #757575",
"D	c #A4A4A4",
"E	c #D9D9D9",
"F	c #878786",
"G	c #727271",
"H	c #888887",
"I	c #A3A3A3",
"J	c #DFDFDF",
"K	c #A7A7A7",
"L	c #777777",
"M	c #6D6D6D",
"N	c #A9A9A9",
"O	c #9A9A9A",
"P	c #E1E1E1",
"Q	c #DEDEDE",
"R	c #575757",
"S	c #838383",
"T	c #B4B4B4",
"U	c #CACACA",
"....................",
"++++++++++++++++++++",
"@@@@@@@@@@@@@@@@@@@@",
"####################",
"$$$$$$$$$$$$$$$$$$$$",
"%%%%%%%&*==*&%%%%%%%",
"-----;>,,'',,>;-----",
"))))!,'~{]]{~>,!))))",
"^^^/,(_::::::<(,[^^^",
"}}|112333333332114}}",
"556,788888888887,655",
"990,abbb8cc8bbb[,d99",
"ee,,fggbhiihbggf,,ee",
"jj,,klmncoocnmlk,,jj",
"jjd,pqrcnssncrqt,ujj",
"jjv,wxy=zxxz=yxw,vjj",
"jjA1B8CCCCCCCC&11Ajj",
"jjjD,EFGGGGGGHE,Ijjj",
"jjjjw,JKLMMLN',wjjjj",
"jjjjjOP,,QQ,,'Ojjjjj",
"jjjjjjRSTUUTSjjjjjjj",
"jjjjjjjjjjjjjjjjjjjj",
"jjjjjjjjjjjjjjjjjjjj",
"jjjjjjjjjjjjjjjjjjjj",
"jjjjjjjjjjjjjjjjjjjj"};
