/* XPM */
static char * stick_active_xpm[] = {
"20 25 18 1",
" 	c None",
".	c #63605E",
"+	c #5B5A54",
"@	c #585752",
"#	c #54534F",
"$	c #52514C",
"%	c #504E4A",
"&	c #4D4C47",
"*	c #4B4A45",
"=	c #484743",
"-	c #464540",
";	c #43423E",
">	c #41403C",
",	c #B3B3B3",
"'	c #E2E2E2",
")	c #E6E6E6",
"!	c #3E3D39",
"~	c #3C3B37",
"....................",
"++++++++++++++++++++",
"@@@@@@@@@@@@@@@@@@@@",
"####################",
"$$$$$$$$$$$$$$$$$$$$",
"%%%%%%%%%%%%%%%%%%%%",
"&&&&&&&&&&&&&&&&&&&&",
"********************",
"====================",
"--------------------",
";;;;;;;;;;;;;;;;;;;;",
">>>>>>>>,'),>>>>>>>>",
"!!!!!!!!))))!!!!!!!!",
"~~~~~~~~))))~~~~~~~~",
"~~~~~~~~,'),~~~~~~~~",
"~~~~~~~~~~~~~~~~~~~~",
"~~~~~~~~~~~~~~~~~~~~",
"~~~~~~~~~~~~~~~~~~~~",
"~~~~~~~~~~~~~~~~~~~~",
"~~~~~~~~~~~~~~~~~~~~",
"~~~~~~~~~~~~~~~~~~~~",
"~~~~~~~~~~~~~~~~~~~~",
"~~~~~~~~~~~~~~~~~~~~",
"~~~~~~~~~~~~~~~~~~~~",
"~~~~~~~~~~~~~~~~~~~~"};
