/* XPM */
static char * stick_pressed_xpm[] = {
"20 25 75 1",
" 	c None",
".	c #63605E",
"+	c #5B5A54",
"@	c #585752",
"#	c #54534F",
"$	c #52514C",
"%	c #504E4A",
"&	c #8D8D8D",
"*	c #B9B9B9",
"=	c #CDCDCD",
"-	c #4D4C47",
";	c #9F9F9F",
">	c #E2E2E2",
",	c #E6E6E6",
"'	c #DBDBDB",
")	c #4B4A45",
"!	c #C0C0C0",
"~	c #E0E0E0",
"{	c #BCBCBC",
"]	c #9C9C9C",
"^	c #969696",
"/	c #484743",
"(	c #A8A8A8",
"_	c #DDDDDD",
":	c #A3A3A1",
"<	c #939392",
"[	c #A2A2A1",
"}	c #A6A6A6",
"|	c #464540",
"1	c #666666",
"2	c #E4E4E4",
"3	c #A0A0A0",
"4	c #8F8F8F",
"5	c #656565",
"6	c #43423E",
"7	c #ADADAD",
"8	c #C4C4C4",
"9	c #8C8C8C",
"0	c #41403C",
"a	c #DCDCDC",
"b	c #A5A5A5",
"c	c #898989",
"d	c #B3B3B3",
"e	c #3E3D39",
"f	c #969695",
"g	c #858584",
"h	c #3C3B37",
"i	c #939393",
"j	c #818181",
"k	c #9E9E9D",
"l	c #7D7D7D",
"m	c #9F9F9E",
"n	c #DADADA",
"o	c #ABABAB",
"p	c #BDBDBD",
"q	c #7A7A79",
"r	c #606060",
"s	c #E3E3E3",
"t	c #757575",
"u	c #A4A4A4",
"v	c #D9D9D9",
"w	c #878786",
"x	c #727271",
"y	c #888887",
"z	c #A3A3A3",
"A	c #DFDFDF",
"B	c #A7A7A7",
"C	c #777777",
"D	c #6D6D6D",
"E	c #A9A9A9",
"F	c #9A9A9A",
"G	c #E1E1E1",
"H	c #838383",
"I	c #B4B4B4",
"J	c #CACACA",
"....................",
"++++++++++++++++++++",
"@@@@@@@@@@@@@@@@@@@@",
"####################",
"$$$$$$$$$$$$$$$$$$$$",
"%%%%%%%&*==*&%%%%%%%",
"-----;>,,'',,>;-----",
"))))!,~{]^^]{>,!))))",
"///(,_:<<<<<<[_,}///",
"||1223444444443225||",
"667,899999999998,766",
"00a,bcccd>,dccc},'00",
"ee,,fggg,,,,gggf,,ee",
"hh,,ijjj,,,,jjji,,hh",
"hh',kllld>,dlllm,nhh",
"hho,pqqqqqqqqqqp,ohh",
"hhr2s9tttttttt&22rhh",
"hhhu,vwxxxxxxyv,zhhh",
"hhhhp,ABCDDCE~,phhhh",
"hhhhhFG,,'',,~Fhhhhh",
"hhhhhhhHIJJIHhhhhhhh",
"hhhhhhhhhhhhhhhhhhhh",
"hhhhhhhhhhhhhhhhhhhh",
"hhhhhhhhhhhhhhhhhhhh",
"hhhhhhhhhhhhhhhhhhhh"};
