/* XPM */
static char * stick_prelight_xpm[] = {
"20 25 64 1",
" 	c None",
".	c #63605E",
"+	c #5B5A54",
"@	c #585752",
"#	c #54534F",
"$	c #52514C",
"%	c #504E4A",
"&	c #8D8D8D",
"*	c #B9B9B9",
"=	c #CDCDCD",
"-	c #4D4C47",
";	c #9F9F9F",
">	c #E2E2E2",
",	c #E6E6E6",
"'	c #DBDBDB",
")	c #4B4A45",
"!	c #C0C0C0",
"~	c #DEDEDE",
"{	c #959595",
"]	c #686868",
"^	c #969696",
"/	c #DFDFDF",
"(	c #484743",
"_	c #A8A8A8",
":	c #D4D4D4",
"<	c #666666",
"[	c #636363",
"}	c #D5D5D5",
"|	c #A6A6A6",
"1	c #464540",
"2	c #E4E4E4",
"3	c #E1E1E1",
"4	c #5F5F5F",
"5	c #696969",
"6	c #656565",
"7	c #43423E",
"8	c #ADADAD",
"9	c #AAAAAA",
"0	c #5B5B5B",
"a	c #ABABAB",
"b	c #41403C",
"c	c #DCDCDC",
"d	c #787878",
"e	c #575757",
"f	c #B3B3B3",
"g	c #7A7A7A",
"h	c #3E3D39",
"i	c #646464",
"j	c #3C3B37",
"k	c #767676",
"l	c #DADADA",
"m	c #A9A9A9",
"n	c #606060",
"o	c #A4A4A4",
"p	c #616161",
"q	c #A3A3A3",
"r	c #BDBDBD",
"s	c #919191",
"t	c #939393",
"u	c #9A9A9A",
"v	c #E0E0E0",
"w	c #838383",
"x	c #B4B4B4",
"y	c #CACACA",
"....................",
"++++++++++++++++++++",
"@@@@@@@@@@@@@@@@@@@@",
"####################",
"$$$$$$$$$$$$$$$$$$$$",
"%%%%%%%&*==*&%%%%%%%",
"-----;>,,'',,>;-----",
"))))!,~{]]]]^/,!))))",
"(((_,:<[[[[[[<},|(((",
"11<23]444444445>2611",
"778,90000000000a,877",
"bbc,deeef>,feeeg,'bb",
"hh,,ieee,,,,eeei,,hh",
"jj,,[eee,,,,eee[,,jj",
"jj',keeef>,feeed,ljj",
"jja,meeeeeeeeee_,ajj",
"jjn236eeeeeeee<>2njj",
"jjjo,:neeeeeep:,qjjj",
"jjjjr,~seeeet/,rjjjj",
"jjjjju3,,'',,vujjjjj",
"jjjjjjewxyyxwjjjjjjj",
"jjjjjjjjjjjjjjjjjjjj",
"jjjjjjjjjjjjjjjjjjjj",
"jjjjjjjjjjjjjjjjjjjj",
"jjjjjjjjjjjjjjjjjjjj"};
