/* XPM */
static char * top_left_active_xpm[] = {
"6 63 33 1",
" 	c None",
".	c #63605E",
"+	c #5B5A54",
"@	c #575651",
"#	c #585752",
"$	c #54534F",
"%	c #52514C",
"&	c #504E4A",
"*	c #4D4C47",
"=	c #4B4A45",
"-	c #484743",
";	c #464540",
">	c #43423E",
",	c #41403C",
"'	c #3E3D39",
")	c #3C3B37",
"!	c #62605E",
"~	c #63615E",
"{	c #63605F",
"]	c #62615F",
"^	c #626161",
"/	c #626061",
"(	c #616161",
"_	c #626263",
":	c #656565",
"<	c #696969",
"[	c #6D6D6D",
"}	c #707070",
"|	c #747374",
"1	c #787778",
"2	c #7B7B7B",
"3	c #7E7E7E",
"4	c #828282",
"     .",
"   ..+",
"  .@@#",
" .$$$$",
" .%%%%",
".&&&&&",
".*****",
".=====",
".-----",
".;;;;;",
".>>>>>",
".,,,,,",
".'''''",
".)))))",
".)))))",
".)))))",
".)))))",
".)))))",
".)))))",
".)))))",
".)))))",
".)))))",
".)))))",
".)))))",
"!)))))",
"~     ",
"{     ",
"]     ",
"^     ",
"/     ",
"(     ",
"(     ",
"(     ",
"(     ",
"(     ",
"(     ",
"(     ",
"(     ",
"(     ",
"(     ",
"(     ",
"(     ",
"(     ",
"(     ",
"(     ",
"(     ",
"(     ",
"(     ",
"(     ",
"(     ",
"(     ",
"(     ",
"(     ",
"_     ",
":     ",
"<     ",
"[     ",
"}     ",
"|     ",
"1     ",
"2     ",
"3     ",
"4     "};
