<?xml version="1.0" encoding="UTF-8" standalone="no"?>
<!-- Created with Inkscape (http://www.inkscape.org/) -->

<svg
   xmlns:dc="http://purl.org/dc/elements/1.1/"
   xmlns:cc="http://creativecommons.org/ns#"
   xmlns:rdf="http://www.w3.org/1999/02/22-rdf-syntax-ns#"
   xmlns:svg="http://www.w3.org/2000/svg"
   xmlns="http://www.w3.org/2000/svg"
   xmlns:xlink="http://www.w3.org/1999/xlink"
   xmlns:sodipodi="http://sodipodi.sourceforge.net/DTD/sodipodi-0.dtd"
   xmlns:inkscape="http://www.inkscape.org/namespaces/inkscape"
   version="1.0"
   width="128"
   height="128"
   id="svg4486"
   sodipodi:version="0.32"
   inkscape:version="0.48.0 r9654"
   sodipodi:docname="audio-x-flac5.svg"
   inkscape:output_extension="org.inkscape.output.svg.inkscape">
  <metadata
     id="metadata51">
    <rdf:RDF>
      <cc:Work
         rdf:about="">
        <dc:format>image/svg+xml</dc:format>
        <dc:type
           rdf:resource="http://purl.org/dc/dcmitype/StillImage" />
        <dc:title></dc:title>
      </cc:Work>
    </rdf:RDF>
  </metadata>
  <sodipodi:namedview
     inkscape:window-height="781"
     inkscape:window-width="1438"
     inkscape:pageshadow="2"
     inkscape:pageopacity="0.0"
     guidetolerance="10.0"
     gridtolerance="10.0"
     objecttolerance="10.0"
     borderopacity="1.0"
     bordercolor="#666666"
     pagecolor="#ffffff"
     id="base"
     showgrid="false"
     inkscape:zoom="16"
     inkscape:cx="62.820933"
     inkscape:cy="31.318722"
     inkscape:window-x="0"
     inkscape:window-y="55"
     inkscape:current-layer="svg4486"
     inkscape:window-maximized="0"
     showguides="true"
     inkscape:guide-bbox="true">
    <sodipodi:guide
       orientation="0,1"
       position="-152,-22.5"
       id="guide3058" />
    <sodipodi:guide
       orientation="1,0"
       position="-117.5,51"
       id="guide3060" />
    <sodipodi:guide
       orientation="0,1"
       position="9.5000001,-22.5"
       id="guide3062" />
    <sodipodi:guide
       orientation="-0.70710678,0.70710678"
       position="-196.5,222.5"
       id="guide3064" />
    <sodipodi:guide
       orientation="1,0"
       position="-137,102"
       id="guide3066" />
  </sodipodi:namedview>
  <defs
     id="defs4488">
    <linearGradient
       id="linearGradient5048">
      <stop
         id="stop5050"
         style="stop-color:#000000;stop-opacity:0"
         offset="0" />
      <stop
         id="stop5056"
         style="stop-color:#000000;stop-opacity:1"
         offset="0.5" />
      <stop
         id="stop5052"
         style="stop-color:#000000;stop-opacity:0"
         offset="1" />
    </linearGradient>
    <linearGradient
       id="linearGradient5060">
      <stop
         id="stop5062"
         style="stop-color:#000000;stop-opacity:1"
         offset="0" />
      <stop
         id="stop5064"
         style="stop-color:#000000;stop-opacity:0"
         offset="1" />
    </linearGradient>
    <linearGradient
       id="linearGradient3104">
      <stop
         id="stop3106"
         style="stop-color:#aaaaaa;stop-opacity:1"
         offset="0" />
      <stop
         id="stop3108"
         style="stop-color:#c8c8c8;stop-opacity:1"
         offset="1" />
    </linearGradient>
    <linearGradient
       id="linearGradient3600">
      <stop
         id="stop3602"
         style="stop-color:#f4f4f4;stop-opacity:1"
         offset="0" />
      <stop
         id="stop3604"
         style="stop-color:#dbdbdb;stop-opacity:1"
         offset="1" />
    </linearGradient>
    <radialGradient
       cx="102"
       cy="112.3047"
       r="139.55859"
       id="XMLID_8_"
       gradientUnits="userSpaceOnUse">
      <stop
         id="stop41"
         style="stop-color:#b7b8b9;stop-opacity:1"
         offset="0" />
      <stop
         id="stop47"
         style="stop-color:#ececec;stop-opacity:1"
         offset="0.18851049" />
      <stop
         id="stop49"
         style="stop-color:#fafafa;stop-opacity:0"
         offset="0.25718147" />
      <stop
         id="stop51"
         style="stop-color:#ffffff;stop-opacity:0"
         offset="0.30111277" />
      <stop
         id="stop53"
         style="stop-color:#fafafa;stop-opacity:0"
         offset="0.53130001" />
      <stop
         id="stop55"
         style="stop-color:#ebecec;stop-opacity:0"
         offset="0.84490001" />
      <stop
         id="stop57"
         style="stop-color:#e1e2e3;stop-opacity:0"
         offset="1" />
    </radialGradient>
    <linearGradient
       id="linearGradient3211">
      <stop
         id="stop3213"
         style="stop-color:#ffffff;stop-opacity:1"
         offset="0" />
      <stop
         id="stop3215"
         style="stop-color:#ffffff;stop-opacity:0"
         offset="1" />
    </linearGradient>
    <linearGradient
       id="linearGradient8589">
      <stop
         id="stop8591"
         style="stop-color:#fefefe;stop-opacity:1"
         offset="0" />
      <stop
         id="stop8593"
         style="stop-color:#cbcbcb;stop-opacity:1"
         offset="1" />
    </linearGradient>
    <linearGradient
       x1="32.892288"
       y1="8.0590115"
       x2="36.358372"
       y2="5.4565363"
       id="linearGradient2455"
       xlink:href="#linearGradient8589"
       gradientUnits="userSpaceOnUse"
       gradientTransform="matrix(2.6605294,0,0,2.7751643,0.7455334,-3.5662351)" />
    <linearGradient
       x1="24"
       y1="1.9999999"
       x2="24"
       y2="46.01725"
       id="linearGradient2459"
       xlink:href="#linearGradient3211"
       gradientUnits="userSpaceOnUse"
       gradientTransform="matrix(2.7575715,0,0,2.6744155,-2.1817183,-4.1859717)" />
    <radialGradient
       cx="102"
       cy="112.3047"
       r="139.55859"
       id="radialGradient2462"
       xlink:href="#XMLID_8_"
       gradientUnits="userSpaceOnUse"
       gradientTransform="matrix(0.9787237,0,0,-1.0535153,1.3617012,127.48164)" />
    <linearGradient
       x1="25.132275"
       y1="0.98520643"
       x2="25.132275"
       y2="47.013336"
       id="linearGradient2465"
       xlink:href="#linearGradient3600"
       gradientUnits="userSpaceOnUse"
       gradientTransform="matrix(2.657139,0,0,2.5422197,0.2286615,-4.9132741)" />
    <linearGradient
       x1="-51.786404"
       y1="50.786446"
       x2="-51.786404"
       y2="2.9062471"
       id="linearGradient2467"
       xlink:href="#linearGradient3104"
       gradientUnits="userSpaceOnUse"
       gradientTransform="matrix(2.1456312,0,0,2.3791388,158.0899,-7.7465258)" />
    <linearGradient
       x1="302.85715"
       y1="366.64789"
       x2="302.85715"
       y2="609.50507"
       id="linearGradient2483"
       xlink:href="#linearGradient5048"
       gradientUnits="userSpaceOnUse"
       gradientTransform="matrix(0.1725148,0,0,0.03920058,0.6482238,98.773724)" />
    <radialGradient
       cx="605.71429"
       cy="486.64789"
       r="117.14286"
       fx="605.71429"
       fy="486.64789"
       id="radialGradient2485"
       xlink:href="#linearGradient5060"
       gradientUnits="userSpaceOnUse"
       gradientTransform="matrix(-0.05903807,0,0,0.03920058,56.929907,98.773804)" />
    <radialGradient
       cx="605.71429"
       cy="486.64789"
       r="117.14286"
       fx="605.71429"
       fy="486.64789"
       id="radialGradient2487"
       xlink:href="#linearGradient5060"
       gradientUnits="userSpaceOnUse"
       gradientTransform="matrix(0.05903808,0,0,0.03920058,69.07008,98.773804)" />
    <radialGradient
       cx="17.058823"
       cy="41.058823"
       r="5.7384715"
       fx="15.544384"
       fy="39.027378"
       id="radialGradient3538-3-7"
       xlink:href="#linearGradient7067-814-120-245-6-9"
       gradientUnits="userSpaceOnUse"
       gradientTransform="matrix(0.3766757,-0.06311262,0,0.3645139,-2.446246,-0.6906545)" />
    <linearGradient
       id="linearGradient7067-814-120-245-6-9">
      <stop
         id="stop3877-3-7"
         style="stop-color:#e7ffae;stop-opacity:1;"
         offset="0" />
      <stop
         id="stop3879-3-2"
         style="stop-color:#a0dd0e;stop-opacity:1;"
         offset="1" />
    </linearGradient>
    <radialGradient
       cx="17.058823"
       cy="41.058823"
       r="5.7384715"
       fx="15.970393"
       fy="39.105911"
       id="radialGradient3540-4-2"
       xlink:href="#linearGradient7067-814-120-245-6-9"
       gradientUnits="userSpaceOnUse"
       gradientTransform="matrix(0.3698584,-0.06212313,0,0.358799,4.6705097,-1.5148309)" />
    <linearGradient
       id="linearGradient3120">
      <stop
         id="stop3122"
         style="stop-color:#e7ffae;stop-opacity:1;"
         offset="0" />
      <stop
         id="stop3124"
         style="stop-color:#a0dd0e;stop-opacity:1;"
         offset="1" />
    </linearGradient>
    <linearGradient
       inkscape:collect="always"
       xlink:href="#linearGradient2372-7-3-0"
       id="linearGradient4052"
       gradientUnits="userSpaceOnUse"
       gradientTransform="matrix(0.1264953,0,0,0.128756,1.8294146,-14.19922)"
       x1="28.739122"
       y1="144.11652"
       x2="25.400293"
       y2="119.86452" />
    <linearGradient
       id="linearGradient2372-7-3-0">
      <stop
         id="stop2374-5-9-2"
         style="stop-color:#ffffff;stop-opacity:1"
         offset="0" />
      <stop
         id="stop2376-3-7-1"
         style="stop-color:#ffffff;stop-opacity:1;"
         offset="1" />
    </linearGradient>
    <linearGradient
       y2="125.39074"
       x2="26.256771"
       y1="144.11652"
       x1="28.739122"
       gradientTransform="matrix(0.2545239,0,0,0.128756,5.8478384,-14.983809)"
       gradientUnits="userSpaceOnUse"
       id="linearGradient3916"
       xlink:href="#linearGradient2372-7-3-0"
       inkscape:collect="always" />
    <linearGradient
       id="linearGradient3131">
      <stop
         id="stop3133"
         style="stop-color:#ffffff;stop-opacity:1"
         offset="0" />
      <stop
         id="stop3135"
         style="stop-color:#ffffff;stop-opacity:1;"
         offset="1" />
    </linearGradient>
    <linearGradient
       y2="125.39074"
       x2="26.256771"
       y1="144.11652"
       x1="28.739122"
       gradientTransform="matrix(0.2545239,0,0,0.128756,5.8478384,-14.983809)"
       gradientUnits="userSpaceOnUse"
       id="linearGradient3144"
       xlink:href="#linearGradient2372-7-3-0"
       inkscape:collect="always" />
  </defs>
  <g
     transform="matrix(1.0408163,0,0,0.6302428,-1.5714269,43.690218)"
     id="g2478">
    <rect
       width="83.299995"
       height="9.5201406"
       x="21.349998"
       y="113.14653"
       id="rect2879"
       style="opacity:0.3;fill:url(#linearGradient2483);fill-opacity:1;fill-rule:nonzero;stroke:none;stroke-width:1;marker:none;visibility:visible;display:inline;overflow:visible" />
    <path
       d="m 21.35,113.14694 c 0,0 0,9.51962 0,9.51962 -3.040314,0.0179 -7.35,-2.13287 -7.35,-4.76043 0,-2.62755 3.392762,-4.75919 7.35,-4.75919 z"
       id="path2881"
       style="opacity:0.3;fill:url(#radialGradient2485);fill-opacity:1;fill-rule:nonzero;stroke:none;stroke-width:1;marker:none;visibility:visible;display:inline;overflow:visible" />
    <path
       d="m 104.64999,113.14694 c 0,0 0,9.51962 0,9.51962 3.04032,0.0179 7.35001,-2.13287 7.35001,-4.76043 0,-2.62755 -3.39277,-4.75919 -7.35001,-4.75919 z"
       id="path2883"
       style="opacity:0.3;fill:url(#radialGradient2487);fill-opacity:1;fill-rule:nonzero;stroke:none;stroke-width:1;marker:none;visibility:visible;display:inline;overflow:visible" />
  </g>
  <path
     d="m 17.499961,1.499962 c 21.311039,0 42.622077,0 63.933118,0 3.738416,1.2619859 23.822451,15.639336 29.066961,25.594247 0,30.468614 0,60.937223 0,91.405831 -31.000026,0 -62.000051,0 -93.000079,0 0,-39.000023 0,-78.000052 0,-117.000078 z"
     id="path4160"
     style="fill:url(#linearGradient2465);fill-opacity:1;stroke:url(#linearGradient2467);stroke-width:0.99992192;stroke-linecap:butt;stroke-linejoin:round;stroke-miterlimit:4;stroke-opacity:1;stroke-dasharray:none;stroke-dashoffset:0;display:inline" />
  <path
     d="M 18.978723,118 C 18.439449,118 18,117.52697 18,116.94648 L 18,3.1668773 C 18,2.5853392 18.439449,2.1133645 18.978723,2.1133645 39.22709,2.4045657 61.66587,1.6777678 81.889633,2.1858707 L 109.71323,26.088148 110,116.94648 C 110,117.52697 109.56154,118 109.02128,118 l -90.042557,0 z"
     id="path4191"
     style="fill:url(#radialGradient2462);fill-opacity:1" />
  <path
     d="m 109.50003,26.517935 c 0,29.94778 0,61.034321 0,90.982105 -30.333353,0 -60.666712,0 -91.00007,0 0,-38.333364 0,-76.666721 0,-115.0000784 20.852737,0 42.202796,0 63.055535,0"
     id="path2435"
     style="opacity:0.6;fill:none;stroke:url(#linearGradient2459);stroke-width:0.99992174;stroke-linecap:butt;stroke-linejoin:round;stroke-miterlimit:4;stroke-opacity:1;stroke-dasharray:none;stroke-dashoffset:0;display:inline" />
  <path
     d="M 71.923062,1.8392376 C 84.951381,1.8392376 78.473694,27.646803 78.473694,27.646803 C 78.473694,27.646803 109.98379,20.457276 109.98379,33.209225 C 109.98379,33.209225 110.05573,27.150866 110.05573,27.150866 C 103.32475,20.41989 89.06065,7.2507492 79.88133,2.2376883 C 79.88133,2.2376883 71.923062,1.8392376 71.923062,1.8392376 L 71.923062,1.8392376 z"
     id="path3232"
     style="opacity:0.05;fill:#000000;fill-opacity:1;fill-rule:evenodd;stroke:none;display:inline"
     sodipodi:nodetypes="cccsscc" />
  <path
     d="M 30.770506,9.4044296 C 30.770506,9.4044296 41.128148,7.6020829 41.128148,12.223174 C 41.128148,9.6134507 35.296571,2.3137247 28.617256,0.92125832 C 31.864351,2.1641973 31.423163,6.3282809 30.770506,9.4044296 z"
     id="path12038"
     style="opacity:0.15;fill:#000000;fill-opacity:1;fill-rule:evenodd;stroke:none;display:inline"
     transform="matrix(2.6666667,0,0,2.6666667,0.3087257,-0.6174513)"
     sodipodi:nodetypes="cscc" />
  <g
     transform="matrix(4.7595285,0,0,4.7595285,25.291771,15.286994)"
     id="layer1-8-2">
    <path
       inkscape:connector-curvature="0"
       d="M 12.887143,11.242639 12.520463,8.2875931"
       id="path2931-1"
       style="fill:none;stroke:none" />
    <path
       inkscape:connector-curvature="0"
       d="M 12.862181,0.50107998 C 10.505078,0.88091513 7.3505507,1.2719259 5,1.6729744 4.3775618,1.9766657 4.5174948,2.758676 4.4899572,3.3260967 c 0,2.5319424 0,5.0638848 0,7.5958273 -1.3117262,-0.246608 -2.9113558,0.837273 -2.9807337,2.553424 -0.1132522,1.068438 0.8342068,1.998453 1.8644819,2.023461 1.844664,0.04478 3.1062853,-1.179076 3.1262946,-2.726857 -0.020145,-2.599408 0.00566,-5.1998384 0,-7.7996448 0.2855763,-0.02115 4.61103,-0.8465037 5,-0.901457 0,1.9471472 0,3.8942945 0,5.8414417 -1.146387,-0.2746364 -2.6118971,0.4787211 -2.9752697,2.0172541 -0.15337,0.862385 0.1364969,1.944831 1.0115464,2.309984 1.7082373,0.784936 4.0532683,-0.805037 3.9579313,-2.671065 -0.02646,-3.4661732 0.02169,-6.933764 0,-10.4003066 -0.04486,-0.32575865 -0.265607,-0.69059252 -0.632027,-0.66707842 l 0,0 z"
       id="path4031-7"
       style="fill:#a0e500;fill-opacity:1;stroke:#508238;stroke-width:0.5;stroke-linecap:round;stroke-linejoin:round;stroke-miterlimit:4;stroke-opacity:1;stroke-dasharray:none" />
    <path
       inkscape:connector-curvature="0"
       d="m 5.9735639,12.865117 c -1.897e-4,0.998069 -0.8929531,1.956631 -1.9941666,2.14114 -1.1012135,0.18451 -1.993976,-0.474885 -1.9941648,-1.47289 1.897e-4,-0.998069 0.8929531,-1.956631 1.9941666,-2.14114 1.1012135,-0.18451 1.993976,0.474885 1.9941648,1.47289 l 0,0 z"
       id="path2937-8"
       style="fill:url(#radialGradient3538-3-7);fill-opacity:1;stroke:none" />
    <path
       inkscape:connector-curvature="0"
       d="m 12.937933,11.82841 c -4.9e-5,0.982486 -0.876694,1.926163 -1.958074,2.107797 -1.08138,0.181633 -1.9580252,-0.467554 -1.9580741,-1.450023 -4.89e-5,-0.982532 0.8766251,-1.926313 1.9580741,-2.107958 1.081449,-0.181645 1.958123,0.467635 1.958074,1.450184 l 0,0 z"
       id="path2941-5"
       style="fill:url(#radialGradient3540-4-2);fill-opacity:1;stroke:none" />
    <path
       d="M 4.7691019,11.334081 4.715415,2.6516444 c 0,0 0.05877,-0.6637646 0.4947159,-0.6657879 0.1546126,-0.027048 6.9317151,-1.15654737 6.9317151,-1.15654737 0,0 0.132983,0.70947367 -6.0694897,1.62965477 -0.516931,0.077068 -0.76544,0.068481 -0.7627163,0.5583664 0.00735,1.3216244 -0.030358,3.795953 -0.030358,8.6082557 0,0.03443 -0.3254384,-0.243938 -0.5101806,-0.291505 l 5e-7,0 z"
       id="path2945-7"
       style="opacity:0.4;fill:url(#linearGradient4052);fill-opacity:1;fill-rule:evenodd;stroke:none"
       inkscape:connector-curvature="0" />
    <path
       d="m 11.762846,10.461072 0.03393,-6.5590208 c 0.357493,-0.0323 0.05489,-0.00519 0.53695,-0.053577 0.0066,1.2251582 2.74e-4,2.2420961 2.74e-4,6.8691938 0,0.03443 -0.199425,-0.209029 -0.571151,-0.256596 l -3e-6,0 z"
       id="path2947-4"
       style="opacity:0.4;fill:url(#linearGradient3144);fill-opacity:1;fill-rule:evenodd;stroke:none"
       inkscape:connector-curvature="0" />
  </g>
  <path
     d="M 74.395876,1.8392376 C 86.577743,1.8392376 80.520913,25.970079 80.520913,25.970079 C 80.520913,25.970079 109.98379,20.329555 109.98379,32.11062 C 111.54407,22.058999 83.996871,-1.2887721 74.395876,1.8392376 L 74.395876,1.8392376 z"
     id="path3230"
     style="opacity:0.1;fill:#000000;fill-opacity:1;fill-rule:evenodd;stroke:none;display:inline"
     sodipodi:nodetypes="ccccc" />
  <path
     d="m 76.62141,1.8392376 c 8.497314,0 6.228693,20.4316764 6.228693,20.4316764 0,0 27.133687,-2.616144 27.133687,9.706766 0,-3.002504 0.2291,-5.152653 -0.35674,-6.089581 C 105.41822,19.156956 87.239007,4.052365 80.67425,2.0726634 80.182991,1.9245177 79.093706,1.8392376 76.62141,1.8392376 z"
     id="path4474"
     style="fill:url(#linearGradient2455);fill-opacity:1;fill-rule:evenodd;stroke:none;display:inline" />
  <g
     style="font-size:21.23639679px;font-style:normal;font-variant:normal;font-weight:bold;font-stretch:normal;text-align:start;line-height:125%;letter-spacing:0px;word-spacing:0px;writing-mode:lr-tb;text-anchor:start;fill:#858585;fill-opacity:1;stroke:none;font-family:Gothic Uralic;-inkscape-font-specification:Gothic Uralic Bold"
     id="text3058">
    <path
       d="m 56.613536,110.19457 -2.824536,0 9.6e-5,-15.693695 2.82444,0 0,15.693695"
       id="path3164"
       inkscape:connector-curvature="0"
       sodipodi:nodetypes="ccccc" />
    <path
       d="m 70.804427,110.19457 -2.590841,0 0,-1.52902 c -1.033514,1.16093 -2.336011,1.74139 -3.907497,1.74139 -1.755546,0 -3.185462,-0.56631 -4.289752,-1.69892 -1.090136,-1.1326 -1.635203,-2.58375 -1.635202,-4.35346 -10e-7,-1.76969 0.559224,-3.24208 1.677675,-4.417167 1.118447,-1.189227 2.555442,-1.783845 4.310989,-1.783858 1.628115,1.3e-5 2.909376,0.615867 3.843787,1.847565 l 0,-1.571491 2.590841,0 0,11.764961 m -2.675786,-5.79753 c -1e-5,-1.04766 -0.318556,-1.91835 -0.955638,-2.61208 -0.637101,-0.69371 -1.472398,-1.04057 -2.505895,-1.04058 -1.03351,10e-6 -1.868808,0.35394 -2.505895,1.06182 -0.622938,0.70788 -0.934405,1.57857 -0.934401,2.61207 -4e-6,1.01935 0.325621,1.85465 0.976874,2.5059 0.651245,0.63709 1.486542,0.95564 2.505895,0.95564 1.613958,0 2.675776,-0.72912 3.18546,-2.18735 0.155723,-0.43888 0.23359,-0.87069 0.2336,-1.29542"
       style=""
       id="path3166" />
    <path
       d="m 84.526458,106.32955 c -1.005201,2.71826 -2.951869,4.07739 -5.840009,4.07739 -1.741389,0 -3.227936,-0.58046 -4.459643,-1.74139 -1.217555,-1.17508 -1.826331,-2.62623 -1.82633,-4.35346 -10e-7,-1.72722 0.594618,-3.18545 1.783857,-4.374697 1.203392,-1.189227 2.675781,-1.783845 4.417171,-1.783858 1.670588,1.3e-5 3.114661,0.552158 4.332225,1.656439 0.410558,0.368106 0.729104,0.736206 0.955637,1.104296 0.22651,0.3681 0.438873,0.84946 0.637092,1.44407 l -3.185459,0 c -0.566313,-1.07597 -1.479477,-1.61395 -2.739495,-1.61396 -1.005196,10e-6 -1.819257,0.33979 -2.442186,1.01934 -0.60878,0.66542 -0.913169,1.50779 -0.913165,2.52713 -4e-6,1.0052 0.318542,1.85465 0.955638,2.54837 0.651244,0.69373 1.472384,1.04059 2.463422,1.04059 1.104284,0 1.996212,-0.51675 2.675786,-1.55026 l 3.185459,0"
       style=""
       id="path3168" />
  </g>
  <g
     transform="matrix(1.061195,0,0,0.94233387,-0.37362455,0.046875)"
     style="font-size:22.3794651px;font-style:normal;font-variant:normal;font-weight:bold;font-stretch:normal;text-align:start;line-height:150%;letter-spacing:0px;word-spacing:0px;writing-mode:lr-tb;text-anchor:start;fill:#858585;fill-opacity:1;stroke:none;font-family:Umpush;-inkscape-font-specification:Umpush Bold"
     id="text3832">
    <path
       d="m 47.091358,102.58214 c -0.502669,1e-5 -0.693642,0.11568 -0.970467,0.42163 -0.269548,0.30598 -0.360148,0.90248 -0.360144,1.62368 l -4.25e-4,1.23007 2.298778,0 0,1.95154 -2.298353,0 0,9.07958 -2.480537,0 0,-9.07958 -2.125074,0 4.59e-4,-1.95154 2.124619,0 0,-1.82015 c 0,-0.70663 0.105631,-1.31492 0.316897,-1.82489 0.211262,-0.50993 0.491734,-0.89603 0.841415,-1.15831 0.349676,-0.26224 0.603572,-0.51433 0.967825,-0.62362 0.364245,-0.11654 0.849774,-0.19628 1.250453,-0.1963 0.743062,2e-5 1.905803,0 2.534049,0 l 0,2.34513 c 0,0 -1.398815,-0.0256 -1.668815,-0.0176"
       id="path3056"
       inkscape:connector-curvature="0"
       sodipodi:nodetypes="ccsccccccccccsccccccc" />
  </g>
</svg>
