<?xml version="1.0" encoding="UTF-8" standalone="no"?>
<!-- Created with Inkscape (http://www.inkscape.org/) -->

<svg
   xmlns:dc="http://purl.org/dc/elements/1.1/"
   xmlns:cc="http://creativecommons.org/ns#"
   xmlns:rdf="http://www.w3.org/1999/02/22-rdf-syntax-ns#"
   xmlns:svg="http://www.w3.org/2000/svg"
   xmlns="http://www.w3.org/2000/svg"
   xmlns:xlink="http://www.w3.org/1999/xlink"
   xmlns:sodipodi="http://sodipodi.sourceforge.net/DTD/sodipodi-0.dtd"
   xmlns:inkscape="http://www.inkscape.org/namespaces/inkscape"
   version="1.0"
   width="128"
   height="128"
   id="svg4486"
   sodipodi:version="0.32"
   inkscape:version="0.48.0 r9654"
   sodipodi:docname="audio-x-playlist3.svg"
   inkscape:output_extension="org.inkscape.output.svg.inkscape">
  <metadata
     id="metadata51">
    <rdf:RDF>
      <cc:Work
         rdf:about="">
        <dc:format>image/svg+xml</dc:format>
        <dc:type
           rdf:resource="http://purl.org/dc/dcmitype/StillImage" />
        <dc:title></dc:title>
      </cc:Work>
    </rdf:RDF>
  </metadata>
  <sodipodi:namedview
     inkscape:window-height="782"
     inkscape:window-width="1438"
     inkscape:pageshadow="2"
     inkscape:pageopacity="0.0"
     guidetolerance="10.0"
     gridtolerance="10.0"
     objecttolerance="10.0"
     borderopacity="1.0"
     bordercolor="#666666"
     pagecolor="#ffffff"
     id="base"
     showgrid="false"
     inkscape:zoom="4"
     inkscape:cx="31.81971"
     inkscape:cy="67.301688"
     inkscape:window-x="72"
     inkscape:window-y="0"
     inkscape:current-layer="svg4486"
     inkscape:window-maximized="0"
     showguides="true"
     inkscape:guide-bbox="true" />
  <defs
     id="defs4488">
    <marker
       inkscape:stockid="Arrow1Lstart"
       orient="auto"
       refY="0.0"
       refX="0.0"
       id="Arrow1Lstart"
       style="overflow:visible">
      <path
         id="path3893"
         d="M 0.0,0.0 L 5.0,-5.0 L -12.5,0.0 L 5.0,5.0 L 0.0,0.0 z "
         style="fill-rule:evenodd;stroke:#000000;stroke-width:1.0pt;marker-start:none"
         transform="scale(0.8) translate(12.5,0)" />
    </marker>
    <linearGradient
       id="linearGradient5048">
      <stop
         id="stop5050"
         style="stop-color:#000000;stop-opacity:0"
         offset="0" />
      <stop
         id="stop5056"
         style="stop-color:#000000;stop-opacity:1"
         offset="0.5" />
      <stop
         id="stop5052"
         style="stop-color:#000000;stop-opacity:0"
         offset="1" />
    </linearGradient>
    <linearGradient
       id="linearGradient5060">
      <stop
         id="stop5062"
         style="stop-color:#000000;stop-opacity:1"
         offset="0" />
      <stop
         id="stop5064"
         style="stop-color:#000000;stop-opacity:0"
         offset="1" />
    </linearGradient>
    <linearGradient
       id="linearGradient3104">
      <stop
         id="stop3106"
         style="stop-color:#aaaaaa;stop-opacity:1"
         offset="0" />
      <stop
         id="stop3108"
         style="stop-color:#c8c8c8;stop-opacity:1"
         offset="1" />
    </linearGradient>
    <linearGradient
       id="linearGradient3600">
      <stop
         id="stop3602"
         style="stop-color:#f4f4f4;stop-opacity:1"
         offset="0" />
      <stop
         id="stop3604"
         style="stop-color:#dbdbdb;stop-opacity:1"
         offset="1" />
    </linearGradient>
    <radialGradient
       cx="102"
       cy="112.3047"
       r="139.55859"
       id="XMLID_8_"
       gradientUnits="userSpaceOnUse">
      <stop
         id="stop41"
         style="stop-color:#b7b8b9;stop-opacity:1"
         offset="0" />
      <stop
         id="stop47"
         style="stop-color:#ececec;stop-opacity:1"
         offset="0.18851049" />
      <stop
         id="stop49"
         style="stop-color:#fafafa;stop-opacity:0"
         offset="0.25718147" />
      <stop
         id="stop51"
         style="stop-color:#ffffff;stop-opacity:0"
         offset="0.30111277" />
      <stop
         id="stop53"
         style="stop-color:#fafafa;stop-opacity:0"
         offset="0.53130001" />
      <stop
         id="stop55"
         style="stop-color:#ebecec;stop-opacity:0"
         offset="0.84490001" />
      <stop
         id="stop57"
         style="stop-color:#e1e2e3;stop-opacity:0"
         offset="1" />
    </radialGradient>
    <linearGradient
       id="linearGradient3211">
      <stop
         id="stop3213"
         style="stop-color:#ffffff;stop-opacity:1"
         offset="0" />
      <stop
         id="stop3215"
         style="stop-color:#ffffff;stop-opacity:0"
         offset="1" />
    </linearGradient>
    <linearGradient
       id="linearGradient8589">
      <stop
         id="stop8591"
         style="stop-color:#fefefe;stop-opacity:1"
         offset="0" />
      <stop
         id="stop8593"
         style="stop-color:#cbcbcb;stop-opacity:1"
         offset="1" />
    </linearGradient>
    <linearGradient
       x1="32.892288"
       y1="8.0590115"
       x2="36.358372"
       y2="5.4565363"
       id="linearGradient2455"
       xlink:href="#linearGradient8589"
       gradientUnits="userSpaceOnUse"
       gradientTransform="matrix(2.6605294,0,0,2.7751643,-5.2544666,-3.5662351)" />
    <linearGradient
       x1="24"
       y1="1.9999999"
       x2="24"
       y2="46.01725"
       id="linearGradient2459"
       xlink:href="#linearGradient3211"
       gradientUnits="userSpaceOnUse"
       gradientTransform="matrix(2.7575715,0,0,2.6744155,-8.181718,-4.1859717)" />
    <radialGradient
       cx="102"
       cy="112.3047"
       r="139.55859"
       id="radialGradient2462"
       xlink:href="#XMLID_8_"
       gradientUnits="userSpaceOnUse"
       gradientTransform="matrix(0.9787237,0,0,-1.0535153,-4.6382988,127.48164)" />
    <linearGradient
       x1="25.132275"
       y1="0.98520643"
       x2="25.132275"
       y2="47.013336"
       id="linearGradient2465"
       xlink:href="#linearGradient3600"
       gradientUnits="userSpaceOnUse"
       gradientTransform="matrix(2.657139,0,0,2.5422197,-5.7713385,-4.9132741)" />
    <linearGradient
       x1="-51.786404"
       y1="50.786446"
       x2="-51.786404"
       y2="2.9062471"
       id="linearGradient2467"
       xlink:href="#linearGradient3104"
       gradientUnits="userSpaceOnUse"
       gradientTransform="matrix(2.1456312,0,0,2.3791388,152.0899,-7.7465258)" />
    <linearGradient
       x1="302.85715"
       y1="366.64789"
       x2="302.85715"
       y2="609.50507"
       id="linearGradient2483"
       xlink:href="#linearGradient5048"
       gradientUnits="userSpaceOnUse"
       gradientTransform="matrix(0.1725148,0,0,0.03920058,0.6482238,98.773724)" />
    <radialGradient
       cx="605.71429"
       cy="486.64789"
       r="117.14286"
       fx="605.71429"
       fy="486.64789"
       id="radialGradient2485"
       xlink:href="#linearGradient5060"
       gradientUnits="userSpaceOnUse"
       gradientTransform="matrix(-0.05903807,0,0,0.03920058,56.929907,98.773804)" />
    <radialGradient
       cx="605.71429"
       cy="486.64789"
       r="117.14286"
       fx="605.71429"
       fy="486.64789"
       id="radialGradient2487"
       xlink:href="#linearGradient5060"
       gradientUnits="userSpaceOnUse"
       gradientTransform="matrix(0.05903808,0,0,0.03920058,69.07008,98.773804)" />
    <radialGradient
       cx="17.058823"
       cy="41.058823"
       r="5.7384715"
       fx="15.544384"
       fy="39.027378"
       id="radialGradient3538-3-7"
       xlink:href="#linearGradient7067-814-120-245-6-9"
       gradientUnits="userSpaceOnUse"
       gradientTransform="matrix(0.3766757,-0.06311262,0,0.3645139,-2.446246,-0.6906545)" />
    <linearGradient
       id="linearGradient7067-814-120-245-6-9">
      <stop
         id="stop3877-3-7"
         style="stop-color:#e7ffae;stop-opacity:1;"
         offset="0" />
      <stop
         id="stop3879-3-2"
         style="stop-color:#a0dd0e;stop-opacity:1;"
         offset="1" />
    </linearGradient>
    <radialGradient
       cx="17.058823"
       cy="41.058823"
       r="5.7384715"
       fx="15.970393"
       fy="39.105911"
       id="radialGradient3540-4-2"
       xlink:href="#linearGradient7067-814-120-245-6-9"
       gradientUnits="userSpaceOnUse"
       gradientTransform="matrix(0.3698584,-0.06212313,0,0.358799,4.6705097,-1.5148309)" />
    <linearGradient
       id="linearGradient3120">
      <stop
         id="stop3122"
         style="stop-color:#e7ffae;stop-opacity:1;"
         offset="0" />
      <stop
         id="stop3124"
         style="stop-color:#a0dd0e;stop-opacity:1;"
         offset="1" />
    </linearGradient>
    <linearGradient
       inkscape:collect="always"
       xlink:href="#linearGradient2372-7-3-0"
       id="linearGradient4052"
       gradientUnits="userSpaceOnUse"
       gradientTransform="matrix(0.1264953,0,0,0.128756,1.8294146,-14.19922)"
       x1="28.739122"
       y1="144.11652"
       x2="25.400293"
       y2="119.86452" />
    <linearGradient
       id="linearGradient2372-7-3-0">
      <stop
         id="stop2374-5-9-2"
         style="stop-color:#ffffff;stop-opacity:1"
         offset="0" />
      <stop
         id="stop2376-3-7-1"
         style="stop-color:#ffffff;stop-opacity:1;"
         offset="1" />
    </linearGradient>
    <linearGradient
       y2="125.39074"
       x2="26.256771"
       y1="144.11652"
       x1="28.739122"
       gradientTransform="matrix(0.2545239,0,0,0.128756,5.8478384,-14.983809)"
       gradientUnits="userSpaceOnUse"
       id="linearGradient3916"
       xlink:href="#linearGradient2372-7-3-0"
       inkscape:collect="always" />
    <linearGradient
       id="linearGradient3131">
      <stop
         id="stop3133"
         style="stop-color:#ffffff;stop-opacity:1"
         offset="0" />
      <stop
         id="stop3135"
         style="stop-color:#ffffff;stop-opacity:1;"
         offset="1" />
    </linearGradient>
    <linearGradient
       y2="125.39074"
       x2="26.256771"
       y1="144.11652"
       x1="28.739122"
       gradientTransform="matrix(0.2545239,0,0,0.128756,5.8478384,-14.983809)"
       gradientUnits="userSpaceOnUse"
       id="linearGradient3144"
       xlink:href="#linearGradient2372-7-3-0"
       inkscape:collect="always" />
    <linearGradient
       x1="22.004084"
       y1="47.813133"
       x2="22.004084"
       y2="3.3638515"
       id="linearGradient3592"
       xlink:href="#linearGradient3104-0"
       gradientUnits="userSpaceOnUse"
       gradientTransform="translate(-1.982096,-3.0470736)" />
    <linearGradient
       id="linearGradient3104-0">
      <stop
         id="stop3106-2"
         style="stop-color:#aaaaaa;stop-opacity:1"
         offset="0" />
      <stop
         id="stop3108-8"
         style="stop-color:#c8c8c8;stop-opacity:1"
         offset="1" />
    </linearGradient>
    <radialGradient
       cx="22.90196"
       cy="45.866665"
       r="7.9058824"
       fx="22.90196"
       fy="45.866665"
       id="radialGradient3009"
       xlink:href="#linearGradient5670-612-8"
       gradientUnits="userSpaceOnUse"
       gradientTransform="matrix(0.66071885,0,0,0.3129613,-9.9031905,5.3462253)" />
    <linearGradient
       id="linearGradient5670-612-8">
      <stop
         id="stop3203-1"
         style="stop-color:#000000;stop-opacity:1"
         offset="0" />
      <stop
         id="stop3205-0"
         style="stop-color:#000000;stop-opacity:0"
         offset="1" />
    </linearGradient>
    <radialGradient
       r="7.9058824"
       fy="45.866665"
       fx="22.90196"
       cy="45.866665"
       cx="22.90196"
       gradientTransform="matrix(2.6905201,0,0,1.274413,6.8137025,61.686688)"
       gradientUnits="userSpaceOnUse"
       id="radialGradient3044"
       xlink:href="#linearGradient5670-612-8"
       inkscape:collect="always" />
    <radialGradient
       cx="22.90196"
       cy="45.866665"
       r="7.9058824"
       fx="22.90196"
       fy="45.866665"
       id="radialGradient3665"
       xlink:href="#linearGradient5670-612-8-6"
       gradientUnits="userSpaceOnUse"
       gradientTransform="matrix(0.66071885,0,0,0.37620527,0.6446799,0.71976918)" />
    <linearGradient
       id="linearGradient5670-612-8-6">
      <stop
         id="stop3203-1-5"
         style="stop-color:#000000;stop-opacity:1"
         offset="0" />
      <stop
         id="stop3205-0-2"
         style="stop-color:#000000;stop-opacity:0"
         offset="1" />
    </linearGradient>
    <radialGradient
       r="7.9058824"
       fy="45.866665"
       fx="22.90196"
       cy="45.866665"
       cx="22.90196"
       gradientTransform="matrix(2.4048102,0,0,1.3692697,49.809183,52.400156)"
       gradientUnits="userSpaceOnUse"
       id="radialGradient3061"
       xlink:href="#linearGradient5670-612-8-6"
       inkscape:collect="always" />
  </defs>
  <g
     transform="matrix(1.0408163,0,0,0.6302428,-9.571427,43.690218)"
     id="g2478">
    <rect
       width="83.299995"
       height="9.5201406"
       x="21.349998"
       y="113.14653"
       id="rect2879"
       style="opacity:0.3;fill:url(#linearGradient2483);fill-opacity:1;fill-rule:nonzero;stroke:none;stroke-width:1;marker:none;visibility:visible;display:inline;overflow:visible" />
    <path
       d="m 21.35,113.14694 c 0,0 0,9.51962 0,9.51962 -3.040314,0.0179 -7.35,-2.13287 -7.35,-4.76043 0,-2.62755 3.392762,-4.75919 7.35,-4.75919 z"
       id="path2881"
       style="opacity:0.3;fill:url(#radialGradient2485);fill-opacity:1;fill-rule:nonzero;stroke:none;stroke-width:1;marker:none;visibility:visible;display:inline;overflow:visible"
       inkscape:connector-curvature="0" />
    <path
       d="m 104.64999,113.14694 c 0,0 0,9.51962 0,9.51962 3.04032,0.0179 7.35001,-2.13287 7.35001,-4.76043 0,-2.62755 -3.39277,-4.75919 -7.35001,-4.75919 z"
       id="path2883"
       style="opacity:0.3;fill:url(#radialGradient2487);fill-opacity:1;fill-rule:nonzero;stroke:none;stroke-width:1;marker:none;visibility:visible;display:inline;overflow:visible"
       inkscape:connector-curvature="0" />
  </g>
  <path
     d="m 11.499961,1.499962 c 21.311039,0 42.622077,0 63.933118,0 3.738416,1.2619859 23.822451,15.639336 29.066961,25.594247 0,30.468614 0,60.937223 0,91.405831 -31.000026,0 -62.000051,0 -93.000079,0 0,-39.000023 0,-78.000052 0,-117.000078 z"
     id="path4160"
     style="fill:url(#linearGradient2465);fill-opacity:1;stroke:url(#linearGradient2467);stroke-width:0.99992192;stroke-linecap:butt;stroke-linejoin:round;stroke-miterlimit:4;stroke-opacity:1;stroke-dasharray:none;stroke-dashoffset:0;display:inline"
     inkscape:connector-curvature="0" />
  <path
     d="M 12.978723,118 C 12.439449,118 12,117.52697 12,116.94648 L 12,3.1668773 C 12,2.5853392 12.439449,2.1133645 12.978723,2.1133645 33.22709,2.4045657 55.66587,1.6777678 75.889633,2.1858707 L 103.71323,26.088148 104,116.94648 C 104,117.52697 103.56154,118 103.02128,118 l -90.042557,0 z"
     id="path4191"
     style="fill:url(#radialGradient2462);fill-opacity:1"
     inkscape:connector-curvature="0" />
  <path
     d="m 103.50003,26.517935 c 0,29.94778 0,61.034321 0,90.982105 -30.333353,0 -60.666712,0 -91.00007,0 0,-38.333364 0,-76.666721 0,-115.0000784 20.852737,0 42.202796,0 63.055535,0"
     id="path2435"
     style="opacity:0.6;fill:none;stroke:url(#linearGradient2459);stroke-width:0.99992174;stroke-linecap:butt;stroke-linejoin:round;stroke-miterlimit:4;stroke-opacity:1;stroke-dasharray:none;stroke-dashoffset:0;display:inline"
     inkscape:connector-curvature="0" />
  <path
     d="m 65.923062,1.8392376 c 13.028319,0 6.550632,25.8075654 6.550632,25.8075654 0,0 31.510096,-7.189527 31.510096,5.562422 0,0 0.0719,-6.058359 0.0719,-6.058359 C 97.32475,20.41989 83.06065,7.2507492 73.88133,2.2376883 c 0,0 -7.958268,-0.3984507 -7.958268,-0.3984507 l 0,0 z"
     id="path3232"
     style="opacity:0.05;fill:#000000;fill-opacity:1;fill-rule:evenodd;stroke:none;display:inline"
     sodipodi:nodetypes="cccsscc"
     inkscape:connector-curvature="0" />
  <path
     d="m 76.363409,24.461028 c 0,0 27.620381,-4.806258 27.620381,7.516652 0,-6.959262 -15.550874,-26.4251987 -33.362381,-30.1384424 8.65892,3.314504 7.482419,14.4187274 5.742,22.6217904 z"
     id="path12038"
     style="opacity:0.15;fill:#000000;fill-opacity:1;fill-rule:evenodd;stroke:none;display:inline"
     sodipodi:nodetypes="cscc"
     inkscape:connector-curvature="0" />
  <path
     inkscape:connector-curvature="0"
     d="m 17.5,15.09988 7.110287,0 z m 8.153128,0 6.636268,0 z m 7.679111,0 5.877835,0 z m 6.825874,0 2.559703,0 z m 3.602545,0 5.688229,0 z m 6.825875,0 14.979003,0 z m 15.927042,0 11.471264,0 z m 12.419304,0 3.507733,0 z M 17.5,21.099888 l 11.092046,0 z m 12.324497,0 5.309013,0 z m 6.257052,0 2.654507,0 z m 3.697349,0 4.834994,0 z m 5.877836,0 4.929799,0 z m 5.877838,0 7.868716,0 z m 8.911559,0 10.238812,0 z m 11.186851,0 6.825878,0 z m 7.773918,0 1.706469,0 z M 17.5,27.052485 l 9.385578,0 z m 10.333616,0 15.358219,0 z m 16.306257,0 7.489502,0 z m 8.437542,0 7.015481,0 z m 7.96352,0 5.97264,0 z m 6.920679,0 9.385582,0.09482 z m 10.238817,0.09482 15.263417,0 z M 17.5,33.099902 l 13.23807,0 z m 15.030749,0 11.031615,0 z m 12.479545,0 7.592992,0 z m 9.040922,0 10.928218,0 z m 13.031182,0 9.006358,0 z m 11.048989,0 18.349343,0 z M 17.5,39.09991 l 4.834995,0 z m 6.351857,0 17.917921,0 z M 17.5,51.052508 l 9.385578,0 z m 10.333616,0 15.358219,0 z m 16.306257,0 7.489502,0 z m 8.437542,0 7.015481,0 z m 7.96352,0 5.97264,0 z m 6.920679,0 9.385582,0.09483 z m 10.238817,0.09483 15.263417,0 z M 17.5,57.099931 l 7.110287,0 z m 8.153128,0 6.541465,0 z m 7.679111,0 5.877835,0 z m 6.825874,0 2.559703,0 z m 3.602545,0 5.688229,0 z m 6.825875,0 14.884201,0 z m 15.927042,0 11.376457,0 z m 12.324498,0 3.602539,0 z m 4.550579,0 8.532345,0 z M 17.5,63.099937 l 11.945281,0 z m 12.89332,0 12.798515,0 z m 13.746553,0 4.929799,0 z m 5.877837,0 12.040085,0 z m 12.988125,0 15.168603,0 z m 16.211451,0 5.593428,0 z M 17.5,69.099944 l 12.988124,0 z m 14.030965,0 14.030966,0 z m 14.979004,0 5.593425,0 z m 6.541464,0 13.17773,0 z m 14.030965,0 9.006358,0 z m 10.049205,0 3.60254,0 z m 4.55058,0 1.99089,0 z m 3.033725,0 5.593428,0 z M 17.5,75.099951 l 11.092046,0 z m 12.324497,0 5.309013,0 z m 6.257052,0 2.654507,0 z m 3.697349,0 4.834994,0 z m 5.877836,0 4.929799,0 z m 5.877838,0 7.868716,0 z m 8.911559,0 10.238812,0 z m 11.186851,0 6.825878,0 z m 7.773918,0 1.706469,0 z M 17.5,87.099966 l 9.385578,0 z m 11.083453,0 14.608382,0 z m 16.306258,0 21.236522,0 z m 22.571903,-0.04742 9.385582,0.09484 z m 10.238817,0.09484 15.263417,0 z M 17.5,94.099974 l 11.092046,0 z m 12.324497,0 5.309013,0 z m 6.257052,0 2.654507,0 z m 3.697349,0 4.834994,0 z m 5.877836,0 4.929799,0 z m 5.877838,0 7.868716,0 z m 8.911559,0 10.238812,0 z m 11.186851,0 6.825878,0 z m 7.773918,0 1.706469,0 z M 17.5,100.09999 l 11.755674,0 z m 12.798516,0 3.697349,0 z m 4.645387,0 8.437539,0 z m 9.385578,0 12.419302,0 z m 13.462143,0 8.437539,0 z m 9.290774,0 1.801273,0 z m 2.74931,0 10.712834,0 z m 11.850475,0 5.593428,0 z M 17.5,106.1 l 11.755674,0 z m 12.798516,0 5.309013,0 z m 6.257052,0 8.342736,0 z m 9.290774,0 9.006362,0 z m 10.049205,0 3.602546,0 z m 4.550584,0 1.99088,0 z m 3.033721,0 5.593426,0 z"
     id="path3475"
     style="fill:none;stroke:#c5c5c5;stroke-width:1;stroke-linecap:butt;stroke-linejoin:miter;stroke-miterlimit:4;stroke-opacity:1;stroke-dasharray:none;stroke-dashoffset:0.20000000000000001;marker-start:none"
     sodipodi:nodetypes="cccccccccccccccccccccccccccccccccccccccccccccccccccccccccccccccccccccccccccccccccccccccccccccccccccccccccccccccccccccccccccccccccccccccccccccccccccccccccccccccccccccccccccccccccccccccccccccccccccccccccccccccccccccccccccccccccccccccccccccccccccccccccccccccccccccccccccccccccccccccccccccccccccccccccccc" />
  <path
     inkscape:connector-curvature="0"
     d="m 89.702818,120.13982 a 21.270937,10.07537 0 0 1 -42.541867,0 21.270937,10.07537 0 1 1 42.541867,0 z"
     id="path4121"
     style="opacity:0.6;fill:url(#radialGradient3044);fill-opacity:1;stroke:none" />
  <path
     inkscape:connector-curvature="0"
     d="m 123.89618,115.20403 a 19.012147,10.825296 0 0 1 -38.02429,0 19.012147,10.825296 0 1 1 38.02429,0 z"
     id="path3663"
     style="opacity:0.6;fill:url(#radialGradient3061);fill-opacity:1;stroke:none" />
  <g
     transform="matrix(5.5797723,0,0,5.5797723,47.368757,39.844814)"
     id="layer1-8-2">
    <path
       inkscape:connector-curvature="0"
       d="M 12.887143,11.242639 12.520463,8.2875931"
       id="path2931-1"
       style="fill:none;stroke:none" />
    <path
       inkscape:connector-curvature="0"
       d="M 12.862181,0.50107998 C 10.505078,0.88091513 7.3505507,1.2719259 5,1.6729744 4.3775618,1.9766657 4.5174948,2.758676 4.4899572,3.3260967 c 0,2.5319424 0,5.0638848 0,7.5958273 -1.3117262,-0.246608 -2.9113558,0.837273 -2.9807337,2.553424 -0.1132522,1.068438 0.8342068,1.998453 1.8644819,2.023461 1.844664,0.04478 3.1062853,-1.179076 3.1262946,-2.726857 -0.020145,-2.599408 0.00566,-5.1998384 0,-7.7996448 0.2855763,-0.02115 4.61103,-0.8465037 5,-0.901457 0,1.9471472 0,3.8942945 0,5.8414417 -1.146387,-0.2746364 -2.6118971,0.4787211 -2.9752697,2.0172541 -0.15337,0.862385 0.1364969,1.944831 1.0115464,2.309984 1.7082373,0.784936 4.0532683,-0.805037 3.9579313,-2.671065 -0.02646,-3.4661732 0.02169,-6.933764 0,-10.4003066 -0.04486,-0.32575865 -0.265607,-0.69059252 -0.632027,-0.66707842 l 0,0 z"
       id="path4031-7"
       style="fill:#a0e500;fill-opacity:1;stroke:#508238;stroke-width:0.5;stroke-linecap:round;stroke-linejoin:round;stroke-miterlimit:4;stroke-opacity:1;stroke-dasharray:none" />
    <path
       inkscape:connector-curvature="0"
       d="m 5.9735639,12.865117 c -1.897e-4,0.998069 -0.8929531,1.956631 -1.9941666,2.14114 -1.1012135,0.18451 -1.993976,-0.474885 -1.9941648,-1.47289 1.897e-4,-0.998069 0.8929531,-1.956631 1.9941666,-2.14114 1.1012135,-0.18451 1.993976,0.474885 1.9941648,1.47289 l 0,0 z"
       id="path2937-8"
       style="fill:url(#radialGradient3538-3-7);fill-opacity:1;stroke:none" />
    <path
       inkscape:connector-curvature="0"
       d="m 12.937933,11.82841 c -4.9e-5,0.982486 -0.876694,1.926163 -1.958074,2.107797 -1.08138,0.181633 -1.9580252,-0.467554 -1.9580741,-1.450023 -4.89e-5,-0.982532 0.8766251,-1.926313 1.9580741,-2.107958 1.081449,-0.181645 1.958123,0.467635 1.958074,1.450184 l 0,0 z"
       id="path2941-5"
       style="fill:url(#radialGradient3540-4-2);fill-opacity:1;stroke:none" />
    <path
       d="M 4.7691019,11.334081 4.715415,2.6516444 c 0,0 0.05877,-0.6637646 0.4947159,-0.6657879 0.1546126,-0.027048 6.9317151,-1.15654737 6.9317151,-1.15654737 0,0 0.132983,0.70947367 -6.0694897,1.62965477 -0.516931,0.077068 -0.76544,0.068481 -0.7627163,0.5583664 0.00735,1.3216244 -0.030358,3.795953 -0.030358,8.6082557 0,0.03443 -0.3254384,-0.243938 -0.5101806,-0.291505 l 5e-7,0 z"
       id="path2945-7"
       style="opacity:0.4;fill:url(#linearGradient4052);fill-opacity:1;fill-rule:evenodd;stroke:none"
       inkscape:connector-curvature="0" />
    <path
       d="m 11.762846,10.461072 0.03393,-6.5590208 c 0.357493,-0.0323 0.05489,-0.00519 0.53695,-0.053577 0.0066,1.2251582 2.74e-4,2.2420961 2.74e-4,6.8691938 0,0.03443 -0.199425,-0.209029 -0.571151,-0.256596 l -3e-6,0 z"
       id="path2947-4"
       style="opacity:0.4;fill:url(#linearGradient3144);fill-opacity:1;fill-rule:evenodd;stroke:none"
       inkscape:connector-curvature="0" />
  </g>
  <path
     d="m 68.395876,1.8392376 c 12.181867,0 6.125037,24.1308414 6.125037,24.1308414 0,0 29.462877,-5.640524 29.462877,6.140541 C 105.54407,22.058999 77.996871,-1.2887721 68.395876,1.8392376 l 0,0 z"
     id="path3230"
     style="opacity:0.1;fill:#000000;fill-opacity:1;fill-rule:evenodd;stroke:none;display:inline"
     sodipodi:nodetypes="ccccc"
     inkscape:connector-curvature="0" />
  <path
     d="m 70.62141,1.8392376 c 8.497314,0 6.228693,20.4316764 6.228693,20.4316764 0,0 27.133687,-2.616144 27.133687,9.706766 0,-3.002504 0.2291,-5.152653 -0.35674,-6.089581 C 99.41822,19.156956 81.239007,4.052365 74.67425,2.0726634 74.182991,1.9245177 73.093706,1.8392376 70.62141,1.8392376 z"
     id="path4474"
     style="fill:url(#linearGradient2455);fill-opacity:1;fill-rule:evenodd;stroke:none;display:inline"
     inkscape:connector-curvature="0" />
</svg>
