<?xml version="1.0" encoding="UTF-8" standalone="no"?>
<!-- Created with Inkscape (http://www.inkscape.org/) -->

<svg
   xmlns:dc="http://purl.org/dc/elements/1.1/"
   xmlns:cc="http://creativecommons.org/ns#"
   xmlns:rdf="http://www.w3.org/1999/02/22-rdf-syntax-ns#"
   xmlns:svg="http://www.w3.org/2000/svg"
   xmlns="http://www.w3.org/2000/svg"
   xmlns:xlink="http://www.w3.org/1999/xlink"
   xmlns:sodipodi="http://sodipodi.sourceforge.net/DTD/sodipodi-0.dtd"
   xmlns:inkscape="http://www.inkscape.org/namespaces/inkscape"
   version="1.1"
   width="24"
   height="24"
   id="svg3299"
   inkscape:version="0.48.0 r9654"
   sodipodi:docname="media-playlist-shuffle.svg">
  <metadata
     id="metadata26">
    <rdf:RDF>
      <cc:Work
         rdf:about="">
        <dc:format>image/svg+xml</dc:format>
        <dc:type
           rdf:resource="http://purl.org/dc/dcmitype/StillImage" />
      </cc:Work>
    </rdf:RDF>
  </metadata>
  <sodipodi:namedview
     pagecolor="#ffffff"
     bordercolor="#666666"
     borderopacity="1"
     objecttolerance="10"
     gridtolerance="10"
     guidetolerance="10"
     inkscape:pageopacity="0"
     inkscape:pageshadow="2"
     inkscape:window-width="1029"
     inkscape:window-height="603"
     id="namedview24"
     showgrid="false"
     inkscape:zoom="12.125"
     inkscape:cx="1.533815"
     inkscape:cy="11.835052"
     inkscape:window-x="403"
     inkscape:window-y="4"
     inkscape:window-maximized="0"
     inkscape:current-layer="layer1" />
  <defs
     id="defs3301">
    <linearGradient
       x1="10.292191"
       y1="6.5358186"
       x2="13.401136"
       y2="12.23216"
       id="linearGradient3851"
       xlink:href="#linearGradient2782"
       gradientUnits="userSpaceOnUse"
       gradientTransform="translate(1.0558751,6.9441249)" />
    <linearGradient
       id="linearGradient2782">
      <stop
         id="stop2784"
         style="stop-color:#ffffff;stop-opacity:1"
         offset="0" />
      <stop
         id="stop2786"
         style="stop-color:#ffffff;stop-opacity:0"
         offset="1" />
    </linearGradient>
    <linearGradient
       x1="14.489702"
       y1="13.935972"
       x2="12.118379"
       y2="11.029958"
       id="linearGradient3837"
       xlink:href="#linearGradient5106"
       gradientUnits="userSpaceOnUse"
       gradientTransform="translate(0,8)" />
    <linearGradient
       id="linearGradient5106">
      <stop
         id="stop5108"
         style="stop-color:#8cab2a;stop-opacity:1;"
         offset="0" />
      <stop
         id="stop5110"
         style="stop-color:#d7e866;stop-opacity:1;"
         offset="1" />
    </linearGradient>
    <radialGradient
       cx="21.578125"
       cy="24.484375"
       r="3.171875"
       fx="21.578125"
       fy="24.484375"
       id="radialGradient3829"
       xlink:href="#linearGradient6889"
       gradientUnits="userSpaceOnUse"
       gradientTransform="matrix(0.6999904,0,0,1.5806384,-4.449781,-18.712017)" />
    <linearGradient
       id="linearGradient6889">
      <stop
         id="stop6891"
         style="stop-color:#000000;stop-opacity:1"
         offset="0" />
      <stop
         id="stop6893"
         style="stop-color:#000000;stop-opacity:0"
         offset="1" />
    </linearGradient>
    <linearGradient
       x1="4.9356742"
       y1="7"
       x2="4.2340817"
       y2="9.5285778"
       id="linearGradient4278"
       xlink:href="#linearGradient2782"
       gradientUnits="userSpaceOnUse"
       gradientTransform="translate(0.99986,7.00014)" />
    <linearGradient
       x1="9.6018667"
       y1="18.671883"
       x2="13.657255"
       y2="12.929665"
       id="linearGradient3297"
       xlink:href="#linearGradient5106"
       gradientUnits="userSpaceOnUse"
       gradientTransform="translate(0,8)" />
    <linearGradient
       inkscape:collect="always"
       xlink:href="#linearGradient5106"
       id="linearGradient3771"
       gradientUnits="userSpaceOnUse"
       gradientTransform="translate(0,8)"
       x1="15.067021"
       y1="13.193705"
       x2="13.767863"
       y2="11.442328" />
    <linearGradient
       inkscape:collect="always"
       xlink:href="#linearGradient5106"
       id="linearGradient3773"
       gradientUnits="userSpaceOnUse"
       gradientTransform="translate(0,8)"
       x1="12.076094"
       y1="18.424459"
       x2="12.420142"
       y2="15.733788" />
  </defs>
  <g
     transform="translate(0,-8)"
     id="layer1">
    <path
       d="m 18.500093,28.49986 0,-1.99986 -2.000046,0 c -1.485535,0 -3.97294,-0.765121 -5.178163,-1.851647 C 10.116661,23.56184 9.2000369,21.937201 9.2000369,20 c 0,-2.362985 -2.2024814,-3.5 -3.9250673,-3.5 -2.3298355,0 -3.1499578,0 -3.1499578,0 l -1.3999814,0 0,-3 1.3999814,0 c 0,0 0.8201223,0 3.1499578,0 C 8.4523181,13.5 12,16.310669 12,20 c 0,1.03775 0.483358,1.896661 1.203109,2.545528 C 13.92286,23.194392 15.885609,23.5 16.500047,23.5 l 2.000046,0 0,-2 4.99986,3.458243 z"
       id="path6793"
       style="fill:url(#linearGradient3773);fill-opacity:1;fill-rule:evenodd;stroke:#548820;stroke-width:0.75;stroke-linecap:square;stroke-linejoin:round;stroke-miterlimit:4;stroke-opacity:1;stroke-dasharray:none;display:inline"
       inkscape:connector-curvature="0"
       sodipodi:nodetypes="ccssssccccsssscccc" />
    <path
       d="m 18.500093,11.50014 0,1.99986 -2.000046,0 c -1.485535,0 -3.97294,0.76511 -5.178163,1.851635 C 10.116661,16.438159 9.2000369,18.062798 9.2000369,20 c 0,2.362985 -2.2024814,3.5 -3.9250673,3.5 -2.3298355,0 -3.1499578,0 -3.1499578,0 l -1.3999814,0 0,3 1.3999814,0 c 0,0 0.8201223,0 3.1499578,0 C 8.4523181,26.5 12,23.68933 12,20 12,18.96225 12.483358,18.103337 13.203109,17.454471 13.92286,16.805607 15.885609,16.5 16.500047,16.5 l 2.000046,0 0,2 4.99986,-3.5 z"
       id="path6784"
       style="fill:url(#linearGradient3771);fill-opacity:1;fill-rule:evenodd;stroke:#548820;stroke-width:0.75;stroke-linecap:square;stroke-linejoin:round;stroke-miterlimit:4;stroke-opacity:1;stroke-dasharray:none;display:inline"
       inkscape:connector-curvature="0"
       sodipodi:nodetypes="ccssssccccsssscccc" />
  </g>
</svg>
