/* XPM */
static char * bottom_inactive_xpm[] = {
"32 7 3 1",
" 	c None",
".	c #F2F2F2",
"+	c #DBDBDB",
"................................",
"................................",
"................................",
"................................",
"................................",
"................................",
"++++++++++++++++++++++++++++++++"};
