/* XPM */
static char * bottom_left_inactive_xpm[] = {
"16 16 14 1",
" 	c None",
".	c #D0D0D0",
"+	c #F2F2F2",
"@	c #D1D1D1",
"#	c #D2D2D2",
"$	c #D3D3D3",
"%	c #D4D4D4",
"&	c #D5D5D5",
"*	c #D6D6D6",
"=	c #D7D7D7",
"-	c #D8D8D8",
";	c #D9D9D9",
">	c #DADADA",
",	c #DBDBDA",
".+++++++++++++++",
".+++++++++++++++",
"@+++++++++++++++",
"#+++++++++++++++",
"$+++++++++++++++",
"%+++++++++++++++",
"&+++++++++++++++",
"&+++++++++++++++",
"*+++++++++++++++",
"=+++++++++++++++",
"-+++++++++++++++",
";+++++++++++++++",
">+++++++++++++++",
",+++++++++++++++",
" ;++++++++++++++",
"  ;;;;;;;;;;;;;;"};
