/* XPM */
static char * close_prelight_xpm[] = {
"25 25 41 1",
" 	c None",
".	c #9D9D9D",
"+	c #8D8D8D",
"@	c #898989",
"#	c #868686",
"$	c #818181",
"%	c #7D7D7D",
"&	c #797979",
"*	c #757575",
"=	c #828282",
"-	c #727272",
";	c #7F7F7F",
">	c #6F6F6F",
",	c #FFFFFF",
"'	c #989898",
")	c #6C6C6C",
"!	c #7A7A7A",
"~	c #969696",
"{	c #696969",
"]	c #777777",
"^	c #949494",
"/	c #676767",
"(	c #939393",
"_	c #646464",
":	c #737373",
"<	c #909090",
"[	c #616161",
"}	c #707070",
"|	c #8E8E8E",
"1	c #5F5F5F",
"2	c #6E6E6E",
"3	c #5E5E5E",
"4	c #6D6D6D",
"5	c #8C8C8C",
"6	c #5D5D5D",
"7	c #5B5B5B",
"8	c #6B6B6B",
"9	c #5A5A5A",
"0	c #6A6A6A",
"a	c #585858",
"b	c #575757",
".........................",
"+++++++++++++++++++++++++",
"@@@@@@@@@@@@@@@@@@@@@@@@@",
"#########################",
"$$$$$$$$$$$$$$$$$$$$$$$$$",
"%%%%%%%%%%%%%%%%%%%%%%%%%",
"&&&&&&&&&&&&&&&&&&&&&&&&&",
"*******===*****===*******",
"------;;;;;;-;;;;;;------",
">>>>>>%%,,'%%%',,%%>>>>>>",
"))))))!!,,,~!~,,,!!))))))",
"{{{{{{{]^,,,^,,,^]{{{{{{{",
"///////**(,,,,,(**///////",
"_________:<,,,<:_________",
"[[[[[[[}}|,,,,,|}[[[[[[[[",
"11111122+,,,+,,,+21111111",
"33333344,,,545,,,43333333",
"6666666),,5)6)5,,))666666",
"7777778888887888888777777",
"9999999000999900009999999",
"aaaaaaaaaaaaaaaaaaaaaaaaa",
"bbbbbbbbbbbbbbbbbbbbbbbbb",
"bbbbbbbbbbbbbbbbbbbbbbbbb",
"bbbbbbbbbbbbbbbbbbbbbbbbb",
"bbbbbbbbbbbbbbbbbbbbbbbbb"};
