/* XPM */
static char * maximize_toggled_prelight_xpm[] = {
"24 25 57 1",
" 	c None",
".	c #9D9D9D",
"+	c #8D8D8D",
"@	c #898989",
"#	c #868686",
"$	c #818181",
"%	c #7D7D7D",
"&	c #797979",
"*	c #7F7F7F",
"=	c #757575",
"-	c #7B7B7B",
";	c #989898",
">	c #AEAEAE",
",	c #727272",
"'	c #787878",
")	c #8C8C8C",
"!	c #ACACAC",
"~	c #EFEFEF",
"{	c #6F6F6F",
"]	c #848484",
"^	c #ABABAB",
"/	c #FFFFFF",
"(	c #6C6C6C",
"_	c #878787",
":	c #A9A9A9",
"<	c #696969",
"[	c #707070",
"}	c #909090",
"|	c #A7A7A7",
"1	c #DFDFDF",
"2	c #676767",
"3	c #6E6E6E",
"4	c #A6A6A6",
"5	c #EEEEEE",
"6	c #646464",
"7	c #6B6B6B",
"8	c #A4A4A4",
"9	c #616161",
"0	c #686868",
"a	c #8A8A8A",
"b	c #A3A3A3",
"c	c #DEDEDE",
"d	c #5F5F5F",
"e	c #666666",
"f	c #7C7C7C",
"g	c #A1A1A1",
"h	c #5E5E5E",
"i	c #656565",
"j	c #5D5D5D",
"k	c #A0A0A0",
"l	c #EDEDED",
"m	c #5B5B5B",
"n	c #626262",
"o	c #9F9F9F",
"p	c #5A5A5A",
"q	c #585858",
"r	c #575757",
"........................",
"++++++++++++++++++++++++",
"@@@@@@@@@@@@@@@@@@@@@@@@",
"########################",
"$$$$$$$$$$$$$$$$$$$$$$$$",
"%%%%%%%%%%%%%%%%%%%%%%%%",
"&&&&&&&&&******&&&&&&&&&",
"=========-;>>;-=========",
",,,,,,,,')!~~!)',,,,,,,,",
"{{{{{{{=]@^//^@]={{{{{{{",
"(((((,,___://:___,,(((((",
"<<<<<[}|||1//1|||}[<<<<<",
"22222345////////54322222",
"66666785////////58766666",
"999990abbbc//cbbba099999",
"dddddeefffg//gfffeeddddd",
"hhhhhhhi=-g//g-=ihhhhhhh",
"jjjjjjjj6-kllk-6jjjjjjjj",
"mmmmmmmmmn#oo#nmmmmmmmmm",
"ppppppppp999999ppppppppp",
"qqqqqqqqqqqqqqqqqqqqqqqq",
"rrrrrrrrrrrrrrrrrrrrrrrr",
"rrrrrrrrrrrrrrrrrrrrrrrr",
"rrrrrrrrrrrrrrrrrrrrrrrr",
"rrrrrrrrrrrrrrrrrrrrrrrr"};
