/* XPM */
static char * maximize_inactive_xpm[] = {
"24 25 28 1",
" 	c None",
".	c #9D9D9D",
"+	c #8D8D8D",
"@	c #898989",
"#	c #868686",
"$	c #818181",
"%	c #7D7D7D",
"&	c #797979",
"*	c #757575",
"=	c #727272",
"-	c #6F6F6F",
";	c #8E8E8E",
">	c #6C6C6C",
",	c #8C8C8C",
"'	c #696969",
")	c #676767",
"!	c #888888",
"~	c #646464",
"{	c #616161",
"]	c #838383",
"^	c #5F5F5F",
"/	c #828282",
"(	c #5E5E5E",
"_	c #5D5D5D",
":	c #5B5B5B",
"<	c #5A5A5A",
"[	c #585858",
"}	c #575757",
"........................",
"++++++++++++++++++++++++",
"@@@@@@@@@@@@@@@@@@@@@@@@",
"########################",
"$$$$$$$$$$$$$$$$$$$$$$$$",
"%%%%%%%%%%%%%%%%%%%%%%%%",
"&&&&&&&&&&&&&&&&&&&&&&&&",
"************************",
"========================",
"-----------;;-----------",
">>>>>>>>>>>,,>>>>>>>>>>>",
"'''''''''''@@'''''''''''",
"))))))))!!!!!!!!))))))))",
"~~~~~~~~########~~~~~~~~",
"{{{{{{{{{{{]]{{{{{{{{{{{",
"^^^^^^^^^^^//^^^^^^^^^^^",
"((((((((((($$(((((((((((",
"________________________",
"::::::::::::::::::::::::",
"<<<<<<<<<<<<<<<<<<<<<<<<",
"[[[[[[[[[[[[[[[[[[[[[[[[",
"}}}}}}}}}}}}}}}}}}}}}}}}",
"}}}}}}}}}}}}}}}}}}}}}}}}",
"}}}}}}}}}}}}}}}}}}}}}}}}",
"}}}}}}}}}}}}}}}}}}}}}}}}"};
