/* XPM */
static char * maximize_active_xpm[] = {
"24 25 30 1",
" 	c None",
".	c #9D9D9D",
"+	c #8D8D8D",
"@	c #898989",
"#	c #868686",
"$	c #818181",
"%	c #7D7D7D",
"&	c #797979",
"*	c #757575",
"=	c #727272",
"-	c #969696",
";	c #6F6F6F",
">	c #DBDBDB",
",	c #6C6C6C",
"'	c #696969",
")	c #8F8F8F",
"!	c #676767",
"~	c #8E8E8E",
"{	c #646464",
"]	c #8C8C8C",
"^	c #616161",
"/	c #8A8A8A",
"(	c #5F5F5F",
"_	c #5E5E5E",
":	c #5D5D5D",
"<	c #878787",
"[	c #5B5B5B",
"}	c #5A5A5A",
"|	c #585858",
"1	c #575757",
"........................",
"++++++++++++++++++++++++",
"@@@@@@@@@@@@@@@@@@@@@@@@",
"########################",
"$$$$$$$$$$$$$$$$$$$$$$$$",
"%%%%%%%%%%%%%%%%%%%%%%%%",
"&&&&&&&&&&&&&&&&&&&&&&&&",
"************************",
"===========--===========",
";;;;;;;;;;;>>;;;;;;;;;;;",
",,,,,,,,,,,>>,,,,,,,,,,,",
"'''''''''')>>)''''''''''",
"!!!!!!!~>>>>>>>>~!!!!!!!",
"{{{{{{{]>>>>>>>>]{{{{{{{",
"^^^^^^^^^^/>>/^^^^^^^^^^",
"(((((((((((>>(((((((((((",
"___________>>___________",
":::::::::::<<:::::::::::",
"[[[[[[[[[[[[[[[[[[[[[[[[",
"}}}}}}}}}}}}}}}}}}}}}}}}",
"||||||||||||||||||||||||",
"111111111111111111111111",
"111111111111111111111111",
"111111111111111111111111",
"111111111111111111111111"};
