/* XPM */
static char * maximize_toggled_active_xpm[] = {
"24 25 52 1",
" 	c None",
".	c #9D9D9D",
"+	c #8D8D8D",
"@	c #898989",
"#	c #868686",
"$	c #818181",
"%	c #7D7D7D",
"&	c #797979",
"*	c #7F7F7F",
"=	c #757575",
"-	c #7B7B7B",
";	c #878787",
">	c #A0A0A0",
",	c #727272",
"'	c #787878",
")	c #9E9E9E",
"!	c #EFEFEF",
"~	c #6F6F6F",
"{	c #FFFFFF",
"]	c #6C6C6C",
"^	c #9A9A9A",
"/	c #696969",
"(	c #707070",
"_	c #989898",
":	c #DADADA",
"<	c #676767",
"[	c #6E6E6E",
"}	c #979797",
"|	c #EEEEEE",
"1	c #646464",
"2	c #6B6B6B",
"3	c #959595",
"4	c #616161",
"5	c #686868",
"6	c #767676",
"7	c #939393",
"8	c #D9D9D9",
"9	c #5F5F5F",
"0	c #666666",
"a	c #919191",
"b	c #5E5E5E",
"c	c #656565",
"d	c #5D5D5D",
"e	c #909090",
"f	c #EDEDED",
"g	c #5B5B5B",
"h	c #626262",
"i	c #717171",
"j	c #8F8F8F",
"k	c #5A5A5A",
"l	c #585858",
"m	c #575757",
"........................",
"++++++++++++++++++++++++",
"@@@@@@@@@@@@@@@@@@@@@@@@",
"########################",
"$$$$$$$$$$$$$$$$$$$$$$$$",
"%%%%%%%%%%%%%%%%%%%%%%%%",
"&&&&&&&&&******&&&&&&&&&",
"=========-;>>;-=========",
",,,,,,,,,')!!)',,,,,,,,,",
"~~~~~~~~~=.{{.=~~~~~~~~~",
"]]]]],,,,,^{{^,,,,,]]]]]",
"/////(%___:{{:___%(/////",
"<<<<<[}|{{{{{{{{|}[<<<<<",
"1111123|{{{{{{{{|3211111",
"44444567778{{87776544444",
"9999900000a{{a0000099999",
"bbbbbbbbbca{{acbbbbbbbbb",
"ddddddddd1effe1ddddddddd",
"ggggggggghijjihggggggggg",
"kkkkkkkkk444444kkkkkkkkk",
"llllllllllllllllllllllll",
"mmmmmmmmmmmmmmmmmmmmmmmm",
"mmmmmmmmmmmmmmmmmmmmmmmm",
"mmmmmmmmmmmmmmmmmmmmmmmm",
"mmmmmmmmmmmmmmmmmmmmmmmm"};
