/* XPM */
static char * shade_toggled_active_xpm[] = {
"24 25 65 1",
" 	c None",
".	c #9D9D9D",
"+	c #8D8D8D",
"@	c #898989",
"#	c #868686",
"$	c #818181",
"%	c #7D7D7D",
"&	c #B9B9B9",
"*	c #CDCDCD",
"=	c #797979",
"-	c #9F9F9F",
";	c #E2E2E2",
">	c #E6E6E6",
",	c #DBDBDB",
"'	c #757575",
")	c #C0C0C0",
"!	c #DEDEDE",
"~	c #959595",
"{	c #969696",
"]	c #DFDFDF",
"^	c #727272",
"/	c #A8A8A8",
"(	c #D4D4D4",
"_	c #D5D5D5",
":	c #A6A6A6",
"<	c #6F6F6F",
"[	c #E4E4E4",
"}	c #E1E1E1",
"|	c #6C6C6C",
"1	c #ADADAD",
"2	c #AAAAAA",
"3	c #ABABAB",
"4	c #696969",
"5	c #DCDCDC",
"6	c #787878",
"7	c #7A7A7A",
"8	c #676767",
"9	c #646464",
"0	c #CBCBCB",
"a	c #616161",
"b	c #767676",
"c	c #C1C1C1",
"d	c #DADADA",
"e	c #5F5F5F",
"f	c #A9A9A9",
"g	c #B6B6B6",
"h	c #5E5E5E",
"i	c #606060",
"j	c #656565",
"k	c #666666",
"l	c #5D5D5D",
"m	c #A4A4A4",
"n	c #A3A3A3",
"o	c #5B5B5B",
"p	c #BDBDBD",
"q	c #919191",
"r	c #939393",
"s	c #5A5A5A",
"t	c #9A9A9A",
"u	c #E0E0E0",
"v	c #585858",
"w	c #838383",
"x	c #B4B4B4",
"y	c #CACACA",
"z	c #575757",
"........................",
"++++++++++++++++++++++++",
"@@@@@@@@@@@@@@@@@@@@@@@@",
"########################",
"$$$$$$$$$$$$$$$$$$$$$$$$",
"%%%%%%%%%+&**&+%%%%%%%%%",
"=======-;>>,,>>;-=======",
"'''''')>!~''''{]>)''''''",
"^^^^^/>(^^^^^^^^_>:^^^^^",
"<<<<<[}<<<<<<<<<<;[<<<<<",
"||||1>2||||||||||3>1||||",
"44445>64444>>44447>,4444",
"8888>>8888*>>*8888>>8888",
"9999>>9990>**>0999>>9999",
"aaaa,>bac>0aa0>ca6>daaaa",
"eeee3>fegceeeecge/>3eeee",
"hhhhi[}jhhhhhhhhk;[ihhhh",
"lllllm>(illlllla(>nlllll",
"oooooop>!qoooor]>poooooo",
"ssssssst}>>,,>>utsssssss",
"vvvvvvvvvwxyyxwvvvvvvvvv",
"zzzzzzzzzzzzzzzzzzzzzzzz",
"zzzzzzzzzzzzzzzzzzzzzzzz",
"zzzzzzzzzzzzzzzzzzzzzzzz",
"zzzzzzzzzzzzzzzzzzzzzzzz"};
