/* XPM */
static char * shade_toggled_prelight_xpm[] = {
"24 25 86 1",
" 	c None",
".	c #9D9D9D",
"+	c #8D8D8D",
"@	c #898989",
"#	c #868686",
"$	c #818181",
"%	c #7D7D7D",
"&	c #B9B9B9",
"*	c #CDCDCD",
"=	c #797979",
"-	c #9F9F9F",
";	c #E2E2E2",
">	c #E6E6E6",
",	c #E0E0E0",
"'	c #757575",
")	c #C0C0C0",
"!	c #BCBCBC",
"~	c #9C9C9C",
"{	c #969696",
"]	c #727272",
"^	c #A8A8A8",
"/	c #DDDDDD",
"(	c #A3A3A1",
"_	c #939392",
":	c #A2A2A1",
"<	c #A6A6A6",
"[	c #6F6F6F",
"}	c #E4E4E4",
"|	c #A0A0A0",
"1	c #8F8F8F",
"2	c #6C6C6C",
"3	c #ADADAD",
"4	c #C4C4C4",
"5	c #8C8C8C",
"6	c #696969",
"7	c #DCDCDC",
"8	c #A5A5A5",
"9	c #E7E7E6",
"0	c #DBDBDB",
"a	c #676767",
"b	c #969695",
"c	c #858584",
"d	c #D7D7D7",
"e	c #E7E7E7",
"f	c #646464",
"g	c #939393",
"h	c #868685",
"i	c #D5D5D4",
"j	c #D6D6D6",
"k	c #616161",
"l	c #9E9E9D",
"m	c #CECECD",
"n	c #828281",
"o	c #9F9F9E",
"p	c #DADADA",
"q	c #5F5F5F",
"r	c #ABABAB",
"s	c #BDBDBD",
"t	c #7A7A79",
"u	c #C5C5C5",
"v	c #7E7E7E",
"w	c #5E5E5E",
"x	c #606060",
"y	c #E3E3E3",
"z	c #5D5D5D",
"A	c #A4A4A4",
"B	c #D9D9D9",
"C	c #878786",
"D	c #727271",
"E	c #888887",
"F	c #A3A3A3",
"G	c #5B5B5B",
"H	c #DFDFDF",
"I	c #A7A7A7",
"J	c #777777",
"K	c #6D6D6D",
"L	c #A9A9A9",
"M	c #5A5A5A",
"N	c #9A9A9A",
"O	c #E1E1E1",
"P	c #DEDEDE",
"Q	c #585858",
"R	c #838383",
"S	c #B4B4B4",
"T	c #CACACA",
"U	c #575757",
"........................",
"++++++++++++++++++++++++",
"@@@@@@@@@@@@@@@@@@@@@@@@",
"########################",
"$$$$$$$$$$$$$$$$$$$$$$$$",
"%%%%%%%%%+&**&+%%%%%%%%%",
"=======-;>>,,>>;-=======",
"'''''')>,!~{{~!;>)''''''",
"]]]]]^>/(______:/><]]]]]",
"[[[[[}}|11111111|}}[[[[[",
"22223>455555555554>32222",
"66667>8@@@5995@@@<>06666",
"aaaa>>bcc@deed@ccb>>aaaa",
"ffff>>g$hi9jj9ih$g>>ffff",
"kkkk0>l%m9inni9m%o>pkkkk",
"qqqqr>stu*vttv*uts>rqqqq",
"wwwwx}y5''''''''+}}xwwww",
"zzzzzA>BCDDDDDDEB>Fzzzzz",
"GGGGGGs>HIJKKJL,>sGGGGGG",
"MMMMMMMNO>>PP>>,NMMMMMMM",
"QQQQQQQQQRSTTSRQQQQQQQQQ",
"UUUUUUUUUUUUUUUUUUUUUUUU",
"UUUUUUUUUUUUUUUUUUUUUUUU",
"UUUUUUUUUUUUUUUUUUUUUUUU",
"UUUUUUUUUUUUUUUUUUUUUUUU"};
