/* XPM */
static char * stick_toggled_prelight_xpm[] = {
"24 25 76 1",
" 	c None",
".	c #9D9D9D",
"+	c #8D8D8D",
"@	c #898989",
"#	c #868686",
"$	c #818181",
"%	c #7D7D7D",
"&	c #B9B9B9",
"*	c #CDCDCD",
"=	c #797979",
"-	c #9F9F9F",
";	c #E2E2E2",
">	c #E6E6E6",
",	c #DBDBDB",
"'	c #757575",
")	c #C0C0C0",
"!	c #E0E0E0",
"~	c #BCBCBC",
"{	c #9C9C9C",
"]	c #969696",
"^	c #727272",
"/	c #A8A8A8",
"(	c #DDDDDD",
"_	c #A3A3A1",
":	c #939392",
"<	c #A2A2A1",
"[	c #A6A6A6",
"}	c #6F6F6F",
"|	c #E4E4E4",
"1	c #A0A0A0",
"2	c #8F8F8F",
"3	c #6C6C6C",
"4	c #ADADAD",
"5	c #C4C4C4",
"6	c #8C8C8C",
"7	c #696969",
"8	c #DCDCDC",
"9	c #A5A5A5",
"0	c #B3B3B3",
"a	c #676767",
"b	c #969695",
"c	c #858584",
"d	c #646464",
"e	c #939393",
"f	c #616161",
"g	c #9E9E9D",
"h	c #9F9F9E",
"i	c #DADADA",
"j	c #5F5F5F",
"k	c #ABABAB",
"l	c #BDBDBD",
"m	c #7A7A79",
"n	c #5E5E5E",
"o	c #606060",
"p	c #E3E3E3",
"q	c #5D5D5D",
"r	c #A4A4A4",
"s	c #D9D9D9",
"t	c #878786",
"u	c #727271",
"v	c #888887",
"w	c #A3A3A3",
"x	c #5B5B5B",
"y	c #DFDFDF",
"z	c #A7A7A7",
"A	c #777777",
"B	c #6D6D6D",
"C	c #A9A9A9",
"D	c #5A5A5A",
"E	c #9A9A9A",
"F	c #E1E1E1",
"G	c #585858",
"H	c #838383",
"I	c #B4B4B4",
"J	c #CACACA",
"K	c #575757",
"........................",
"++++++++++++++++++++++++",
"@@@@@@@@@@@@@@@@@@@@@@@@",
"########################",
"$$$$$$$$$$$$$$$$$$$$$$$$",
"%%%%%%%%%+&**&+%%%%%%%%%",
"=======-;>>,,>>;-=======",
"'''''')>!~{]]{~;>)''''''",
"^^^^^/>(_::::::<(>[^^^^^",
"}}}}}||1222222221||}}}}}",
"33334>566666666665>43333",
"77778>9@@@0;>0@@@[>,7777",
"aaaa>>bccc>>>>cccb>>aaaa",
"dddd>>e$$$>>>>$$$e>>dddd",
"ffff,>g%%%0;>0%%%h>iffff",
"jjjjk>lmmmmmmmmmml>kjjjj",
"nnnno|p6''''''''+||onnnn",
"qqqqqr>stuuuuuuvs>wqqqqq",
"xxxxxxl>yzABBAC!>lxxxxxx",
"DDDDDDDEF>>,,>>!EDDDDDDD",
"GGGGGGGGGHIJJIHGGGGGGGGG",
"KKKKKKKKKKKKKKKKKKKKKKKK",
"KKKKKKKKKKKKKKKKKKKKKKKK",
"KKKKKKKKKKKKKKKKKKKKKKKK",
"KKKKKKKKKKKKKKKKKKKKKKKK"};
