<?xml version="1.0" encoding="UTF-8" standalone="no"?>
<!-- Created with Inkscape (http://www.inkscape.org/) -->

<svg
   xmlns:dc="http://purl.org/dc/elements/1.1/"
   xmlns:cc="http://creativecommons.org/ns#"
   xmlns:rdf="http://www.w3.org/1999/02/22-rdf-syntax-ns#"
   xmlns:svg="http://www.w3.org/2000/svg"
   xmlns="http://www.w3.org/2000/svg"
   xmlns:xlink="http://www.w3.org/1999/xlink"
   xmlns:sodipodi="http://sodipodi.sourceforge.net/DTD/sodipodi-0.dtd"
   xmlns:inkscape="http://www.inkscape.org/namespaces/inkscape"
   version="1.0"
   width="16"
   height="16"
   id="svg2557"
   inkscape:version="0.48.0 r9654"
   sodipodi:docname="audio-x-playlist.svg">
  <metadata
     id="metadata30">
    <rdf:RDF>
      <cc:Work
         rdf:about="">
        <dc:format>image/svg+xml</dc:format>
        <dc:type
           rdf:resource="http://purl.org/dc/dcmitype/StillImage" />
        <dc:title />
      </cc:Work>
    </rdf:RDF>
  </metadata>
  <sodipodi:namedview
     pagecolor="#ffffff"
     bordercolor="#666666"
     borderopacity="1"
     objecttolerance="10"
     gridtolerance="10"
     guidetolerance="10"
     inkscape:pageopacity="0"
     inkscape:pageshadow="2"
     inkscape:window-width="1050"
     inkscape:window-height="645"
     id="namedview28"
     showgrid="false"
     inkscape:zoom="15.8125"
     inkscape:cx="-3.5731225"
     inkscape:cy="8"
     inkscape:window-x="0"
     inkscape:window-y="0"
     inkscape:window-maximized="0"
     inkscape:current-layer="layer1" />
  <defs
     id="defs2559">
    <linearGradient
       id="linearGradient8589">
      <stop
         id="stop8591"
         style="stop-color:#fefefe;stop-opacity:1"
         offset="0" />
      <stop
         id="stop8593"
         style="stop-color:#cbcbcb;stop-opacity:1"
         offset="1" />
    </linearGradient>
    <linearGradient
       x1="32.892288"
       y1="8.0590115"
       x2="36.358372"
       y2="5.4565363"
       id="linearGradient2507"
       xlink:href="#linearGradient8589"
       gradientUnits="userSpaceOnUse"
       gradientTransform="matrix(0.3091956,0,0,0.3766935,0.4761461,0.1071779)" />
    <linearGradient
       id="linearGradient3211">
      <stop
         id="stop3213"
         style="stop-color:#ffffff;stop-opacity:1"
         offset="0" />
      <stop
         id="stop3215"
         style="stop-color:#ffffff;stop-opacity:0"
         offset="1" />
    </linearGradient>
    <linearGradient
       x1="24"
       y1="1.9999999"
       x2="24"
       y2="46.01725"
       id="linearGradient2511"
       xlink:href="#linearGradient3211"
       gradientUnits="userSpaceOnUse"
       gradientTransform="matrix(0.2727267,0,0,0.302325,1.4545607,0.7441991)" />
    <linearGradient
       x1="-51.786404"
       y1="50.786446"
       x2="-51.786404"
       y2="2.9062471"
       id="linearGradient2519"
       xlink:href="#linearGradient3104"
       gradientUnits="userSpaceOnUse"
       gradientTransform="matrix(0.2537858,0,0,0.3050189,19.128982,-0.6854851)" />
    <linearGradient
       id="linearGradient3600">
      <stop
         id="stop3602"
         style="stop-color:#f4f4f4;stop-opacity:1"
         offset="0" />
      <stop
         id="stop3604"
         style="stop-color:#dbdbdb;stop-opacity:1"
         offset="1" />
    </linearGradient>
    <linearGradient
       x1="25.132275"
       y1="0.98520643"
       x2="25.132275"
       y2="47.013336"
       id="linearGradient2517"
       xlink:href="#linearGradient3600"
       gradientUnits="userSpaceOnUse"
       gradientTransform="matrix(0.3142872,0,0,0.3259268,0.4571068,-0.3222465)" />
    <linearGradient
       id="linearGradient3104">
      <stop
         id="stop3106"
         style="stop-color:#aaaaaa;stop-opacity:1"
         offset="0" />
      <stop
         id="stop3108"
         style="stop-color:#c8c8c8;stop-opacity:1"
         offset="1" />
    </linearGradient>
    <linearGradient
       x1="21.982096"
       y1="28.717724"
       x2="21.982096"
       y2="7.4760718"
       id="linearGradient2553"
       xlink:href="#linearGradient3104"
       gradientUnits="userSpaceOnUse"
       gradientTransform="translate(-7.982096,-8.042067)" />
    <radialGradient
       cx="17.058823"
       cy="41.058823"
       r="5.7384715"
       fx="15.544384"
       fy="39.027378"
       id="radialGradient3538-3"
       xlink:href="#linearGradient7067-814-120-245-6"
       gradientUnits="userSpaceOnUse"
       gradientTransform="matrix(0.3766757,-0.06311262,0,0.3645139,-2.446246,-0.6906545)" />
    <linearGradient
       id="linearGradient7067-814-120-245-6">
      <stop
         id="stop3877-3"
         style="stop-color:#e7ffae;stop-opacity:1;"
         offset="0" />
      <stop
         id="stop3879-3"
         style="stop-color:#a0dd0e;stop-opacity:1;"
         offset="1" />
    </linearGradient>
    <radialGradient
       cx="17.058823"
       cy="41.058823"
       r="5.7384715"
       fx="15.970393"
       fy="39.105911"
       id="radialGradient3540-4"
       xlink:href="#linearGradient7067-814-120-245-6"
       gradientUnits="userSpaceOnUse"
       gradientTransform="matrix(0.3698584,-0.06212313,0,0.358799,4.6705097,-1.5148309)" />
    <linearGradient
       id="linearGradient3282">
      <stop
         id="stop3284"
         style="stop-color:#e7ffae;stop-opacity:1;"
         offset="0" />
      <stop
         id="stop3286"
         style="stop-color:#a0dd0e;stop-opacity:1;"
         offset="1" />
    </linearGradient>
    <linearGradient
       x1="28.739122"
       y1="144.11652"
       x2="25.400293"
       y2="119.86452"
       id="linearGradient3542-4"
       xlink:href="#linearGradient2372-7-3"
       gradientUnits="userSpaceOnUse"
       gradientTransform="matrix(0.1264953,0,0,0.128756,1.8294146,-14.19922)" />
    <linearGradient
       id="linearGradient2372-7-3">
      <stop
         id="stop2374-5-9"
         style="stop-color:#ffffff;stop-opacity:1"
         offset="0" />
      <stop
         id="stop2376-3-7"
         style="stop-color:#ffffff;stop-opacity:0.37931034"
         offset="1" />
    </linearGradient>
    <linearGradient
       y2="125.39074"
       x2="26.256771"
       y1="144.11652"
       x1="28.739122"
       gradientTransform="matrix(0.2545239,0,0,0.128756,5.8478384,-14.983809)"
       gradientUnits="userSpaceOnUse"
       id="linearGradient3130"
       xlink:href="#linearGradient2372-7-3"
       inkscape:collect="always" />
    <linearGradient
       id="linearGradient3293">
      <stop
         id="stop3295"
         style="stop-color:#ffffff;stop-opacity:1"
         offset="0" />
      <stop
         id="stop3297"
         style="stop-color:#ffffff;stop-opacity:0.37931034"
         offset="1" />
    </linearGradient>
    <linearGradient
       y2="125.39074"
       x2="26.256771"
       y1="144.11652"
       x1="28.739122"
       gradientTransform="matrix(0.2545239,0,0,0.128756,5.8478384,-14.983809)"
       gradientUnits="userSpaceOnUse"
       id="linearGradient3306"
       xlink:href="#linearGradient2372-7-3"
       inkscape:collect="always" />
    <radialGradient
       inkscape:collect="always"
       xlink:href="#linearGradient7067-814-120-245-6"
       id="radialGradient3113"
       gradientUnits="userSpaceOnUse"
       gradientTransform="matrix(0.3766757,-0.06311262,0,0.3645139,-2.446246,-0.6906545)"
       cx="17.058823"
       cy="41.058823"
       fx="15.544384"
       fy="39.027378"
       r="5.7384715" />
    <radialGradient
       inkscape:collect="always"
       xlink:href="#linearGradient7067-814-120-245-6"
       id="radialGradient3115"
       gradientUnits="userSpaceOnUse"
       gradientTransform="matrix(0.3698584,-0.06212313,0,0.358799,4.6705097,-1.5148309)"
       cx="17.058823"
       cy="41.058823"
       fx="15.970393"
       fy="39.105911"
       r="5.7384715" />
    <linearGradient
       inkscape:collect="always"
       xlink:href="#linearGradient2372-7-3"
       id="linearGradient3117"
       gradientUnits="userSpaceOnUse"
       gradientTransform="matrix(0.1264953,0,0,0.128756,1.8294146,-14.19922)"
       x1="28.739122"
       y1="144.11652"
       x2="25.400293"
       y2="119.86452" />
    <linearGradient
       inkscape:collect="always"
       xlink:href="#linearGradient3211"
       id="linearGradient3800"
       gradientUnits="userSpaceOnUse"
       gradientTransform="matrix(0.29321685,0,0,0.32503889,0.62470871,0.19906541)"
       x1="24"
       y1="1.9999999"
       x2="24"
       y2="46.01725" />
  </defs>
  <g
     id="layer1"
     transform="matrix(0.88142285,0,0,0.88142285,-1.15415,0.12648288)">
    <g
       id="g2584"
       transform="translate(-1.0203652,-0.27066126)">
      <path
         d="m 2.4999615,0.4999664 c 2.5206756,0 4.920542,0 7.44122,0 0.4421795,0.1617935 2.9385125,2.1328451 3.5588315,3.4091211 0,3.906246 2.6e-5,7.6846975 2.6e-5,11.5909465 -3.6666935,0 -7.3333849,0 -11.0000775,0 0,-5.000023 0,-10.0000465 0,-15.0000676 z"
         id="path4160"
         style="fill:url(#linearGradient2517);fill-opacity:1;stroke:#868686;stroke-width:0.34035875999999998;stroke-linecap:butt;stroke-linejoin:round;stroke-miterlimit:4;stroke-opacity:1;stroke-dasharray:none;stroke-dashoffset:0;display:inline"
         inkscape:connector-curvature="0" />
      <path
         d="m 12.5,3.9307093 c 0,3.6397455 0,7.4178947 0,11.0576417 -3.2253911,0 -6.4507833,0 -9.6761765,0 0,-4.658904 0,-9.3178017 0,-13.9767008 2.2173033,0 4.4874878,0 6.7047922,0"
         id="path2435"
         style="opacity:0.6;fill:none;stroke:url(#linearGradient3800);stroke-width:0.60988361;stroke-linecap:butt;stroke-linejoin:miter;stroke-miterlimit:4;stroke-opacity:1;stroke-dasharray:none;stroke-dashoffset:0;display:inline"
         inkscape:connector-curvature="0" />
      <path
         d="M 9.2941205,0.8409023 C 10.142028,3.6448055 9,5.0341186 9,5.0341186 c 0,0 1.892807,-1.2514061 4.171354,-0.1023041 1.942856,0.9798084 0.03608,-1.008024 -0.04146,-1.129046 C 12.586944,2.9552643 10.707454,1.1696619 10.025256,0.8725867 9.9696235,0.8483603 9.5814385,0.8409023 9.2941205,0.8409023 z"
         id="path3330"
         style="fill:#c1c1c1;fill-opacity:1;fill-rule:evenodd;stroke:none;display:inline"
         inkscape:connector-curvature="0" />
      <path
         d="M 9.2941205,0.8409023 C 10.281641,0.8409023 10,4.0219212 10,4.0219212 c 0,0 2.272472,-0.5007314 3.171354,0.9098933 0.162882,0.2556128 0.03608,-1.008024 -0.04146,-1.129046 C 12.586944,2.9552643 10.707454,1.1696619 10.025256,0.8725867 9.9696235,0.8483603 9.5814385,0.8409023 9.2941205,0.8409023 z"
         id="path4474"
         style="fill:url(#linearGradient2507);fill-opacity:1;fill-rule:evenodd;stroke:none;display:inline"
         inkscape:connector-curvature="0" />
    </g>
    <path
       d="m 3.0627803,3.2180109 2.6307453,0 z m 2.9744953,0 2.1875,0 z m -2.9744953,2 3.9432453,0 z m 4.3494953,0 1.75,0 z m -4.3494953,3.0030267 3.3807453,0 z m 3.6932453,0 2.68499,0 z m -3.6932453,3.9919664 2.6307453,0 z m 2.9744953,0 2.15625,0 z m -2.9744953,-2 4.1619953,0 z m 4.5057453,0 1.75,0 z"
       id="path2551"
       style="fill:none;stroke:#909090;stroke-width:0.45381170999999998;stroke-linecap:butt;stroke-linejoin:miter;stroke-miterlimit:4;stroke-opacity:1;stroke-dasharray:none"
       inkscape:connector-curvature="0"
       sodipodi:nodetypes="cccccccccccccccccccccccccccccc" />
  </g>
  <g
     transform="matrix(1.0322581,0,0,1.0322581,0.70967739,-0.25806479)"
     id="layer1-8">
    <path
       inkscape:connector-curvature="0"
       d="M 12.887143,11.242639 12.520463,8.2875931"
       id="path2931-3"
       style="fill:none;stroke:none" />
    <path
       inkscape:connector-curvature="0"
       d="M 12.862181,0.50107998 C 10.505078,0.88091513 7.3505507,1.2719259 5,1.6729744 4.3775618,1.9766657 4.5174948,2.758676 4.4899572,3.3260967 c 0,2.5319424 0,5.0638848 0,7.5958273 -1.3117262,-0.246608 -2.9113558,0.837273 -2.9807337,2.553424 -0.1132522,1.068438 0.8342068,1.998453 1.8644819,2.023461 1.844664,0.04478 3.1062853,-1.179076 3.1262946,-2.726857 -0.020145,-2.599408 0.00566,-5.1998384 0,-7.7996448 0.2855763,-0.02115 4.61103,-0.8465037 5,-0.901457 0,1.9471472 0,3.8942945 0,5.8414417 -1.146387,-0.2746364 -2.6118971,0.4787211 -2.9752697,2.0172541 -0.15337,0.862385 0.1364969,1.944831 1.0115464,2.309984 1.7082373,0.784936 4.0532683,-0.805037 3.9579313,-2.671065 -0.02646,-3.4661732 0.02169,-6.933764 0,-10.4003066 -0.04486,-0.32575865 -0.265607,-0.69059252 -0.632027,-0.66707842 l 0,0 z"
       id="path4031-1"
       style="fill:#a0e500;fill-opacity:1;stroke:#375608;stroke-width:0.29062499000000003;stroke-linecap:round;stroke-linejoin:round;stroke-miterlimit:4;stroke-opacity:1;stroke-dasharray:none" />
    <path
       inkscape:connector-curvature="0"
       d="m 5.9735639,12.865117 c -1.897e-4,0.998069 -0.8929531,1.956631 -1.9941666,2.14114 -1.1012135,0.18451 -1.993976,-0.474885 -1.9941648,-1.47289 1.897e-4,-0.998069 0.8929531,-1.956631 1.9941666,-2.14114 1.1012135,-0.18451 1.993976,0.474885 1.9941648,1.47289 l 0,0 z"
       id="path2937-4"
       style="fill:url(#radialGradient3113);fill-opacity:1;stroke:none" />
    <path
       inkscape:connector-curvature="0"
       d="m 12.937933,11.82841 c -4.9e-5,0.982486 -0.876694,1.926163 -1.958074,2.107797 -1.08138,0.181633 -1.9580252,-0.467554 -1.9580741,-1.450023 -4.89e-5,-0.982532 0.8766251,-1.926313 1.9580741,-2.107958 1.081449,-0.181645 1.958123,0.467635 1.958074,1.450184 l 0,0 z"
       id="path2941-6"
       style="fill:url(#radialGradient3115);fill-opacity:1;stroke:none" />
    <path
       d="M 4.7691019,11.334081 4.715415,2.6516444 c 0,0 0.05877,-0.6637646 0.4947159,-0.6657879 0.1546126,-0.027048 6.9317151,-1.15654737 6.9317151,-1.15654737 0,0 0.132983,0.70947367 -6.0694897,1.62965477 -0.516931,0.077068 -0.76544,0.068481 -0.7627163,0.5583664 0.00735,1.3216244 -0.030358,3.795953 -0.030358,8.6082557 0,0.03443 -0.3254384,-0.243938 -0.5101806,-0.291505 l 5e-7,0 z"
       id="path2945-9"
       style="opacity:0.4;fill:url(#linearGradient3117);fill-opacity:1;fill-rule:evenodd;stroke:none"
       inkscape:connector-curvature="0" />
    <path
       d="m 11.762846,10.461072 0.03393,-6.5590208 c 0.357493,-0.0323 0.05489,-0.00519 0.53695,-0.053577 0.0066,1.2251582 2.74e-4,2.2420961 2.74e-4,6.8691938 0,0.03443 -0.199425,-0.209029 -0.571151,-0.256596 l -3e-6,0 z"
       id="path2947-4"
       style="opacity:0.4;fill:url(#linearGradient3306);fill-opacity:1;fill-rule:evenodd;stroke:none"
       inkscape:connector-curvature="0" />
  </g>
</svg>
