/* XPM */
static char * close_prelight_xpm[] = {
"20 25 58 1",
" 	c None",
".	c #616161",
"+	c #838383",
"@	c #7E7E7E",
"#	c #787878",
"$	c #747474",
"%	c #707070",
"&	c #8D8D8D",
"*	c #B9B9B9",
"=	c #CDCDCD",
"-	c #6C6C6C",
";	c #9F9F9F",
">	c #E2E2E2",
",	c #E6E6E6",
"'	c #DBDBDB",
")	c #686868",
"!	c #C0C0C0",
"~	c #DEDEDE",
"{	c #959595",
"]	c #969696",
"^	c #DFDFDF",
"/	c #636363",
"(	c #A8A8A8",
"_	c #D4D4D4",
":	c #666666",
"<	c #D5D5D5",
"[	c #A6A6A6",
"}	c #5F5F5F",
"|	c #E4E4E4",
"1	c #E1E1E1",
"2	c #B8B8B8",
"3	c #C2C2C2",
"4	c #696969",
"5	c #656565",
"6	c #5B5B5B",
"7	c #ADADAD",
"8	c #AAAAAA",
"9	c #CBCBCB",
"0	c #ABABAB",
"a	c #575757",
"b	c #DCDCDC",
"c	c #7A7A7A",
"d	c #646464",
"e	c #767676",
"f	c #DADADA",
"g	c #A9A9A9",
"h	c #C1C1C1",
"i	c #606060",
"j	c #B6B6B6",
"k	c #A4A4A4",
"l	c #A3A3A3",
"m	c #BDBDBD",
"n	c #919191",
"o	c #939393",
"p	c #9A9A9A",
"q	c #E0E0E0",
"r	c #B4B4B4",
"s	c #CACACA",
"....................",
"++++++++++++++++++++",
"@@@@@@@@@@@@@@@@@@@@",
"####################",
"$$$$$$$$$$$$$$$$$$$$",
"%%%%%%%&*==*&%%%%%%%",
"-----;>,,'',,>;-----",
"))))!,~{))))]^,!))))",
"///(,_://////:<,[///",
"}}:|1)23}}}}324>|5}}",
"667,863,9669,360,766",
"aab,#aa9,==,9aac,'aa",
"aa,,daaa=,,=aaad,,aa",
"aa,,/aaa=,,=aaa/,,aa",
"aa',eaa9,==,9aa#,faa",
"aa0,gah,9aa9,ha(,0aa",
"aai|15jhaaaahj:>|iaa",
"aaak,_iaaaaaa._,laaa",
"aaaam,~naaaao^,maaaa",
"aaaaap1,,'',,qpaaaaa",
"aaaaaaa+rssr+aaaaaaa",
"aaaaaaaaaaaaaaaaaaaa",
"aaaaaaaaaaaaaaaaaaaa",
"aaaaaaaaaaaaaaaaaaaa",
"aaaaaaaaaaaaaaaaaaaa"};
