/* XPM */
static char * close_active_xpm[] = {
"20 25 20 1",
" 	c None",
".	c #616161",
"+	c #838383",
"@	c #7E7E7E",
"#	c #787878",
"$	c #747474",
"%	c #707070",
"&	c #6C6C6C",
"*	c #686868",
"=	c #636363",
"-	c #5F5F5F",
";	c #B8B8B8",
">	c #C2C2C2",
",	c #5B5B5B",
"'	c #E6E6E6",
")	c #CBCBCB",
"!	c #575757",
"~	c #CDCDCD",
"{	c #C1C1C1",
"]	c #B6B6B6",
"....................",
"++++++++++++++++++++",
"@@@@@@@@@@@@@@@@@@@@",
"####################",
"$$$$$$$$$$$$$$$$$$$$",
"%%%%%%%%%%%%%%%%%%%%",
"&&&&&&&&&&&&&&&&&&&&",
"********************",
"====================",
"------;>---->;------",
",,,,,,>'),,)'>,,,,,,",
"!!!!!!!)'~~')!!!!!!!",
"!!!!!!!!~''~!!!!!!!!",
"!!!!!!!!~''~!!!!!!!!",
"!!!!!!!)'~~')!!!!!!!",
"!!!!!!{')!!)'{!!!!!!",
"!!!!!!]{!!!!{]!!!!!!",
"!!!!!!!!!!!!!!!!!!!!",
"!!!!!!!!!!!!!!!!!!!!",
"!!!!!!!!!!!!!!!!!!!!",
"!!!!!!!!!!!!!!!!!!!!",
"!!!!!!!!!!!!!!!!!!!!",
"!!!!!!!!!!!!!!!!!!!!",
"!!!!!!!!!!!!!!!!!!!!",
"!!!!!!!!!!!!!!!!!!!!"};
