/* XPM */
static char * close_pressed_xpm[] = {
"20 25 87 1",
" 	c None",
".	c #616161",
"+	c #838383",
"@	c #7E7E7E",
"#	c #787878",
"$	c #747474",
"%	c #707070",
"&	c #8D8D8D",
"*	c #B9B9B9",
"=	c #CDCDCD",
"-	c #6C6C6C",
";	c #9F9F9F",
">	c #E2E2E2",
",	c #E6E6E6",
"'	c #E0E0E0",
")	c #686868",
"!	c #C0C0C0",
"~	c #BCBCBC",
"{	c #9C9C9C",
"]	c #969696",
"^	c #636363",
"/	c #A8A8A8",
"(	c #DDDDDD",
"_	c #A3A3A1",
":	c #939392",
"<	c #A2A2A1",
"[	c #A6A6A6",
"}	c #5F5F5F",
"|	c #666666",
"1	c #E4E4E4",
"2	c #A0A0A0",
"3	c #CCCCCC",
"4	c #D1D1D1",
"5	c #8F8F8F",
"6	c #656565",
"7	c #5B5B5B",
"8	c #ADADAD",
"9	c #C4C4C4",
"0	c #8C8C8C",
"a	c #D6D6D6",
"b	c #939393",
"c	c #575757",
"d	c #DCDCDC",
"e	c #A5A5A5",
"f	c #898989",
"g	c #919191",
"h	c #D7D7D7",
"i	c #E7E7E7",
"j	c #D8D8D8",
"k	c #DBDBDB",
"l	c #969695",
"m	c #858584",
"n	c #8D8D8C",
"o	c #D8D8D6",
"p	c #E7E7E6",
"q	c #818181",
"r	c #9E9E9D",
"s	c #7D7D7D",
"t	c #868685",
"u	c #D5D5D4",
"v	c #9F9F9E",
"w	c #DADADA",
"x	c #ABABAB",
"y	c #BDBDBD",
"z	c #7A7A79",
"A	c #CECECD",
"B	c #828281",
"C	c #606060",
"D	c #E3E3E3",
"E	c #C5C5C5",
"F	c #757575",
"G	c #A4A4A4",
"H	c #D9D9D9",
"I	c #878786",
"J	c #727271",
"K	c #888887",
"L	c #A3A3A3",
"M	c #DFDFDF",
"N	c #A7A7A7",
"O	c #777777",
"P	c #6D6D6D",
"Q	c #A9A9A9",
"R	c #9A9A9A",
"S	c #E1E1E1",
"T	c #DEDEDE",
"U	c #B4B4B4",
"V	c #CACACA",
"....................",
"++++++++++++++++++++",
"@@@@@@@@@@@@@@@@@@@@",
"####################",
"$$$$$$$$$$$$$$$$$$$$",
"%%%%%%%&*==*&%%%%%%%",
"-----;>,,'',,>;-----",
"))))!,'~{]]{~>,!))))",
"^^^/,(_::::::<(,[^^^",
"}}|11234]55]432116}}",
"778,904,abba,409,877",
"ccd,efghijjihgf[,kcc",
"cc,,lmmnopponmml,,cc",
"cc,,bqqfhiihfqqb,,cc",
"cck,rstupaaputsv,wcc",
"ccx,yzApuBBupAzy,xcc",
"ccC1D0E=@FF@=E&11Ccc",
"cccG,HIJJJJJJKH,Lccc",
"ccccy,MNOPPOQ',ycccc",
"cccccRS,,TT,,'Rccccc",
"ccccccc+UVVU+ccccccc",
"cccccccccccccccccccc",
"cccccccccccccccccccc",
"cccccccccccccccccccc",
"cccccccccccccccccccc"};
