/* XPM */
static char * close_inactive_xpm[] = {
"20 25 19 1",
" 	c None",
".	c #616161",
"+	c #838383",
"@	c #7E7E7E",
"#	c #787878",
"$	c #747474",
"%	c #707070",
"&	c #6C6C6C",
"*	c #686868",
"=	c #636363",
"-	c #5F5F5F",
";	c #888888",
">	c #5B5B5B",
",	c #9B9B9B",
"'	c #8D8D8D",
")	c #575757",
"!	c #8E8E8E",
"~	c #878787",
"{	c #818181",
"....................",
"++++++++++++++++++++",
"@@@@@@@@@@@@@@@@@@@@",
"####################",
"$$$$$$$$$$$$$$$$$$$$",
"%%%%%%%%%%%%%%%%%%%%",
"&&&&&&&&&&&&&&&&&&&&",
"********************",
"====================",
"------+;----;+------",
">>>>>>;,'>>',;>>>>>>",
")))))))',!!,')))))))",
"))))))))!,,!))))))))",
"))))))))!,,!))))))))",
")))))))',!!,')))))))",
"))))))~,'))',~))))))",
")))))){~))))~{))))))",
"))))))))))))))))))))",
"))))))))))))))))))))",
"))))))))))))))))))))",
"))))))))))))))))))))",
"))))))))))))))))))))",
"))))))))))))))))))))",
"))))))))))))))))))))",
"))))))))))))))))))))"};
