/* XPM */
static char * hide_pressed_xpm[] = {
"20 25 77 1",
" 	c None",
".	c #616161",
"+	c #838383",
"@	c #7E7E7E",
"#	c #787878",
"$	c #747474",
"%	c #707070",
"&	c #8D8D8D",
"*	c #B9B9B9",
"=	c #CDCDCD",
"-	c #6C6C6C",
";	c #9F9F9F",
">	c #E2E2E2",
",	c #E6E6E6",
"'	c #E0E0E0",
")	c #686868",
"!	c #C0C0C0",
"~	c #BCBCBC",
"{	c #9C9C9C",
"]	c #969696",
"^	c #636363",
"/	c #A8A8A8",
"(	c #DDDDDD",
"_	c #A3A3A1",
":	c #939392",
"<	c #A2A2A1",
"[	c #A6A6A6",
"}	c #5F5F5F",
"|	c #666666",
"1	c #E4E4E4",
"2	c #A0A0A0",
"3	c #8F8F8F",
"4	c #656565",
"5	c #5B5B5B",
"6	c #ADADAD",
"7	c #C4C4C4",
"8	c #8C8C8C",
"9	c #575757",
"0	c #DCDCDC",
"a	c #A5A5A5",
"b	c #898989",
"c	c #DBDBDB",
"d	c #969695",
"e	c #858584",
"f	c #939393",
"g	c #818181",
"h	c #9E9E9D",
"i	c #7D7D7D",
"j	c #C8C8C7",
"k	c #E7E7E6",
"l	c #CBCBCB",
"m	c #9F9F9E",
"n	c #DADADA",
"o	c #ABABAB",
"p	c #BDBDBD",
"q	c #7A7A79",
"r	c #C7C7C6",
"s	c #C4C4C3",
"t	c #606060",
"u	c #E3E3E3",
"v	c #757575",
"w	c #A4A4A4",
"x	c #D9D9D9",
"y	c #878786",
"z	c #727271",
"A	c #888887",
"B	c #A3A3A3",
"C	c #DFDFDF",
"D	c #A7A7A7",
"E	c #777777",
"F	c #6D6D6D",
"G	c #A9A9A9",
"H	c #9A9A9A",
"I	c #E1E1E1",
"J	c #DEDEDE",
"K	c #B4B4B4",
"L	c #CACACA",
"....................",
"++++++++++++++++++++",
"@@@@@@@@@@@@@@@@@@@@",
"####################",
"$$$$$$$$$$$$$$$$$$$$",
"%%%%%%%&*==*&%%%%%%%",
"-----;>,,'',,>;-----",
"))))!,'~{]]{~>,!))))",
"^^^/,(_::::::<(,[^^^",
"}}|112333333332114}}",
"556,788888888887,655",
"990,abbbbbbbbbb[,c99",
"99,,deeeeeeeeeed,,99",
"99,,fggggggggggf,,99",
"99c,hijkkkkkklim,n99",
"99o,pqrkkkkkksqp,o99",
"99t1u8vvvvvvvv&11t99",
"999w,xyzzzzzzAx,B999",
"9999p,CDEFFEG',p9999",
"99999HI,,JJ,,'H99999",
"9999999+KLLK+9999999",
"99999999999999999999",
"99999999999999999999",
"99999999999999999999",
"99999999999999999999"};
