/* XPM */
static char * hide_prelight_xpm[] = {
"20 25 57 1",
" 	c None",
".	c #616161",
"+	c #838383",
"@	c #7E7E7E",
"#	c #787878",
"$	c #747474",
"%	c #707070",
"&	c #8D8D8D",
"*	c #B9B9B9",
"=	c #CDCDCD",
"-	c #6C6C6C",
";	c #9F9F9F",
">	c #E2E2E2",
",	c #E6E6E6",
"'	c #DBDBDB",
")	c #686868",
"!	c #C0C0C0",
"~	c #DEDEDE",
"{	c #959595",
"]	c #969696",
"^	c #DFDFDF",
"/	c #636363",
"(	c #A8A8A8",
"_	c #D4D4D4",
":	c #666666",
"<	c #D5D5D5",
"[	c #A6A6A6",
"}	c #5F5F5F",
"|	c #E4E4E4",
"1	c #E1E1E1",
"2	c #696969",
"3	c #656565",
"4	c #5B5B5B",
"5	c #ADADAD",
"6	c #AAAAAA",
"7	c #ABABAB",
"8	c #575757",
"9	c #DCDCDC",
"0	c #7A7A7A",
"a	c #646464",
"b	c #767676",
"c	c #B7B7B7",
"d	c #BCBCBC",
"e	c #DADADA",
"f	c #A9A9A9",
"g	c #B6B6B6",
"h	c #B2B2B2",
"i	c #606060",
"j	c #A4A4A4",
"k	c #A3A3A3",
"l	c #BDBDBD",
"m	c #919191",
"n	c #939393",
"o	c #9A9A9A",
"p	c #E0E0E0",
"q	c #B4B4B4",
"r	c #CACACA",
"....................",
"++++++++++++++++++++",
"@@@@@@@@@@@@@@@@@@@@",
"####################",
"$$$$$$$$$$$$$$$$$$$$",
"%%%%%%%&*==*&%%%%%%%",
"-----;>,,'',,>;-----",
"))))!,~{))))]^,!))))",
"///(,_://////:<,[///",
"}}:|1)}}}}}}}}2>|3}}",
"445,644444444447,544",
"889,#88888888880,'88",
"88,,a8888888888a,,88",
"88,,/8888888888/,,88",
"88',b8c,,,,,,d8#,e88",
"887,f8g,,,,,,h8(,788",
"88i|1388888888:>|i88",
"888j,_i888888._,k888",
"8888l,~m8888n^,l8888",
"88888o1,,'',,po88888",
"8888888+qrrq+8888888",
"88888888888888888888",
"88888888888888888888",
"88888888888888888888",
"88888888888888888888"};
