/* XPM */
static char * maximize_inactive_xpm[] = {
"20 25 20 1",
" 	c None",
".	c #616161",
"+	c #838383",
"@	c #7E7E7E",
"#	c #787878",
"$	c #747474",
"%	c #707070",
"&	c #6C6C6C",
"*	c #686868",
"=	c #636363",
"-	c #5F5F5F",
";	c #5B5B5B",
">	c #9B9B9B",
",	c #575757",
"'	c #828282",
")	c #868686",
"!	c #808080",
"~	c #999999",
"{	c #7F7F7F",
"]	c #848484",
"....................",
"++++++++++++++++++++",
"@@@@@@@@@@@@@@@@@@@@",
"####################",
"$$$$$$$$$$$$$$$$$$$$",
"%%%%%%%%%%%%%%%%%%%%",
"&&&&&&&&&&&&&&&&&&&&",
"********************",
"====================",
"---------++---------",
";;;;;;;;;>>;;;;;;;;;",
",,,,,,,,,>>,,,,,,,,,",
",,,,,,'>>>>>>),,,,,,",
",,,,,,'>>>>>>!,,,,,,",
",,,,,,,,,>>,,,,,,,,,",
",,,,,,,,,~>,,,,,,,,,",
",,,,,,,,,{],,,,,,,,,",
",,,,,,,,,,,,,,,,,,,,",
",,,,,,,,,,,,,,,,,,,,",
",,,,,,,,,,,,,,,,,,,,",
",,,,,,,,,,,,,,,,,,,,",
",,,,,,,,,,,,,,,,,,,,",
",,,,,,,,,,,,,,,,,,,,",
",,,,,,,,,,,,,,,,,,,,",
",,,,,,,,,,,,,,,,,,,,"};
