/* XPM */
static char * maximize_active_xpm[] = {
"20 25 21 1",
" 	c None",
".	c #616161",
"+	c #838383",
"@	c #7E7E7E",
"#	c #787878",
"$	c #747474",
"%	c #707070",
"&	c #6C6C6C",
"*	c #686868",
"=	c #636363",
"-	c #5F5F5F",
";	c #B8B8B8",
">	c #5B5B5B",
",	c #E6E6E6",
"'	c #575757",
")	c #B7B7B7",
"!	c #BDBDBD",
"~	c #B3B3B3",
"{	c #E2E2E2",
"]	c #B1B1B1",
"^	c #BCBCBC",
"....................",
"++++++++++++++++++++",
"@@@@@@@@@@@@@@@@@@@@",
"####################",
"$$$$$$$$$$$$$$$$$$$$",
"%%%%%%%%%%%%%%%%%%%%",
"&&&&&&&&&&&&&&&&&&&&",
"********************",
"====================",
"---------;;---------",
">>>>>>>>>,,>>>>>>>>>",
"''''''''',,'''''''''",
"''''''),,,,,,!''''''",
"''''''),,,,,,~''''''",
"''''''''',,'''''''''",
"'''''''''{,'''''''''",
"''''''''']^'''''''''",
"''''''''''''''''''''",
"''''''''''''''''''''",
"''''''''''''''''''''",
"''''''''''''''''''''",
"''''''''''''''''''''",
"''''''''''''''''''''",
"''''''''''''''''''''",
"''''''''''''''''''''"};
