/* XPM */
static char * maximize_pressed_xpm[] = {
"20 25 82 1",
" 	c None",
".	c #616161",
"+	c #838383",
"@	c #7E7E7E",
"#	c #787878",
"$	c #747474",
"%	c #707070",
"&	c #8D8D8D",
"*	c #B9B9B9",
"=	c #CDCDCD",
"-	c #6C6C6C",
";	c #9F9F9F",
">	c #E2E2E2",
",	c #E6E6E6",
"'	c #E0E0E0",
")	c #686868",
"!	c #C0C0C0",
"~	c #BCBCBC",
"{	c #9C9C9C",
"]	c #969696",
"^	c #636363",
"/	c #A8A8A8",
"(	c #DDDDDD",
"_	c #A3A3A1",
":	c #939392",
"<	c #A2A2A1",
"[	c #A6A6A6",
"}	c #5F5F5F",
"|	c #666666",
"1	c #E4E4E4",
"2	c #A0A0A0",
"3	c #8F8F8F",
"4	c #CCCCCC",
"5	c #656565",
"6	c #5B5B5B",
"7	c #ADADAD",
"8	c #C4C4C4",
"9	c #8C8C8C",
"0	c #575757",
"a	c #DCDCDC",
"b	c #A5A5A5",
"c	c #898989",
"d	c #E7E7E7",
"e	c #DBDBDB",
"f	c #969695",
"g	c #858584",
"h	c #CACAC9",
"i	c #E7E7E6",
"j	c #CECECC",
"k	c #939393",
"l	c #818181",
"m	c #C9C9C9",
"n	c #C6C6C6",
"o	c #9E9E9D",
"p	c #7D7D7D",
"q	c #9F9F9E",
"r	c #DADADA",
"s	c #ABABAB",
"t	c #BDBDBD",
"u	c #7A7A79",
"v	c #E5E5E4",
"w	c #7C7C7B",
"x	c #606060",
"y	c #E3E3E3",
"z	c #757575",
"A	c #C2C2C2",
"B	c #CACACA",
"C	c #A4A4A4",
"D	c #D9D9D9",
"E	c #878786",
"F	c #727271",
"G	c #888887",
"H	c #A3A3A3",
"I	c #DFDFDF",
"J	c #A7A7A7",
"K	c #777777",
"L	c #6D6D6D",
"M	c #A9A9A9",
"N	c #9A9A9A",
"O	c #E1E1E1",
"P	c #DEDEDE",
"Q	c #B4B4B4",
"....................",
"++++++++++++++++++++",
"@@@@@@@@@@@@@@@@@@@@",
"####################",
"$$$$$$$$$$$$$$$$$$$$",
"%%%%%%%&*==*&%%%%%%%",
"-----;>,,'',,>;-----",
"))))!,'~{]]{~>,!))))",
"^^^/,(_::::::<(,[^^^",
"}}|112333443332115}}",
"667,89999,,99998,766",
"00a,bccccddcccc[,e00",
"00,,fghiiiiiijgf,,00",
"00,,klmddddddnlk,,00",
"00e,oppppiippppq,r00",
"00s,tuuuuviwuuut,s00",
"00x1y9zzzABzzz&11x00",
"000C,DEFFFFFFGD,H000",
"0000t,IJKLLKM',t0000",
"00000NO,,PP,,'N00000",
"0000000+QBBQ+0000000",
"00000000000000000000",
"00000000000000000000",
"00000000000000000000",
"00000000000000000000"};
