/* XPM */
static char * maximize_prelight_xpm[] = {
"20 25 58 1",
" 	c None",
".	c #616161",
"+	c #838383",
"@	c #7E7E7E",
"#	c #787878",
"$	c #747474",
"%	c #707070",
"&	c #8D8D8D",
"*	c #B9B9B9",
"=	c #CDCDCD",
"-	c #6C6C6C",
";	c #9F9F9F",
">	c #E2E2E2",
",	c #E6E6E6",
"'	c #DBDBDB",
")	c #686868",
"!	c #C0C0C0",
"~	c #DEDEDE",
"{	c #959595",
"]	c #969696",
"^	c #DFDFDF",
"/	c #636363",
"(	c #A8A8A8",
"_	c #D4D4D4",
":	c #666666",
"<	c #D5D5D5",
"[	c #A6A6A6",
"}	c #5F5F5F",
"|	c #E4E4E4",
"1	c #E1E1E1",
"2	c #B8B8B8",
"3	c #696969",
"4	c #656565",
"5	c #5B5B5B",
"6	c #ADADAD",
"7	c #AAAAAA",
"8	c #ABABAB",
"9	c #575757",
"0	c #DCDCDC",
"a	c #7A7A7A",
"b	c #646464",
"c	c #B7B7B7",
"d	c #BDBDBD",
"e	c #B3B3B3",
"f	c #767676",
"g	c #DADADA",
"h	c #A9A9A9",
"i	c #606060",
"j	c #B1B1B1",
"k	c #BCBCBC",
"l	c #A4A4A4",
"m	c #A3A3A3",
"n	c #919191",
"o	c #939393",
"p	c #9A9A9A",
"q	c #E0E0E0",
"r	c #B4B4B4",
"s	c #CACACA",
"....................",
"++++++++++++++++++++",
"@@@@@@@@@@@@@@@@@@@@",
"####################",
"$$$$$$$$$$$$$$$$$$$$",
"%%%%%%%&*==*&%%%%%%%",
"-----;>,,'',,>;-----",
"))))!,~{))))]^,!))))",
"///(,_://////:<,[///",
"}}:|1)}}}22}}}3>|4}}",
"556,75555,,55558,655",
"990,#9999,,9999a,'99",
"99,,b9c,,,,,,d9b,,99",
"99,,/9c,,,,,,e9/,,99",
"99',f9999,,9999#,g99",
"998,h9999>,9999(,899",
"99i|14999jk999:>|i99",
"999l,_i999999._,m999",
"9999d,~n9999o^,d9999",
"99999p1,,'',,qp99999",
"9999999+rssr+9999999",
"99999999999999999999",
"99999999999999999999",
"99999999999999999999",
"99999999999999999999"};
