/* XPM */
static char * shade_pressed_xpm[] = {
"20 25 81 1",
" 	c None",
".	c #616161",
"+	c #838383",
"@	c #7E7E7E",
"#	c #787878",
"$	c #747474",
"%	c #707070",
"&	c #8D8D8D",
"*	c #B9B9B9",
"=	c #CDCDCD",
"-	c #6C6C6C",
";	c #9F9F9F",
">	c #E2E2E2",
",	c #E6E6E6",
"'	c #E0E0E0",
")	c #686868",
"!	c #C0C0C0",
"~	c #BCBCBC",
"{	c #9C9C9C",
"]	c #969696",
"^	c #636363",
"/	c #A8A8A8",
"(	c #DDDDDD",
"_	c #A3A3A1",
":	c #939392",
"<	c #A2A2A1",
"[	c #A6A6A6",
"}	c #5F5F5F",
"|	c #666666",
"1	c #E4E4E4",
"2	c #A0A0A0",
"3	c #8F8F8F",
"4	c #656565",
"5	c #5B5B5B",
"6	c #ADADAD",
"7	c #C4C4C4",
"8	c #8C8C8C",
"9	c #575757",
"0	c #DCDCDC",
"a	c #A5A5A5",
"b	c #898989",
"c	c #E7E7E6",
"d	c #DBDBDB",
"e	c #969695",
"f	c #858584",
"g	c #D7D7D7",
"h	c #E7E7E7",
"i	c #939393",
"j	c #818181",
"k	c #868685",
"l	c #D5D5D4",
"m	c #D6D6D6",
"n	c #9E9E9D",
"o	c #7D7D7D",
"p	c #CECECD",
"q	c #828281",
"r	c #9F9F9E",
"s	c #DADADA",
"t	c #ABABAB",
"u	c #BDBDBD",
"v	c #7A7A79",
"w	c #C5C5C5",
"x	c #606060",
"y	c #E3E3E3",
"z	c #757575",
"A	c #A4A4A4",
"B	c #D9D9D9",
"C	c #878786",
"D	c #727271",
"E	c #888887",
"F	c #A3A3A3",
"G	c #DFDFDF",
"H	c #A7A7A7",
"I	c #777777",
"J	c #6D6D6D",
"K	c #A9A9A9",
"L	c #9A9A9A",
"M	c #E1E1E1",
"N	c #DEDEDE",
"O	c #B4B4B4",
"P	c #CACACA",
"....................",
"++++++++++++++++++++",
"@@@@@@@@@@@@@@@@@@@@",
"####################",
"$$$$$$$$$$$$$$$$$$$$",
"%%%%%%%&*==*&%%%%%%%",
"-----;>,,'',,>;-----",
"))))!,'~{]]{~>,!))))",
"^^^/,(_::::::<(,[^^^",
"}}|112333333332114}}",
"556,788888888887,655",
"990,abbb8cc8bbb[,d99",
"99,,effbghhgbffe,,99",
"99,,ijklcmmclkji,,99",
"99d,nopclqqlcpor,s99",
"99t,uvw=@vv@=wvu,t99",
"99x1y8zzzzzzzz&11x99",
"999A,BCDDDDDDEB,F999",
"9999u,GHIJJIK',u9999",
"99999LM,,NN,,'L99999",
"9999999+OPPO+9999999",
"99999999999999999999",
"99999999999999999999",
"99999999999999999999",
"99999999999999999999"};
