/* XPM */
static char * shade_prelight_xpm[] = {
"20 25 56 1",
" 	c None",
".	c #616161",
"+	c #838383",
"@	c #7E7E7E",
"#	c #787878",
"$	c #747474",
"%	c #707070",
"&	c #8D8D8D",
"*	c #B9B9B9",
"=	c #CDCDCD",
"-	c #6C6C6C",
";	c #9F9F9F",
">	c #E2E2E2",
",	c #E6E6E6",
"'	c #DBDBDB",
")	c #686868",
"!	c #C0C0C0",
"~	c #DEDEDE",
"{	c #959595",
"]	c #969696",
"^	c #DFDFDF",
"/	c #636363",
"(	c #A8A8A8",
"_	c #D4D4D4",
":	c #666666",
"<	c #D5D5D5",
"[	c #A6A6A6",
"}	c #5F5F5F",
"|	c #E4E4E4",
"1	c #E1E1E1",
"2	c #696969",
"3	c #656565",
"4	c #5B5B5B",
"5	c #ADADAD",
"6	c #AAAAAA",
"7	c #ABABAB",
"8	c #575757",
"9	c #DCDCDC",
"0	c #7A7A7A",
"a	c #646464",
"b	c #CBCBCB",
"c	c #767676",
"d	c #C1C1C1",
"e	c #DADADA",
"f	c #A9A9A9",
"g	c #B6B6B6",
"h	c #606060",
"i	c #A4A4A4",
"j	c #A3A3A3",
"k	c #BDBDBD",
"l	c #919191",
"m	c #939393",
"n	c #9A9A9A",
"o	c #E0E0E0",
"p	c #B4B4B4",
"q	c #CACACA",
"....................",
"++++++++++++++++++++",
"@@@@@@@@@@@@@@@@@@@@",
"####################",
"$$$$$$$$$$$$$$$$$$$$",
"%%%%%%%&*==*&%%%%%%%",
"-----;>,,'',,>;-----",
"))))!,~{))))]^,!))))",
"///(,_://////:<,[///",
"}}:|1)}}}}}}}}2>|3}}",
"445,644444444447,544",
"889,#8888,,88880,'88",
"88,,a888=,,=888a,,88",
"88,,/88b,==,b88/,,88",
"88',c8d,b88b,d8#,e88",
"887,f8gd8888dg8(,788",
"88h|1388888888:>|h88",
"888i,_h888888._,j888",
"8888k,~l8888m^,k8888",
"88888n1,,'',,on88888",
"8888888+pqqp+8888888",
"88888888888888888888",
"88888888888888888888",
"88888888888888888888",
"88888888888888888888"};
