/* XPM */
static char * stick_pressed_xpm[] = {
"20 25 72 1",
" 	c None",
".	c #616161",
"+	c #838383",
"@	c #7E7E7E",
"#	c #787878",
"$	c #747474",
"%	c #707070",
"&	c #8D8D8D",
"*	c #B9B9B9",
"=	c #CDCDCD",
"-	c #6C6C6C",
";	c #9F9F9F",
">	c #E2E2E2",
",	c #E6E6E6",
"'	c #DBDBDB",
")	c #686868",
"!	c #C0C0C0",
"~	c #E0E0E0",
"{	c #BCBCBC",
"]	c #9C9C9C",
"^	c #969696",
"/	c #636363",
"(	c #A8A8A8",
"_	c #DDDDDD",
":	c #A3A3A1",
"<	c #939392",
"[	c #A2A2A1",
"}	c #A6A6A6",
"|	c #5F5F5F",
"1	c #666666",
"2	c #E4E4E4",
"3	c #A0A0A0",
"4	c #8F8F8F",
"5	c #656565",
"6	c #5B5B5B",
"7	c #ADADAD",
"8	c #C4C4C4",
"9	c #8C8C8C",
"0	c #575757",
"a	c #DCDCDC",
"b	c #A5A5A5",
"c	c #898989",
"d	c #B3B3B3",
"e	c #969695",
"f	c #858584",
"g	c #939393",
"h	c #818181",
"i	c #9E9E9D",
"j	c #7D7D7D",
"k	c #9F9F9E",
"l	c #DADADA",
"m	c #ABABAB",
"n	c #BDBDBD",
"o	c #7A7A79",
"p	c #606060",
"q	c #E3E3E3",
"r	c #757575",
"s	c #A4A4A4",
"t	c #D9D9D9",
"u	c #878786",
"v	c #727271",
"w	c #888887",
"x	c #A3A3A3",
"y	c #DFDFDF",
"z	c #A7A7A7",
"A	c #777777",
"B	c #6D6D6D",
"C	c #A9A9A9",
"D	c #9A9A9A",
"E	c #E1E1E1",
"F	c #B4B4B4",
"G	c #CACACA",
"....................",
"++++++++++++++++++++",
"@@@@@@@@@@@@@@@@@@@@",
"####################",
"$$$$$$$$$$$$$$$$$$$$",
"%%%%%%%&*==*&%%%%%%%",
"-----;>,,'',,>;-----",
"))))!,~{]^^]{>,!))))",
"///(,_:<<<<<<[_,}///",
"||1223444444443225||",
"667,899999999998,766",
"00a,bcccd>,dccc},'00",
"00,,efff,,,,fffe,,00",
"00,,ghhh,,,,hhhg,,00",
"00',ijjjd>,djjjk,l00",
"00m,noooooooooon,m00",
"00p2q9rrrrrrrr&22p00",
"000s,tuvvvvvvwt,x000",
"0000n,yzABBAC~,n0000",
"00000DE,,'',,~D00000",
"0000000+FGGF+0000000",
"00000000000000000000",
"00000000000000000000",
"00000000000000000000",
"00000000000000000000"};
