/* XPM */
static char * stick_active_xpm[] = {
"20 25 54 1",
" 	c None",
".	c #616161",
"+	c #838383",
"@	c #7E7E7E",
"#	c #787878",
"$	c #747474",
"%	c #707070",
"&	c #8D8D8D",
"*	c #B9B9B9",
"=	c #CDCDCD",
"-	c #6C6C6C",
";	c #9F9F9F",
">	c #E2E2E2",
",	c #E6E6E6",
"'	c #DBDBDB",
")	c #686868",
"!	c #C0C0C0",
"~	c #DEDEDE",
"{	c #959595",
"]	c #969696",
"^	c #DFDFDF",
"/	c #636363",
"(	c #A8A8A8",
"_	c #D4D4D4",
":	c #666666",
"<	c #D5D5D5",
"[	c #A6A6A6",
"}	c #5F5F5F",
"|	c #E4E4E4",
"1	c #E1E1E1",
"2	c #696969",
"3	c #656565",
"4	c #5B5B5B",
"5	c #ADADAD",
"6	c #AAAAAA",
"7	c #ABABAB",
"8	c #575757",
"9	c #DCDCDC",
"0	c #B3B3B3",
"a	c #7A7A7A",
"b	c #646464",
"c	c #767676",
"d	c #DADADA",
"e	c #A9A9A9",
"f	c #606060",
"g	c #A4A4A4",
"h	c #A3A3A3",
"i	c #BDBDBD",
"j	c #919191",
"k	c #939393",
"l	c #9A9A9A",
"m	c #E0E0E0",
"n	c #B4B4B4",
"o	c #CACACA",
"....................",
"++++++++++++++++++++",
"@@@@@@@@@@@@@@@@@@@@",
"####################",
"$$$$$$$$$$$$$$$$$$$$",
"%%%%%%%&*==*&%%%%%%%",
"-----;>,,'',,>;-----",
"))))!,~{))))]^,!))))",
"///(,_://////:<,[///",
"}}:|1)}}}}}}}}2>|3}}",
"445,644444444447,544",
"889,#8880>,0888a,'88",
"88,,b888,,,,888b,,88",
"88,,/888,,,,888/,,88",
"88',c8880>,0888#,d88",
"887,e8888888888(,788",
"88f|1388888888:>|f88",
"888g,_f888888._,h888",
"8888i,~j8888k^,i8888",
"88888l1,,'',,ml88888",
"8888888+noon+8888888",
"88888888888888888888",
"88888888888888888888",
"88888888888888888888",
"88888888888888888888"};
