/* XPM */
static char * title_5_active_xpm[] = {
"8 25 13 1",
" 	c None",
".	c #616161",
"+	c #838383",
"@	c #7E7E7E",
"#	c #787878",
"$	c #747474",
"%	c #707070",
"&	c #6C6C6C",
"*	c #686868",
"=	c #636363",
"-	c #5F5F5F",
";	c #5B5B5B",
">	c #575757",
"........",
"++++++++",
"@@@@@@@@",
"########",
"$$$$$$$$",
"%%%%%%%%",
"&&&&&&&&",
"********",
"========",
"--------",
";;;;;;;;",
">>>>>>>>",
">>>>>>>>",
">>>>>>>>",
">>>>>>>>",
">>>>>>>>",
">>>>>>>>",
">>>>>>>>",
">>>>>>>>",
">>>>>>>>",
">>>>>>>>",
">>>>>>>>",
">>>>>>>>",
">>>>>>>>",
">>>>>>>>"};
