/* XPM */
static char * top_right_active_xpm[] = {
"6 63 23 1",
" 	c None",
".	c #616161",
"+	c #838383",
"@	c #7E7E7E",
"#	c #7D7D7D",
"$	c #787878",
"%	c #747474",
"&	c #707070",
"*	c #686868",
"=	c #6C6C6C",
"-	c #636363",
";	c #5F5F5F",
">	c #5B5B5B",
",	c #606060",
"'	c #575757",
")	c #626263",
"!	c #656565",
"~	c #696969",
"{	c #6D6D6D",
"]	c #747374",
"^	c #787778",
"/	c #7B7B7B",
"(	c #828282",
".     ",
"+..   ",
"@##.  ",
"$$$$. ",
"%%%%. ",
"&&&&&*",
"=====.",
"*****.",
"-----.",
";;;;;.",
">>>>>,",
"''''',",
"'''''.",
"'''''.",
"'''''.",
"'''''.",
"'''''.",
"'''''.",
"'''''.",
"'''''.",
"'''''.",
"'''''.",
"'''''.",
"'''''.",
"'''''.",
"     .",
"     .",
"     .",
"     .",
"     .",
"     .",
"     .",
"     .",
"     .",
"     .",
"     .",
"     .",
"     .",
"     .",
"     .",
"     .",
"     .",
"     .",
"     .",
"     .",
"     .",
"     .",
"     .",
"     .",
"     .",
"     .",
"     .",
"     .",
"     )",
"     !",
"     ~",
"     {",
"     &",
"     ]",
"     ^",
"     /",
"     @",
"     ("};
