<?xml version="1.0" encoding="UTF-8" standalone="no"?>
<!-- Created with Inkscape (http://www.inkscape.org/) -->

<svg
   xmlns:dc="http://purl.org/dc/elements/1.1/"
   xmlns:cc="http://creativecommons.org/ns#"
   xmlns:rdf="http://www.w3.org/1999/02/22-rdf-syntax-ns#"
   xmlns:svg="http://www.w3.org/2000/svg"
   xmlns="http://www.w3.org/2000/svg"
   xmlns:xlink="http://www.w3.org/1999/xlink"
   xmlns:sodipodi="http://sodipodi.sourceforge.net/DTD/sodipodi-0.dtd"
   xmlns:inkscape="http://www.inkscape.org/namespaces/inkscape"
   version="1.0"
   width="48"
   height="48"
   id="svg3534"
   inkscape:version="0.48.0 r9654"
   sodipodi:docname="applications-multimedia.svg">
  <metadata
     id="metadata83">
    <rdf:RDF>
      <cc:Work
         rdf:about="">
        <dc:format>image/svg+xml</dc:format>
        <dc:type
           rdf:resource="http://purl.org/dc/dcmitype/StillImage" />
      </cc:Work>
    </rdf:RDF>
  </metadata>
  <sodipodi:namedview
     pagecolor="#ffffff"
     bordercolor="#666666"
     borderopacity="1"
     objecttolerance="10"
     gridtolerance="10"
     guidetolerance="10"
     inkscape:pageopacity="0"
     inkscape:pageshadow="2"
     inkscape:window-width="640"
     inkscape:window-height="480"
     id="namedview81"
     showgrid="false"
     inkscape:zoom="2.6354167"
     inkscape:cx="-21.916402"
     inkscape:cy="27.876089"
     inkscape:window-x="0"
     inkscape:window-y="0"
     inkscape:window-maximized="0"
     inkscape:current-layer="layer1" />
  <defs
     id="defs3536">
    <linearGradient
       id="linearGradient5048">
      <stop
         id="stop5050"
         style="stop-color:#000000;stop-opacity:0"
         offset="0" />
      <stop
         id="stop5056"
         style="stop-color:#000000;stop-opacity:1"
         offset="0.5" />
      <stop
         id="stop5052"
         style="stop-color:#000000;stop-opacity:0"
         offset="1" />
    </linearGradient>
    <linearGradient
       x1="302.85715"
       y1="366.64789"
       x2="302.85715"
       y2="609.50507"
       id="linearGradient2493"
       xlink:href="#linearGradient5048"
       gradientUnits="userSpaceOnUse"
       gradientTransform="matrix(4.772373e-2,0,0,2.325004e-2,0.7512812,23.481385)" />
    <radialGradient
       cx="605.71429"
       cy="486.64789"
       r="117.14286"
       fx="605.71429"
       fy="486.64789"
       id="radialGradient2490"
       xlink:href="#linearGradient5060"
       gradientUnits="userSpaceOnUse"
       gradientTransform="matrix(-4.772373e-2,0,0,2.325004e-2,35.239332,23.481385)" />
    <linearGradient
       id="linearGradient2490">
      <stop
         id="stop2492"
         style="stop-color:#2e4a5a;stop-opacity:1"
         offset="0" />
      <stop
         id="stop2494"
         style="stop-color:#6e8796;stop-opacity:1"
         offset="1" />
    </linearGradient>
    <linearGradient
       x1="12.248152"
       y1="34.992569"
       x2="12.248152"
       y2="1.9999406"
       id="linearGradient3487"
       xlink:href="#linearGradient2490"
       gradientUnits="userSpaceOnUse" />
    <linearGradient
       id="linearGradient3993">
      <stop
         id="stop3995"
         style="stop-color:#a3c0d0;stop-opacity:1"
         offset="0" />
      <stop
         id="stop4001"
         style="stop-color:#427da1;stop-opacity:1"
         offset="1" />
    </linearGradient>
    <linearGradient
       x1="12.872127"
       y1="5.0561161"
       x2="12.872127"
       y2="18.911581"
       id="linearGradient2478"
       xlink:href="#linearGradient3993"
       gradientUnits="userSpaceOnUse"
       gradientTransform="matrix(1.6465384,0,0,1.5556175,-2.2508569,1.0175998)" />
    <linearGradient
       x1="6"
       y1="36"
       x2="6"
       y2="1.9852973"
       id="linearGradient3508"
       xlink:href="#linearGradient3582"
       gradientUnits="userSpaceOnUse" />
    <radialGradient
       cx="33.966679"
       cy="35.736916"
       r="86.70845"
       fx="33.966679"
       fy="35.736916"
       id="radialGradient2484"
       xlink:href="#linearGradient259"
       gradientUnits="userSpaceOnUse"
       gradientTransform="matrix(0.7979406,0,0,0.8394112,-1.9632013,-0.4324909)" />
    <linearGradient
       id="linearGradient3582">
      <stop
         id="stop3584"
         style="stop-color:#333333;stop-opacity:1"
         offset="0" />
      <stop
         id="stop3586"
         style="stop-color:#5a5a5a;stop-opacity:1"
         offset="1" />
    </linearGradient>
    <linearGradient
       x1="33"
       y1="36.014702"
       x2="33"
       y2="2"
       id="linearGradient3526"
       xlink:href="#linearGradient3582"
       gradientUnits="userSpaceOnUse" />
    <linearGradient
       id="linearGradient259">
      <stop
         id="stop260"
         style="stop-color:#828282;stop-opacity:1"
         offset="0" />
      <stop
         id="stop261"
         style="stop-color:#434343;stop-opacity:1"
         offset="1" />
    </linearGradient>
    <radialGradient
       cx="33.966679"
       cy="35.736916"
       r="86.70845"
       fx="33.966679"
       fy="35.736916"
       id="radialGradient2481"
       xlink:href="#linearGradient259"
       gradientUnits="userSpaceOnUse"
       gradientTransform="matrix(0.7979932,0,0,0.8388723,-1.9637331,-0.4310554)" />
    <linearGradient
       id="linearGradient3461">
      <stop
         id="stop3463"
         style="stop-color:#ffffff;stop-opacity:1"
         offset="0" />
      <stop
         id="stop3465"
         style="stop-color:#ffffff;stop-opacity:0"
         offset="1" />
    </linearGradient>
    <linearGradient
       x1="16.722891"
       y1="3"
       x2="16.722891"
       y2="35.055153"
       id="linearGradient3467"
       xlink:href="#linearGradient3461"
       gradientUnits="userSpaceOnUse" />
    <linearGradient
       id="linearGradient5060">
      <stop
         id="stop5062"
         style="stop-color:#000000;stop-opacity:1"
         offset="0" />
      <stop
         id="stop5064"
         style="stop-color:#000000;stop-opacity:0"
         offset="1" />
    </linearGradient>
    <radialGradient
       cx="605.71429"
       cy="486.64789"
       r="117.14286"
       fx="605.71429"
       fy="486.64789"
       id="radialGradient2487"
       xlink:href="#linearGradient5060"
       gradientUnits="userSpaceOnUse"
       gradientTransform="matrix(4.772373e-2,0,0,2.325004e-2,0.7606733,23.481385)" />
    <linearGradient
       x1="28.739122"
       y1="144.11652"
       x2="26.256771"
       y2="125.39074"
       id="linearGradient2454"
       xlink:href="#linearGradient2372"
       gradientUnits="userSpaceOnUse"
       gradientTransform="matrix(0.4456368,0,0,0.3243297,34.628984,-32.463266)" />
    <linearGradient
       id="linearGradient3668">
      <stop
         id="stop3670"
         style="stop-color:#ffffff;stop-opacity:1"
         offset="0" />
      <stop
         id="stop3672"
         style="stop-color:#ffffff;stop-opacity:0"
         offset="1" />
    </linearGradient>
    <radialGradient
       cx="17.058823"
       cy="41.058823"
       r="5.7384715"
       fx="14.757765"
       fy="37.841019"
       id="radialGradient2451"
       xlink:href="#linearGradient3668"
       gradientUnits="userSpaceOnUse"
       gradientTransform="matrix(1.0091641,-0.1636283,2.2026911e-2,0.9432895,23.014711,0.9649117)" />
    <linearGradient
       id="linearGradient2372">
      <stop
         id="stop2374"
         style="stop-color:#ffffff;stop-opacity:1"
         offset="0" />
      <stop
         id="stop2376"
         style="stop-color:#ffffff;stop-opacity:0.34482759"
         offset="1" />
    </linearGradient>
    <linearGradient
       x1="28.503141"
       y1="137.53885"
       x2="26.256771"
       y2="125.39074"
       id="linearGradient2448"
       xlink:href="#linearGradient2372"
       gradientUnits="userSpaceOnUse"
       gradientTransform="matrix(0.3228678,0,0,0.3243297,19.695285,-29.783826)" />
    <linearGradient
       id="linearGradient7067">
      <stop
         id="stop7069"
         style="stop-color:#ffffff;stop-opacity:1"
         offset="0" />
      <stop
         id="stop7071"
         style="stop-color:#ffffff;stop-opacity:0"
         offset="1" />
    </linearGradient>
    <radialGradient
       cx="17.058823"
       cy="41.058823"
       r="5.7384715"
       fx="14.68769"
       fy="37.45607"
       id="radialGradient2445"
       xlink:href="#linearGradient7067"
       gradientUnits="userSpaceOnUse"
       gradientTransform="matrix(0.9584434,-0.1715415,3.3651004e-2,0.9119853,5.8299551,5.1403631)" />
    <radialGradient
       cx="17.058823"
       cy="41.058823"
       r="5.7384715"
       fx="15.544384"
       fy="39.027378"
       id="radialGradient3538-3-7"
       xlink:href="#linearGradient7067-814-120-245-6-9"
       gradientUnits="userSpaceOnUse"
       gradientTransform="matrix(0.3766757,-0.06311262,0,0.3645139,-2.446246,-0.6906545)" />
    <linearGradient
       id="linearGradient7067-814-120-245-6-9">
      <stop
         id="stop3877-3-7"
         style="stop-color:#e7ffae;stop-opacity:1;"
         offset="0" />
      <stop
         id="stop3879-3-2"
         style="stop-color:#a0dd0e;stop-opacity:1;"
         offset="1" />
    </linearGradient>
    <radialGradient
       cx="17.058823"
       cy="41.058823"
       r="5.7384715"
       fx="15.970393"
       fy="39.105911"
       id="radialGradient3540-4-2"
       xlink:href="#linearGradient7067-814-120-245-6-9"
       gradientUnits="userSpaceOnUse"
       gradientTransform="matrix(0.3698584,-0.06212313,0,0.358799,4.6705097,-1.5148309)" />
    <linearGradient
       id="linearGradient3323">
      <stop
         id="stop3325"
         style="stop-color:#e7ffae;stop-opacity:1;"
         offset="0" />
      <stop
         id="stop3327"
         style="stop-color:#a0dd0e;stop-opacity:1;"
         offset="1" />
    </linearGradient>
    <linearGradient
       inkscape:collect="always"
       xlink:href="#linearGradient2372-7-3-0"
       id="linearGradient4052"
       gradientUnits="userSpaceOnUse"
       gradientTransform="matrix(0.1264953,0,0,0.128756,1.8294146,-14.19922)"
       x1="28.739122"
       y1="144.11652"
       x2="25.400293"
       y2="119.86452" />
    <linearGradient
       id="linearGradient2372-7-3-0">
      <stop
         id="stop2374-5-9-2"
         style="stop-color:#ffffff;stop-opacity:1"
         offset="0" />
      <stop
         id="stop2376-3-7-1"
         style="stop-color:#ffffff;stop-opacity:1;"
         offset="1" />
    </linearGradient>
    <linearGradient
       y2="125.39074"
       x2="26.256771"
       y1="144.11652"
       x1="28.739122"
       gradientTransform="matrix(0.2545239,0,0,0.128756,5.8478384,-14.983809)"
       gradientUnits="userSpaceOnUse"
       id="linearGradient3144"
       xlink:href="#linearGradient2372-7-3-0"
       inkscape:collect="always" />
    <linearGradient
       id="linearGradient3334">
      <stop
         id="stop3336"
         style="stop-color:#ffffff;stop-opacity:1"
         offset="0" />
      <stop
         id="stop3338"
         style="stop-color:#ffffff;stop-opacity:1;"
         offset="1" />
    </linearGradient>
    <linearGradient
       y2="125.39074"
       x2="26.256771"
       y1="144.11652"
       x1="28.739122"
       gradientTransform="matrix(0.2545239,0,0,0.128756,5.8478384,-14.983809)"
       gradientUnits="userSpaceOnUse"
       id="linearGradient3347"
       xlink:href="#linearGradient2372-7-3-0"
       inkscape:collect="always" />
  </defs>
  <g
     id="layer1">
    <rect
       width="23.043743"
       height="5.6464386"
       x="6.4781284"
       y="32.005966"
       id="rect4173"
       style="opacity:0.40206185;fill:url(#linearGradient2493);fill-opacity:1;fill-rule:nonzero;stroke:none;stroke-width:1;marker:none;visibility:visible;display:inline;overflow:visible" />
    <path
       d="M 6.4781291,32.006159 C 6.4781291,32.006159 6.4781291,37.652285 6.4781291,37.652285 C 4.0204748,37.662915 0.536718,36.387275 0.536718,34.828859 C 0.536718,33.270444 3.2792746,32.006159 6.4781291,32.006159 L 6.4781291,32.006159 z"
       id="path5018"
       style="opacity:0.40206185;fill:url(#radialGradient2490);fill-opacity:1;fill-rule:nonzero;stroke:none;stroke-width:1;marker:none;visibility:visible;display:inline;overflow:visible" />
    <rect
       width="18.985626"
       height="32.985138"
       rx="0"
       ry="0"
       x="8.5071878"
       y="2.5"
       id="rect3457"
       style="fill:url(#linearGradient2478);fill-opacity:1;stroke:url(#linearGradient3487);stroke-width:1;stroke-linecap:butt;stroke-linejoin:round;stroke-miterlimit:4;stroke-dasharray:none;stroke-dashoffset:0;stroke-opacity:1" />
    <path
       d="M 9.471651,19.5 L 26.474626,19.5"
       id="path3460"
       style="fill:none;stroke:#333333;stroke-width:1;stroke-linecap:square;stroke-linejoin:round;stroke-miterlimit:4;stroke-dasharray:none;stroke-opacity:1" />
    <path
       d="M 9.5,20.5 C 15.164886,20.5 20.829772,20.5 26.494658,20.5"
       id="path3360"
       style="opacity:0.36637932;fill:none;stroke:#ffffff;stroke-width:1;stroke-linecap:square;stroke-linejoin:round;marker:none;stroke-miterlimit:4;stroke-dasharray:none;stroke-dashoffset:0;stroke-opacity:1;visibility:visible;display:block;overflow:visible" />
    <path
       d="M 8.5,2.5074512 C 8.5,6.5693327 8.5,29.871705 8.5,35.499548 C 6.8158614,35.499548 5.4022535,35.499548 3.7181147,35.499548 C 3.3087664,35.108905 3.6200397,34.333318 3.522778,33.780288 C 3.522778,23.419199 3.522778,13.058112 3.522778,2.6970247 L 3.579865,2.5628542 L 3.7181147,2.5074512 L 3.7181147,2.5074512 C 5.47096,2.5074512 6.7471548,2.5074512 8.5,2.5074512 z"
       id="path3385"
       style="fill:url(#radialGradient2484);fill-opacity:1;fill-rule:nonzero;stroke:url(#linearGradient3508);stroke-width:1;stroke-linecap:butt;stroke-linejoin:round;marker:none;stroke-miterlimit:4;stroke-dasharray:none;stroke-dashoffset:0;stroke-opacity:1;visibility:visible;display:block;overflow:visible" />
    <rect
       width="2"
       height="1.4065689"
       x="5"
       y="3.9999993"
       id="rect3464"
       style="fill:#ffffff;fill-opacity:1;stroke:none" />
    <rect
       width="2"
       height="1.4065689"
       x="5"
       y="7.1770468"
       id="rect3466"
       style="fill:#ffffff;fill-opacity:1;stroke:none" />
    <rect
       width="2"
       height="1.4065689"
       x="5"
       y="10.354094"
       id="rect3468"
       style="fill:#ffffff;fill-opacity:1;stroke:none" />
    <rect
       width="2"
       height="1.4065689"
       x="5"
       y="13.531144"
       id="rect3470"
       style="fill:#ffffff;fill-opacity:1;stroke:none" />
    <rect
       width="2"
       height="1.4065689"
       x="5"
       y="16.708193"
       id="rect3472"
       style="fill:#ffffff;fill-opacity:1;stroke:none" />
    <rect
       width="2"
       height="1.4065689"
       x="5"
       y="19.885241"
       id="rect3474"
       style="fill:#ffffff;fill-opacity:1;stroke:none" />
    <rect
       width="2"
       height="1.4065689"
       x="5"
       y="23.062286"
       id="rect3476"
       style="fill:#ffffff;fill-opacity:1;stroke:none" />
    <rect
       width="2"
       height="1.4065689"
       x="5"
       y="26.239334"
       id="rect3478"
       style="fill:#ffffff;fill-opacity:1;stroke:none" />
    <rect
       width="2"
       height="1.4065689"
       x="5"
       y="29.416382"
       id="rect3480"
       style="fill:#ffffff;fill-opacity:1;stroke:none" />
    <rect
       width="2"
       height="1.4065689"
       x="5"
       y="32.59343"
       id="rect3482"
       style="fill:#ffffff;fill-opacity:1;stroke:none" />
    <path
       d="M 27.5,35.477909 C 27.5,33.290399 27.5,5.4100099 27.5,2.5069991 C 29.18284,2.5069991 30.638905,2.5069991 32.301972,2.5069991 C 32.538056,2.5069991 32.49732,3.5427151 32.49732,4.2251554 C 32.49732,14.57959 32.497322,24.934023 32.497322,35.288456 C 32.094774,35.68547 31.295558,35.383576 30.725671,35.477909 C 29.591345,35.477909 28.634326,35.477909 27.5,35.477909 z"
       id="rect15391"
       style="fill:url(#radialGradient2481);fill-opacity:1;fill-rule:nonzero;stroke:url(#linearGradient3526);stroke-width:1;stroke-linecap:butt;stroke-linejoin:round;marker:none;stroke-miterlimit:4;stroke-dasharray:none;stroke-dashoffset:0;stroke-opacity:1;visibility:visible;display:block;overflow:visible" />
    <rect
       width="2"
       height="1.4065689"
       x="29"
       y="3.9999993"
       id="rect3362"
       style="fill:#ffffff;fill-opacity:1;stroke:none" />
    <rect
       width="2"
       height="1.4065689"
       x="29"
       y="7.1770468"
       id="rect3365"
       style="fill:#ffffff;fill-opacity:1;stroke:none" />
    <rect
       width="2"
       height="1.4065689"
       x="29"
       y="19.885241"
       id="rect3373"
       style="fill:#ffffff;fill-opacity:1;stroke:none" />
    <rect
       width="2"
       height="1.4065689"
       x="29"
       y="23.062286"
       id="rect3375"
       style="fill:#ffffff;fill-opacity:1;stroke:none" />
    <rect
       width="2"
       height="1.4065689"
       x="29"
       y="26.239334"
       id="rect3377"
       style="fill:#ffffff;fill-opacity:1;stroke:none" />
    <rect
       width="2"
       height="1.4065689"
       x="29"
       y="29.416382"
       id="rect3379"
       style="fill:#ffffff;fill-opacity:1;stroke:none" />
    <rect
       width="2"
       height="1.4065689"
       x="29"
       y="32.59343"
       id="rect3381"
       style="fill:#ffffff;fill-opacity:1;stroke:none" />
    <rect
       width="27"
       height="31.000002"
       rx="0"
       ry="0"
       x="4.5"
       y="3.5"
       id="rect2689"
       style="opacity:0.4;fill:none;fill-opacity:1;stroke:url(#linearGradient3467);stroke-width:1.00000012;stroke-linecap:square;stroke-miterlimit:4;stroke-dasharray:none;stroke-opacity:1" />
    <path
       d="M 29.521871,32.006159 C 29.521871,32.006159 29.521871,37.652285 29.521871,37.652285 C 31.979525,37.662915 35.463284,36.387275 35.463282,34.828859 C 35.463282,33.270444 32.720725,32.006159 29.521871,32.006159 L 29.521871,32.006159 z"
       id="path5058"
       style="opacity:0.40206185;fill:url(#radialGradient2487);fill-opacity:1;fill-rule:nonzero;stroke:none;stroke-width:1;marker:none;visibility:visible;display:inline;overflow:visible" />
    <path
       d="M 44.985349,31.631101 L 45.044739,15.109263 C 45.670658,15.027903 45.140839,15.096143 45.984867,14.974299 C 45.996437,18.060412 46.000727,20.139018 46.000727,31.794442 C 46.000727,31.881172 45.636187,31.750912 44.985346,31.631101 L 44.985349,31.631101 z"
       id="path3996"
       style="opacity:0.4;fill:url(#linearGradient2454);fill-opacity:1;fill-rule:evenodd;stroke:none" />
    <path
       d="M 46.92532,35.918255 C 46.92532,38.863042 44.332575,41.691596 41.134261,42.236007 C 37.935947,42.780418 35.343201,40.834529 35.343201,37.889742 C 35.343201,34.944954 37.935947,32.116398 41.134261,31.571987 C 44.332575,31.027576 46.92532,32.973467 46.92532,35.918255 z"
       id="path2716"
       style="opacity:0.6;fill:url(#radialGradient2451);fill-opacity:1;stroke:none" />
    <path
       d="M 27.061539,34.460235 L 27.061539,11.989291 C 27.061539,11.989291 27.178518,10.742467 28.2369,10.73817 C 28.32885,10.897434 46.093006,7.8560634 46.093006,7.8560634 C 46.093006,7.8560634 46.772805,8.9592907 39.090635,10.062755 C 28.156188,11.633374 28.061539,11.695966 28.061539,12.824623 C 28.061539,16.153779 28.061539,22.867344 28.061539,34.989291 C 27.826437,34.78867 27.533073,34.580048 27.061539,34.460235 L 27.061539,34.460235 z"
       id="path2720"
       style="opacity:0.4;fill:url(#linearGradient2448);fill-opacity:1;fill-rule:evenodd;stroke:none" />
    <path
       d="M 29.06154,38.705709 C 29.06154,41.553963 26.599107,44.289794 23.561541,44.816359 C 20.523974,45.342924 18.06154,43.460823 18.06154,40.612568 C 18.06154,37.764314 20.523974,35.028481 23.561541,34.501916 C 26.599107,33.975351 29.06154,35.857454 29.06154,38.705709 z"
       id="path2712"
       style="opacity:0.6;fill:url(#radialGradient2445);fill-opacity:1;stroke:none" />
    <g
       transform="matrix(2.4956542,0,0,2.4956542,13.538408,6.501045)"
       id="layer1-8-2">
      <path
         inkscape:connector-curvature="0"
         d="M 12.887143,11.242639 12.520463,8.2875931"
         id="path2931-1"
         style="fill:none;stroke:none" />
      <path
         inkscape:connector-curvature="0"
         d="M 12.862181,0.50107998 C 10.505078,0.88091513 7.3505507,1.2719259 5,1.6729744 4.3775618,1.9766657 4.5174948,2.758676 4.4899572,3.3260967 c 0,2.5319424 0,5.0638848 0,7.5958273 -1.3117262,-0.246608 -2.9113558,0.837273 -2.9807337,2.553424 -0.1132522,1.068438 0.8342068,1.998453 1.8644819,2.023461 1.844664,0.04478 3.1062853,-1.179076 3.1262946,-2.726857 -0.020145,-2.599408 0.00566,-5.1998384 0,-7.7996448 0.2855763,-0.02115 4.61103,-0.8465037 5,-0.901457 0,1.9471472 0,3.8942945 0,5.8414417 -1.146387,-0.2746364 -2.6118971,0.4787211 -2.9752697,2.0172541 -0.15337,0.862385 0.1364969,1.944831 1.0115464,2.309984 1.7082373,0.784936 4.0532683,-0.805037 3.9579313,-2.671065 -0.02646,-3.4661732 0.02169,-6.933764 0,-10.4003066 -0.04486,-0.32575865 -0.265607,-0.69059252 -0.632027,-0.66707842 l 0,0 z"
         id="path4031-7"
         style="fill:#a0e500;fill-opacity:1;stroke:#508238;stroke-width:0.5;stroke-linecap:round;stroke-linejoin:round;stroke-miterlimit:4;stroke-opacity:1;stroke-dasharray:none" />
      <path
         inkscape:connector-curvature="0"
         d="m 5.9735639,12.865117 c -1.897e-4,0.998069 -0.8929531,1.956631 -1.9941666,2.14114 -1.1012135,0.18451 -1.993976,-0.474885 -1.9941648,-1.47289 1.897e-4,-0.998069 0.8929531,-1.956631 1.9941666,-2.14114 1.1012135,-0.18451 1.993976,0.474885 1.9941648,1.47289 l 0,0 z"
         id="path2937-8"
         style="fill:url(#radialGradient3538-3-7);fill-opacity:1;stroke:none" />
      <path
         inkscape:connector-curvature="0"
         d="m 12.937933,11.82841 c -4.9e-5,0.982486 -0.876694,1.926163 -1.958074,2.107797 -1.08138,0.181633 -1.9580252,-0.467554 -1.9580741,-1.450023 -4.89e-5,-0.982532 0.8766251,-1.926313 1.9580741,-2.107958 1.081449,-0.181645 1.958123,0.467635 1.958074,1.450184 l 0,0 z"
         id="path2941-5"
         style="fill:url(#radialGradient3540-4-2);fill-opacity:1;stroke:none" />
      <path
         d="M 4.7691019,11.334081 4.715415,2.6516444 c 0,0 0.05877,-0.6637646 0.4947159,-0.6657879 0.1546126,-0.027048 6.9317151,-1.15654737 6.9317151,-1.15654737 0,0 0.132983,0.70947367 -6.0694897,1.62965477 -0.516931,0.077068 -0.76544,0.068481 -0.7627163,0.5583664 0.00735,1.3216244 -0.030358,3.795953 -0.030358,8.6082557 0,0.03443 -0.3254384,-0.243938 -0.5101806,-0.291505 l 5e-7,0 z"
         id="path2945-7"
         style="opacity:0.4;fill:url(#linearGradient4052);fill-opacity:1;fill-rule:evenodd;stroke:none"
         inkscape:connector-curvature="0" />
      <path
         d="m 11.762846,10.461072 0.03393,-6.5590208 c 0.357493,-0.0323 0.05489,-0.00519 0.53695,-0.053577 0.0066,1.2251582 2.74e-4,2.2420961 2.74e-4,6.8691938 0,0.03443 -0.199425,-0.209029 -0.571151,-0.256596 l -3e-6,0 z"
         id="path2947-4"
         style="opacity:0.4;fill:url(#linearGradient3347);fill-opacity:1;fill-rule:evenodd;stroke:none"
         inkscape:connector-curvature="0" />
    </g>
  </g>
</svg>
